TwilioSansMono-SemiBoldItalic.ufo
<glyph name="numbersign" format="2">
	<unicode hex="0023"/>
	<advance width="600"/>
	<outline>
		<contour>
			<point x="27" y="256" type="line"/>
			<point x="13" y="161" type="line"/>
			<point x="109" y="161" type="line"/>
			<point x="71" y="0" type="line"/>
			<point x="170" y="0" type="line"/>
			<point x="208" y="161" type="line"/>
			<point x="329" y="161" type="line"/>
			<point x="291" y="0" type="line"/>
			<point x="390" y="0" type="line"/>
			<point x="428" y="161" type="line"/>
			<point x="535" y="161" type="line"/>
			<point x="548" y="256" type="line"/>
			<point x="451" y="256" type="line"/>
			<point x="494" y="437" type="line"/>
			<point x="597" y="437" type="line"/>
			<point x="610" y="533" type="line"/>
			<point x="516" y="533" type="line"/>
			<point x="552" y="684" type="line"/>
			<point x="452" y="684" type="line"/>
			<point x="416" y="533" type="line"/>
			<point x="295" y="533" type="line"/>
			<point x="331" y="684" type="line"/>
			<point x="233" y="684" type="line"/>
			<point x="197" y="533" type="line"/>
			<point x="89" y="533" type="line"/>
			<point x="77" y="437" type="line"/>
			<point x="175" y="437" type="line"/>
			<point x="132" y="256" type="line"/>
		</contour>
		<contour>
			<point x="230" y="256" type="line"/>
			<point x="273" y="437" type="line"/>
			<point x="394" y="437" type="line"/>
			<point x="351" y="256" type="line"/>
		</contour>
	</outline>
</glyph>
<glyph name="percent" format="2">
	<unicode hex="0025"/>
	<advance width="600"/>
	<outline>
		<contour>
			<point x="187" y="338" type="curve" smooth="yes"/>
			<point x="273" y="338"/>
			<point x="333" y="395"/>
			<point x="349" y="508" type="curve" smooth="yes"/>
			<point x="364" y="620"/>
			<point x="321" y="696"/>
			<point x="220" y="696" type="curve" smooth="yes"/>
			<point x="133" y="696"/>
			<point x="73" y="635"/>
			<point x="59" y="526" type="curve" smooth="yes"/>
			<point x="43" y="408"/>
			<point x="90" y="338"/>
		</contour>
		<contour>
			<point x="396" y="413" type="line"/>
			<point x="499" y="413" type="line"/>
			<point x="640" y="684" type="line"/>
			<point x="518" y="684" type="line"/>
		</contour>
		<contour>
			<point x="190" y="404" type="curve" smooth="yes"/>
			<point x="146" y="404"/>
			<point x="137" y="443"/>
			<point x="147" y="521" type="curve" smooth="yes"/>
			<point x="158" y="600"/>
			<point x="177" y="630"/>
			<point x="216" y="630" type="curve" smooth="yes"/>
			<point x="262" y="630"/>
			<point x="270" y="588"/>
			<point x="260" y="512" type="curve" smooth="yes"/>
			<point x="249" y="435"/>
			<point x="230" y="404"/>
		</contour>
		<contour>
			<point x="403" y="-12" type="curve" smooth="yes"/>
			<point x="489" y="-12"/>
			<point x="549" y="45"/>
			<point x="564" y="158" type="curve" smooth="yes"/>
			<point x="580" y="270"/>
			<point x="537" y="346"/>
			<point x="436" y="346" type="curve" smooth="yes"/>
			<point x="348" y="346"/>
			<point x="289" y="285"/>
			<point x="274" y="176" type="curve" smooth="yes"/>
			<point x="258" y="58"/>
			<point x="306" y="-12"/>
		</contour>
		<contour>
			<point x="406" y="54" type="curve" smooth="yes"/>
			<point x="361" y="54"/>
			<point x="352" y="93"/>
			<point x="363" y="171" type="curve" smooth="yes"/>
			<point x="373" y="250"/>
			<point x="393" y="280"/>
			<point x="432" y="280" type="curve" smooth="yes"/>
			<point x="478" y="280"/>
			<point x="486" y="238"/>
			<point x="475" y="162" type="curve" smooth="yes"/>
			<point x="465" y="85"/>
			<point x="446" y="54"/>
		</contour>
		<contour>
			<point x="-17" y="0" type="line"/>
			<point x="105" y="0" type="line"/>
			<point x="228" y="271" type="line"/>
			<point x="124" y="271" type="line"/>
		</contour>
	</outline>
</glyph>
<glyph name="asterisk" format="2">
	<unicode hex="002A"/>
	<advance width="600"/>
	<outline>
		<contour>
			<point x="464" y="147" type="line"/>
			<point x="538" y="252" type="line"/>
			<point x="367" y="321" type="line"/>
			<point x="560" y="389" type="line"/>
			<point x="514" y="494" type="line"/>
			<point x="344" y="370" type="line"/>
			<point x="404" y="564" type="line"/>
			<point x="283" y="564" type="line"/>
			<point x="286" y="371" type="line"/>
			<point x="151" y="496" type="line"/>
			<point x="76" y="391" type="line"/>
			<point x="252" y="321" type="line"/>
			<point x="57" y="251" type="line"/>
			<point x="103" y="146" type="line"/>
			<point x="273" y="271" type="line"/>
			<point x="215" y="76" type="line"/>
			<point x="336" y="76" type="line"/>
			<point x="331" y="271" type="line"/>
		</contour>
	</outline>
</glyph>
<glyph name="plus" format="2">
	<unicode hex="002B"/>
	<advance width="600"/>
	<outline>
		<contour>
			<point x="282" y="529" type="line"/>
			<point x="257" y="350" type="line"/>
			<point x="82" y="350" type="line"/>
			<point x="66" y="244" type="line"/>
			<point x="242" y="244" type="line"/>
			<point x="217" y="65" type="line"/>
			<point x="327" y="65" type="line"/>
			<point x="352" y="244" type="line"/>
			<point x="527" y="244" type="line"/>
			<point x="543" y="350" type="line"/>
			<point x="367" y="350" type="line"/>
			<point x="392" y="529" type="line"/>
		</contour>
	</outline>
</glyph>
<glyph name="comma" format="2">
	<unicode hex="002C"/>
	<advance width="600"/>
	<outline>
		<contour>
			<point x="228" y="151" type="line"/>
			<point x="132" y="-175" type="line"/>
			<point x="223" y="-175" type="line"/>
			<point x="395" y="151" type="line"/>
		</contour>
	</outline>
</glyph>
<glyph name="hyphen" format="2">
	<unicode hex="002D"/>
	<advance width="600"/>
	<outline>
		<contour>
			<point x="491" y="353" type="line"/>
			<point x="134" y="353" type="line"/>
			<point x="119" y="241" type="line"/>
			<point x="475" y="241" type="line"/>
		</contour>
	</outline>
</glyph>
<glyph name="zero" format="2">
	<unicode hex="0030"/>
	<advance width="600"/>
	<outline>
		<contour>
			<point x="281" y="-14" type="curve" smooth="yes"/>
			<point x="440" y="-14"/>
			<point x="531" y="110"/>
			<point x="559" y="304" type="curve" smooth="yes"/>
			<point x="561" y="318" type="line" smooth="yes"/>
			<point x="596" y="563"/>
			<point x="519" y="698"/>
			<point x="341" y="698" type="curve" smooth="yes"/>
			<point x="185" y="698"/>
			<point x="92" y="574"/>
			<point x="64" y="379" type="curve" smooth="yes"/>
			<point x="62" y="365" type="line" smooth="yes"/>
			<point x="27" y="121"/>
			<point x="103" y="-14"/>
		</contour>
		<contour>
			<point x="288" y="90" type="curve" smooth="yes"/>
			<point x="185" y="90"/>
			<point x="154" y="182"/>
			<point x="178" y="354" type="curve" smooth="yes"/>
			<point x="179" y="361" type="line" smooth="yes"/>
			<point x="201" y="515"/>
			<point x="251" y="594"/>
			<point x="335" y="594" type="curve" smooth="yes"/>
			<point x="438" y="594"/>
			<point x="469" y="502"/>
			<point x="445" y="332" type="curve" smooth="yes"/>
			<point x="444" y="325" type="line" smooth="yes"/>
			<point x="422" y="170"/>
			<point x="375" y="90"/>
		</contour>
		<contour>
			<point x="305" y="264" type="curve" smooth="yes"/>
			<point x="347" y="264"/>
			<point x="369" y="286"/>
			<point x="376" y="337" type="curve" smooth="yes"/>
			<point x="385" y="397"/>
			<point x="360" y="421"/>
			<point x="318" y="421" type="curve" smooth="yes"/>
			<point x="276" y="421"/>
			<point x="254" y="400"/>
			<point x="247" y="350" type="curve" smooth="yes"/>
			<point x="238" y="288"/>
			<point x="262" y="264"/>
		</contour>
	</outline>
</glyph>
<glyph name="one" format="2">
	<unicode hex="0031"/>
	<advance width="600"/>
	<outline>
		<contour>
			<point x="18" y="0" type="line"/>
			<point x="530" y="0" type="line"/>
			<point x="545" y="111" type="line"/>
			<point x="363" y="111" type="line"/>
			<point x="443" y="684" type="line"/>
			<point x="314" y="684" type="line"/>
			<point x="97" y="528" type="line"/>
			<point x="80" y="401" type="line"/>
			<point x="300" y="557" type="line"/>
			<point x="237" y="111" type="line"/>
			<point x="34" y="111" type="line"/>
		</contour>
	</outline>
</glyph>
<glyph name="two" format="2">
	<unicode hex="0032"/>
	<advance width="600"/>
	<outline>
		<contour>
			<point x="29" y="0" type="line"/>
			<point x="494" y="0" type="line"/>
			<point x="510" y="112" type="line"/>
			<point x="235" y="112" type="line"/>
			<point x="281" y="141" type="line" smooth="yes"/>
			<point x="424" y="229"/>
			<point x="551" y="329"/>
			<point x="551" y="499" type="curve" smooth="yes"/>
			<point x="551" y="622"/>
			<point x="476" y="697"/>
			<point x="333" y="697" type="curve" smooth="yes"/>
			<point x="240" y="697"/>
			<point x="167" y="665"/>
			<point x="118" y="629" type="curve"/>
			<point x="102" y="510" type="line"/>
			<point x="162" y="557"/>
			<point x="230" y="590"/>
			<point x="301" y="590" type="curve" smooth="yes"/>
			<point x="381" y="590"/>
			<point x="422" y="547"/>
			<point x="422" y="477" type="curve" smooth="yes"/>
			<point x="422" y="354"/>
			<point x="308" y="279"/>
			<point x="172" y="186" type="curve" smooth="yes"/>
			<point x="42" y="97" type="line"/>
		</contour>
	</outline>
</glyph>
<glyph name="three" format="2">
	<unicode hex="0033"/>
	<advance width="600"/>
	<outline>
		<contour>
			<point x="255" y="-13" type="curve" smooth="yes"/>
			<point x="421" y="-13"/>
			<point x="528" y="80"/>
			<point x="528" y="239" type="curve" smooth="yes"/>
			<point x="528" y="338"/>
			<point x="476" y="403"/>
			<point x="351" y="414" type="curve"/>
			<point x="565" y="580" type="line"/>
			<point x="580" y="684" type="line"/>
			<point x="125" y="684" type="line"/>
			<point x="110" y="580" type="line"/>
			<point x="404" y="580" type="line"/>
			<point x="166" y="386" type="line"/>
			<point x="154" y="305" type="line"/>
			<point x="183" y="315"/>
			<point x="225" y="322"/>
			<point x="265" y="322" type="curve" smooth="yes"/>
			<point x="365" y="322"/>
			<point x="400" y="284"/>
			<point x="400" y="222" type="curve" smooth="yes"/>
			<point x="400" y="141"/>
			<point x="343" y="91"/>
			<point x="249" y="91" type="curve" smooth="yes"/>
			<point x="183" y="91"/>
			<point x="113" y="115"/>
			<point x="50" y="169" type="curve"/>
			<point x="35" y="59" type="line"/>
			<point x="86" y="19"/>
			<point x="159" y="-13"/>
		</contour>
	</outline>
</glyph>
<glyph name="five" format="2">
	<unicode hex="0035"/>
	<advance width="600"/>
	<outline>
		<contour>
			<point x="260" y="-13" type="curve" smooth="yes"/>
			<point x="426" y="-13"/>
			<point x="528" y="86"/>
			<point x="527" y="243" type="curve" smooth="yes"/>
			<point x="526" y="371"/>
			<point x="452" y="424"/>
			<point x="313" y="424" type="curve" smooth="yes"/>
			<point x="280" y="424"/>
			<point x="254" y="421"/>
			<point x="229" y="416" type="curve"/>
			<point x="253" y="580" type="line"/>
			<point x="565" y="580" type="line"/>
			<point x="579" y="684" type="line"/>
			<point x="151" y="684" type="line"/>
			<point x="97" y="297" type="line"/>
			<point x="147" y="314"/>
			<point x="201" y="326"/>
			<point x="261" y="326" type="curve" smooth="yes"/>
			<point x="356" y="326"/>
			<point x="397" y="296"/>
			<point x="398" y="227" type="curve" smooth="yes"/>
			<point x="399" y="142"/>
			<point x="346" y="92"/>
			<point x="256" y="92" type="curve" smooth="yes"/>
			<point x="195" y="92"/>
			<point x="119" y="115"/>
			<point x="54" y="169" type="curve"/>
			<point x="39" y="61" type="line"/>
			<point x="82" y="22"/>
			<point x="160" y="-13"/>
		</contour>
	</outline>
</glyph>
<glyph name="eight" format="2">
	<unicode hex="0038"/>
	<advance width="600"/>
	<outline>
		<contour>
			<point x="278" y="-14" type="curve" smooth="yes"/>
			<point x="455" y="-14"/>
			<point x="547" y="72"/>
			<point x="547" y="199" type="curve" smooth="yes"/>
			<point x="547" y="278"/>
			<point x="504" y="327"/>
			<point x="421" y="346" type="curve"/>
			<point x="517" y="364"/>
			<point x="582" y="428"/>
			<point x="582" y="530" type="curve" smooth="yes"/>
			<point x="582" y="638"/>
			<point x="495" y="698"/>
			<point x="346" y="698" type="curve" smooth="yes"/>
			<point x="190" y="698"/>
			<point x="93" y="628"/>
			<point x="93" y="498" type="curve" smooth="yes"/>
			<point x="93" y="421"/>
			<point x="137" y="372"/>
			<point x="204" y="354" type="curve"/>
			<point x="98" y="338"/>
			<point x="31" y="274"/>
			<point x="31" y="165" type="curve" smooth="yes"/>
			<point x="31" y="39"/>
			<point x="136" y="-14"/>
		</contour>
		<contour>
			<point x="329" y="397" type="curve" smooth="yes"/>
			<point x="257" y="397"/>
			<point x="213" y="431"/>
			<point x="213" y="489" type="curve" smooth="yes"/>
			<point x="213" y="562"/>
			<point x="256" y="601"/>
			<point x="339" y="601" type="curve" smooth="yes"/>
			<point x="412" y="601"/>
			<point x="457" y="573"/>
			<point x="457" y="510" type="curve" smooth="yes"/>
			<point x="457" y="438"/>
			<point x="411" y="397"/>
		</contour>
		<contour>
			<point x="285" y="84" type="curve" smooth="yes"/>
			<point x="210" y="84"/>
			<point x="159" y="115"/>
			<point x="159" y="184" type="curve" smooth="yes"/>
			<point x="159" y="261"/>
			<point x="206" y="301"/>
			<point x="294" y="301" type="curve" smooth="yes"/>
			<point x="379" y="301"/>
			<point x="419" y="270"/>
			<point x="419" y="208" type="curve" smooth="yes"/>
			<point x="419" y="130"/>
			<point x="370" y="84"/>
		</contour>
	</outline>
</glyph>
<glyph name="nine" format="2">
	<unicode hex="0039"/>
	<advance width="600"/>
	<outline>
		<contour>
			<point x="243" y="-13" type="curve" smooth="yes"/>
			<point x="447" y="-13"/>
			<point x="533" y="113"/>
			<point x="563" y="322" type="curve" smooth="yes"/>
			<point x="565" y="336" type="line" smooth="yes"/>
			<point x="598" y="568"/>
			<point x="541" y="698"/>
			<point x="338" y="698" type="curve" smooth="yes"/>
			<point x="179" y="698"/>
			<point x="74" y="591"/>
			<point x="74" y="422" type="curve" smooth="yes"/>
			<point x="74" y="300"/>
			<point x="141" y="230"/>
			<point x="256" y="230" type="curve" smooth="yes"/>
			<point x="329" y="230"/>
			<point x="390" y="265"/>
			<point x="433" y="343" type="curve"/>
			<point x="406" y="164"/>
			<point x="357" y="92"/>
			<point x="235" y="92" type="curve" smooth="yes"/>
			<point x="161" y="92"/>
			<point x="95" y="118"/>
			<point x="48" y="162" type="curve"/>
			<point x="34" y="54" type="line"/>
			<point x="75" y="15"/>
			<point x="154" y="-13"/>
		</contour>
		<contour>
			<point x="313" y="326" type="curve" smooth="yes"/>
			<point x="246" y="326"/>
			<point x="201" y="360"/>
			<point x="201" y="439" type="curve" smooth="yes"/>
			<point x="201" y="537"/>
			<point x="249" y="597"/>
			<point x="330" y="597" type="curve" smooth="yes"/>
			<point x="401" y="597"/>
			<point x="443" y="555"/>
			<point x="443" y="477" type="curve" smooth="yes"/>
			<point x="443" y="383"/>
			<point x="391" y="326"/>
		</contour>
	</outline>
</glyph>
<glyph name="less" format="2">
	<unicode hex="003C"/>
	<advance width="600"/>
	<outline>
		<contour>
			<point x="498" y="25" type="line"/>
			<point x="514" y="143" type="line"/>
			<point x="176" y="295" type="line"/>
			<point x="557" y="447" type="line"/>
			<point x="575" y="571" type="line"/>
			<point x="83" y="366" type="line"/>
			<point x="64" y="229" type="line"/>
		</contour>
	</outline>
</glyph>
<glyph name="question" format="2">
	<unicode hex="003F"/>
	<advance width="600"/>
	<outline>
		<contour>
			<point x="213" y="219" type="curve"/>
			<point x="324" y="219" type="line"/>
			<point x="327" y="245" type="line" smooth="yes"/>
			<point x="340" y="358"/>
			<point x="544" y="360"/>
			<point x="544" y="535" type="curve" smooth="yes"/>
			<point x="544" y="632"/>
			<point x="473" y="698"/>
			<point x="338" y="698" type="curve" smooth="yes"/>
			<point x="259" y="698"/>
			<point x="198" y="678"/>
			<point x="149" y="650" type="curve"/>
			<point x="133" y="536" type="line"/>
			<point x="182" y="569"/>
			<point x="243" y="591"/>
			<point x="309" y="591" type="curve" smooth="yes"/>
			<point x="380" y="591"/>
			<point x="417" y="564"/>
			<point x="417" y="514" type="curve" smooth="yes"/>
			<point x="417" y="413"/>
			<point x="224" y="409"/>
			<point x="212" y="256" type="curve" smooth="yes"/>
			<point x="210" y="239"/>
			<point x="211" y="227"/>
		</contour>
		<contour>
			<point x="244" y="-11" type="curve" smooth="yes"/>
			<point x="301" y="-11"/>
			<point x="327" y="10"/>
			<point x="334" y="57" type="curve" smooth="yes"/>
			<point x="342" y="113"/>
			<point x="315" y="140"/>
			<point x="256" y="140" type="curve" smooth="yes"/>
			<point x="199" y="140"/>
			<point x="173" y="118"/>
			<point x="166" y="72" type="curve" smooth="yes"/>
			<point x="158" y="15"/>
			<point x="185" y="-11"/>
		</contour>
	</outline>
</glyph>
<glyph name="at" format="2">
	<unicode hex="0040"/>
	<advance width="600"/>
	<outline>
		<contour>
			<point x="328" y="-135" type="curve" smooth="yes"/>
			<point x="403" y="-135"/>
			<point x="463" y="-117"/>
			<point x="498" y="-99" type="curve"/>
			<point x="510" y="-1" type="line"/>
			<point x="463" y="-25"/>
			<point x="404" y="-37"/>
			<point x="339" y="-37" type="curve" smooth="yes"/>
			<point x="177" y="-37"/>
			<point x="116" y="77"/>
			<point x="147" y="292" type="curve" smooth="yes"/>
			<point x="148" y="299" type="line" smooth="yes"/>
			<point x="177" y="501"/>
			<point x="240" y="601"/>
			<point x="360" y="601" type="curve" smooth="yes"/>
			<point x="455" y="601"/>
			<point x="485" y="548"/>
			<point x="472" y="450" type="curve" smooth="yes"/>
			<point x="466" y="402" type="line"/>
			<point x="451" y="460"/>
			<point x="418" y="492"/>
			<point x="360" y="492" type="curve" smooth="yes"/>
			<point x="280" y="492"/>
			<point x="219" y="420"/>
			<point x="200" y="290" type="curve" smooth="yes"/>
			<point x="180" y="146"/>
			<point x="222" y="62"/>
			<point x="314" y="62" type="curve" smooth="yes"/>
			<point x="370" y="62"/>
			<point x="407" y="99"/>
			<point x="432" y="153" type="curve"/>
			<point x="419" y="67" type="line"/>
			<point x="522" y="67" type="line"/>
			<point x="576" y="450" type="line" smooth="yes"/>
			<point x="599" y="613"/>
			<point x="532" y="698"/>
			<point x="369" y="698" type="curve" smooth="yes"/>
			<point x="180" y="698"/>
			<point x="78" y="561"/>
			<point x="42" y="311" type="curve" smooth="yes"/>
			<point x="40" y="297" type="line" smooth="yes"/>
			<point x="-2" y="4"/>
			<point x="111" y="-135"/>
		</contour>
		<contour>
			<point x="364" y="147" type="curve" smooth="yes"/>
			<point x="315" y="147"/>
			<point x="290" y="191"/>
			<point x="303" y="282" type="curve" smooth="yes"/>
			<point x="315" y="368"/>
			<point x="345" y="407"/>
			<point x="390" y="407" type="curve" smooth="yes"/>
			<point x="436" y="407"/>
			<point x="464" y="366"/>
			<point x="452" y="273" type="curve" smooth="yes"/>
			<point x="442" y="191"/>
			<point x="409" y="147"/>
		</contour>
	</outline>
</glyph>
<glyph name="A" format="2">
	<unicode hex="0041"/>
	<advance width="600"/>
	<outline>
		<contour>
			<point x="-22" y="0" type="line"/>
			<point x="111" y="0" type="line"/>
			<point x="172" y="153" type="line"/>
			<point x="400" y="153" type="line"/>
			<point x="419" y="0" type="line"/>
			<point x="548" y="0" type="line"/>
			<point x="447" y="686" type="line"/>
			<point x="270" y="686" type="line"/>
		</contour>
		<contour>
			<point x="213" y="256" type="line"/>
			<point x="347" y="590" type="line"/>
			<point x="388" y="256" type="line"/>
		</contour>
	</outline>
	<anchor name="ogonek" x="548" y="0"/>
	<anchor name="bottom" x="294" y="0"/>
	<anchor name="top" x="359" y="684"/>
</glyph>
<glyph name="B" format="2">
	<unicode hex="0042"/>
	<advance width="600"/>
	<outline>
		<contour>
			<point x="386" y="685" type="curve" smooth="yes"/>
			<point x="126" y="685" type="line"/>
			<point x="30" y="0" type="line"/>
			<point x="323" y="0" type="line" smooth="yes"/>
			<point x="459" y="0"/>
			<point x="549" y="77"/>
			<point x="549" y="203" type="curve" smooth="yes"/>
			<point x="549" y="285"/>
			<point x="505" y="332"/>
			<point x="411" y="350" type="curve"/>
			<point x="518" y="364"/>
			<point x="583" y="427"/>
			<point x="583" y="525" type="curve" smooth="yes"/>
			<point x="583" y="617"/>
			<point x="527" y="685"/>
		</contour>
		<contour>
			<point x="353" y="586" type="line" smooth="yes"/>
			<point x="421" y="586"/>
			<point x="452" y="557"/>
			<point x="452" y="500" type="curve" smooth="yes"/>
			<point x="452" y="432"/>
			<point x="406" y="395"/>
			<point x="333" y="395" type="curve" smooth="yes"/>
			<point x="211" y="395" type="line"/>
			<point x="239" y="586" type="line"/>
		</contour>
		<contour>
			<point x="314" y="296" type="line" smooth="yes"/>
			<point x="390" y="296"/>
			<point x="417" y="261"/>
			<point x="417" y="207" type="curve" smooth="yes"/>
			<point x="417" y="140"/>
			<point x="376" y="102"/>
			<point x="301" y="102" type="curve" smooth="yes"/>
			<point x="170" y="102" type="line"/>
			<point x="197" y="296" type="line"/>
		</contour>
	</outline>
	<anchor name="top" x="369" y="684"/>
	<anchor name="bottom" x="284" y="0"/>
</glyph>
<glyph name="C" format="2">
	<unicode hex="0043"/>
	<advance width="600"/>
	<outline>
		<contour>
			<point x="370" y="-12" type="curve" smooth="yes"/>
			<point x="428" y="-12"/>
			<point x="472" y="-2"/>
			<point x="507" y="13" type="curve"/>
			<point x="522" y="120" type="line"/>
			<point x="481" y="103"/>
			<point x="438" y="95"/>
			<point x="392" y="95" type="curve" smooth="yes"/>
			<point x="231" y="95"/>
			<point x="178" y="221"/>
			<point x="200" y="369" type="curve" smooth="yes"/>
			<point x="201" y="376" type="line" smooth="yes"/>
			<point x="221" y="516"/>
			<point x="296" y="589"/>
			<point x="425" y="589" type="curve" smooth="yes"/>
			<point x="481" y="589"/>
			<point x="536" y="575"/>
			<point x="581" y="547" type="curve"/>
			<point x="596" y="654" type="line"/>
			<point x="557" y="676"/>
			<point x="494" y="695"/>
			<point x="418" y="695" type="curve" smooth="yes"/>
			<point x="214" y="695"/>
			<point x="97" y="571"/>
			<point x="72" y="393" type="curve" smooth="yes"/>
			<point x="70" y="379" type="line" smooth="yes"/>
			<point x="40" y="173"/>
			<point x="122" y="-12"/>
		</contour>
	</outline>
	<anchor name="top" x="429" y="684"/>
	<anchor name="bottom" x="332" y="0"/>
</glyph>
<glyph name="D" format="2">
	<unicode hex="0044"/>
	<advance width="600"/>
	<outline>
		<contour>
			<point x="24" y="0" type="line"/>
			<point x="270" y="0" type="line" smooth="yes"/>
			<point x="442" y="0"/>
			<point x="540" y="100"/>
			<point x="568" y="301" type="curve" smooth="yes"/>
			<point x="571" y="319" type="line" smooth="yes"/>
			<point x="601" y="541"/>
			<point x="519" y="684"/>
			<point x="331" y="684" type="curve" smooth="yes"/>
			<point x="120" y="684" type="line"/>
		</contour>
		<contour>
			<point x="309" y="581" type="line" smooth="yes"/>
			<point x="413" y="581"/>
			<point x="464" y="507"/>
			<point x="442" y="334" type="curve" smooth="yes"/>
			<point x="440" y="323" type="line" smooth="yes"/>
			<point x="421" y="176"/>
			<point x="368" y="104"/>
			<point x="267" y="104" type="curve" smooth="yes"/>
			<point x="165" y="104" type="line"/>
			<point x="233" y="581" type="line"/>
		</contour>
	</outline>
	<anchor name="center" x="169" y="342"/>
	<anchor name="bottom" x="278" y="0"/>
	<anchor name="top" x="329" y="684"/>
</glyph>
<glyph name="F" format="2">
	<unicode hex="0046"/>
	<advance width="600"/>
	<outline>
		<contour>
			<point x="49" y="0" type="line"/>
			<point x="176" y="0" type="line"/>
			<point x="215" y="281" type="line"/>
			<point x="508" y="281" type="line"/>
			<point x="523" y="385" type="line"/>
			<point x="230" y="385" type="line"/>
			<point x="258" y="580" type="line"/>
			<point x="591" y="580" type="line"/>
			<point x="606" y="684" type="line"/>
			<point x="145" y="684" type="line"/>
		</contour>
	</outline>
	<anchor name="ogonek" x="532" y="0"/>
	<anchor name="bottom" x="294" y="0"/>
	<anchor name="top" x="380" y="684"/>
</glyph>
<glyph name="G" format="2">
	<unicode hex="0047"/>
	<advance width="600"/>
	<outline>
		<contour>
			<point x="285" y="-14" type="curve" smooth="yes"/>
			<point x="444" y="-14"/>
			<point x="535" y="80"/>
			<point x="564" y="283" type="curve" smooth="yes"/>
			<point x="579" y="390" type="line"/>
			<point x="305" y="390" type="line"/>
			<point x="290" y="288" type="line"/>
			<point x="439" y="288" type="line"/>
			<point x="438" y="281" type="line"/>
			<point x="423" y="157"/>
			<point x="382" y="91"/>
			<point x="291" y="91" type="curve" smooth="yes"/>
			<point x="190" y="91"/>
			<point x="149" y="178"/>
			<point x="174" y="352" type="curve" smooth="yes"/>
			<point x="175" y="359" type="line" smooth="yes"/>
			<point x="197" y="515"/>
			<point x="254" y="595"/>
			<point x="382" y="595" type="curve" smooth="yes"/>
			<point x="452" y="595"/>
			<point x="519" y="567"/>
			<point x="557" y="533" type="curve"/>
			<point x="573" y="642" type="line"/>
			<point x="534" y="670"/>
			<point x="463" y="698"/>
			<point x="373" y="698" type="curve" smooth="yes"/>
			<point x="181" y="698"/>
			<point x="78" y="575"/>
			<point x="50" y="379" type="curve" smooth="yes"/>
			<point x="48" y="365" type="line" smooth="yes"/>
			<point x="15" y="133"/>
			<point x="84" y="-14"/>
		</contour>
	</outline>
	<anchor name="top" x="376" y="684"/>
	<anchor name="bottom" x="278" y="0"/>
</glyph>
<glyph name="I" format="2">
	<unicode hex="0049"/>
	<advance width="600"/>
	<outline>
		<contour>
			<point x="37" y="0" type="line"/>
			<point x="488" y="0" type="line"/>
			<point x="502" y="101" type="line"/>
			<point x="340" y="101" type="line"/>
			<point x="408" y="583" type="line"/>
			<point x="570" y="583" type="line"/>
			<point x="584" y="684" type="line"/>
			<point x="134" y="684" type="line"/>
			<point x="119" y="583" type="line"/>
			<point x="281" y="583" type="line"/>
			<point x="213" y="101" type="line"/>
			<point x="52" y="101" type="line"/>
		</contour>
	</outline>
	<anchor name="ogonek" x="488" y="0"/>
	<anchor name="bottom" x="12394" y="0"/>
	<anchor name="top" x="359" y="684"/>
</glyph>
<glyph name="J" format="2">
	<unicode hex="004A"/>
	<advance width="600"/>
	<outline>
		<contour>
			<point x="229" y="-13" type="curve" smooth="yes"/>
			<point x="383" y="-13"/>
			<point x="483" y="51"/>
			<point x="505" y="207" type="curve" smooth="yes"/>
			<point x="571" y="684" type="line"/>
			<point x="138" y="684" type="line"/>
			<point x="123" y="575" type="line"/>
			<point x="429" y="575" type="line"/>
			<point x="381" y="237" type="line" smooth="yes"/>
			<point x="365" y="127"/>
			<point x="308" y="93"/>
			<point x="216" y="93" type="curve" smooth="yes"/>
			<point x="156" y="93"/>
			<point x="102" y="110"/>
			<point x="62" y="131" type="curve"/>
			<point x="47" y="28" type="line"/>
			<point x="88" y="5"/>
			<point x="152" y="-13"/>
		</contour>
	</outline>
	<anchor name="top" x="361" y="684"/>
	<anchor name="bottom" x="81" y="0"/>
</glyph>
<glyph name="K" format="2">
	<unicode hex="004B"/>
	<advance width="600"/>
	<outline>
		<contour>
			<point x="30" y="0" type="line"/>
			<point x="157" y="0" type="line"/>
			<point x="182" y="175" type="line"/>
			<point x="295" y="310" type="line"/>
			<point x="405" y="0" type="line"/>
			<point x="545" y="0" type="line"/>
			<point x="404" y="394" type="line"/>
			<point x="627" y="684" type="line"/>
			<point x="478" y="684" type="line"/>
			<point x="203" y="328" type="line"/>
			<point x="253" y="684" type="line"/>
			<point x="126" y="684" type="line"/>
		</contour>
	</outline>
	<anchor name="top" x="390" y="684"/>
	<anchor name="bottom" x="280" y="0"/>
</glyph>
<glyph name="L" format="2">
	<unicode hex="004C"/>
	<advance width="600"/>
	<outline>
		<contour>
			<point x="52" y="0" type="line"/>
			<point x="511" y="0" type="line"/>
			<point x="527" y="116" type="line"/>
			<point x="196" y="116" type="line"/>
			<point x="275" y="684" type="line"/>
			<point x="148" y="684" type="line"/>
		</contour>
	</outline>
	<anchor name="center" x="164" y="334"/>
	<anchor name="caron" x="395" y="684"/>
	<anchor name="top" x="212" y="684"/>
	<anchor name="bottom" x="282" y="0"/>
</glyph>
<glyph name="P" format="2">
	<unicode hex="0050"/>
	<advance width="600"/>
	<outline>
		<contour>
			<point x="35" y="0" type="line"/>
			<point x="162" y="0" type="line"/>
			<point x="192" y="211" type="line"/>
			<point x="339" y="211" type="line" smooth="yes"/>
			<point x="490" y="211"/>
			<point x="598" y="309"/>
			<point x="598" y="474" type="curve" smooth="yes"/>
			<point x="598" y="602"/>
			<point x="520" y="684"/>
			<point x="373" y="684" type="curve" smooth="yes"/>
			<point x="131" y="684" type="line"/>
		</contour>
		<contour>
			<point x="349" y="581" type="line" smooth="yes"/>
			<point x="436" y="581"/>
			<point x="469" y="529"/>
			<point x="469" y="463" type="curve" smooth="yes"/>
			<point x="469" y="368"/>
			<point x="416" y="313"/>
			<point x="329" y="313" type="curve" smooth="yes"/>
			<point x="206" y="313" type="line"/>
			<point x="244" y="581" type="line"/>
		</contour>
	</outline>
	<anchor name="top" x="392" y="684"/>
	<anchor name="bottom" x="144" y="0"/>
</glyph>
<glyph name="W" format="2">
	<unicode hex="0057"/>
	<advance width="600"/>
	<outline>
		<contour>
			<point x="41" y="0" type="line"/>
			<point x="209" y="0" type="line"/>
			<point x="311" y="380" type="line"/>
			<point x="319" y="380" type="line"/>
			<point x="317" y="0" type="line"/>
			<point x="486" y="0" type="line"/>
			<point x="633" y="684" type="line"/>
			<point x="514" y="684" type="line"/>
			<point x="409" y="137" type="line"/>
			<point x="400" y="137" type="line"/>
			<point x="403" y="536" type="line"/>
			<point x="270" y="536" type="line"/>
			<point x="163" y="137" type="line"/>
			<point x="153" y="137" type="line"/>
			<point x="201" y="684" type="line"/>
			<point x="85" y="684" type="line"/>
		</contour>
	</outline>
	<anchor name="top" x="359" y="684"/>
</glyph>
<glyph name="bracketleft" format="2">
	<unicode hex="005B"/>
	<advance width="600"/>
	<outline>
		<contour>
			<point x="448" y="-72" type="line"/>
			<point x="247" y="-72" type="line"/>
			<point x="356" y="701" type="line"/>
			<point x="557" y="701" type="line"/>
			<point x="569" y="792" type="line"/>
			<point x="252" y="792" type="line"/>
			<point x="117" y="-163" type="line"/>
			<point x="434" y="-163" type="line"/>
		</contour>
	</outline>
</glyph>
<glyph name="bracketright" format="2">
	<unicode hex="005D"/>
	<advance width="600"/>
	<outline>
		<contour>
			<point x="46" y="-163" type="line"/>
			<point x="363" y="-163" type="line"/>
			<point x="498" y="792" type="line"/>
			<point x="180" y="792" type="line"/>
			<point x="167" y="701" type="line"/>
			<point x="368" y="701" type="line"/>
			<point x="259" y="-72" type="line"/>
			<point x="58" y="-72" type="line"/>
		</contour>
	</outline>
</glyph>
<glyph name="underscore" format="2">
	<unicode hex="005F"/>
	<advance width="600"/>
	<outline>
		<contour>
			<point x="-18" y="-84" type="line"/>
			<point x="-32" y="-179" type="line"/>
			<point x="507" y="-179" type="line"/>
			<point x="521" y="-84" type="line"/>
		</contour>
	</outline>
</glyph>
<glyph name="c" format="2">
	<unicode hex="0063"/>
	<advance width="600"/>
	<outline>
		<contour>
			<point x="358" y="-12" type="curve" smooth="yes"/>
			<point x="405" y="-12"/>
			<point x="445" y="-4"/>
			<point x="477" y="10" type="curve"/>
			<point x="491" y="110" type="line"/>
			<point x="460" y="96"/>
			<point x="419" y="88"/>
			<point x="382" y="88" type="curve" smooth="yes"/>
			<point x="260" y="88"/>
			<point x="198" y="160"/>
			<point x="215" y="280" type="curve" smooth="yes"/>
			<point x="216" y="287" type="line" smooth="yes"/>
			<point x="230" y="385"/>
			<point x="289" y="434"/>
			<point x="391" y="434" type="curve" smooth="yes"/>
			<point x="453" y="434"/>
			<point x="497" y="421"/>
			<point x="532" y="399" type="curve"/>
			<point x="546" y="497" type="line"/>
			<point x="506" y="521"/>
			<point x="445" y="535"/>
			<point x="378" y="535" type="curve" smooth="yes"/>
			<point x="212" y="535"/>
			<point x="110" y="442"/>
			<point x="90" y="300" type="curve" smooth="yes"/>
			<point x="88" y="286" type="line" smooth="yes"/>
			<point x="62" y="103"/>
			<point x="168" y="-12"/>
		</contour>
	</outline>
	<anchor name="top" x="398" y="523"/>
	<anchor name="bottom" x="322" y="0"/>
</glyph>
<glyph name="e" format="2">
	<unicode hex="0065"/>
	<advance width="600"/>
	<outline>
		<contour>
			<point x="313" y="-14" type="curve" smooth="yes"/>
			<point x="391" y="-14"/>
			<point x="449" y="3"/>
			<point x="486" y="22" type="curve"/>
			<point x="499" y="120" type="line"/>
			<point x="461" y="102"/>
			<point x="406" y="87"/>
			<point x="345" y="87" type="curve" smooth="yes"/>
			<point x="237" y="87"/>
			<point x="184" y="137"/>
			<point x="182" y="227" type="curve"/>
			<point x="535" y="227" type="line"/>
			<point x="541" y="269" type="line" smooth="yes"/>
			<point x="565" y="434"/>
			<point x="482" y="537"/>
			<point x="329" y="537" type="curve" smooth="yes"/>
			<point x="193" y="537"/>
			<point x="86" y="445"/>
			<point x="65" y="296" type="curve" smooth="yes"/>
			<point x="63" y="282" type="line" smooth="yes"/>
			<point x="39" y="115"/>
			<point x="115" y="-14"/>
		</contour>
		<contour>
			<point x="322" y="448" type="curve" smooth="yes"/>
			<point x="392" y="448"/>
			<point x="433" y="399"/>
			<point x="425" y="310" type="curve"/>
			<point x="188" y="310" type="line"/>
			<point x="203" y="397"/>
			<point x="253" y="448"/>
		</contour>
	</outline>
	<anchor name="ogonek" x="428" y="0"/>
	<anchor name="top" x="347" y="537"/>
</glyph>
<glyph name="g" format="2">
	<unicode hex="0067"/>
	<advance width="600"/>
	<outline>
		<contour>
			<point x="198" y="-208" type="curve" smooth="yes"/>
			<point x="229" y="-208" type="line" smooth="yes"/>
			<point x="405" y="-208"/>
			<point x="527" y="-139"/>
			<point x="527" y="-21" type="curve" smooth="yes"/>
			<point x="527" y="56"/>
			<point x="468" y="94"/>
			<point x="355" y="94" type="curve" smooth="yes"/>
			<point x="226" y="94" type="line" smooth="yes"/>
			<point x="180" y="94"/>
			<point x="159" y="98"/>
			<point x="159" y="119" type="curve" smooth="yes"/>
			<point x="159" y="146"/>
			<point x="197" y="165"/>
			<point x="252" y="165" type="curve" smooth="yes"/>
			<point x="279" y="165" type="line" smooth="yes"/>
			<point x="407" y="165"/>
			<point x="509" y="234"/>
			<point x="509" y="351" type="curve" smooth="yes"/>
			<point x="509" y="380"/>
			<point x="498" y="407"/>
			<point x="483" y="424" type="curve"/>
			<point x="586" y="424" type="line"/>
			<point x="601" y="523" type="line"/>
			<point x="305" y="523" type="line" smooth="yes"/>
			<point x="174" y="523"/>
			<point x="73" y="448"/>
			<point x="73" y="328" type="curve" smooth="yes"/>
			<point x="73" y="257"/>
			<point x="111" y="205"/>
			<point x="173" y="181" type="curve"/>
			<point x="86" y="163"/>
			<point x="40" y="127"/>
			<point x="40" y="76" type="curve" smooth="yes"/>
			<point x="40" y="37"/>
			<point x="69" y="12"/>
			<point x="127" y="3" type="curve"/>
			<point x="31" y="-15"/>
			<point x="-18" y="-55"/>
			<point x="-18" y="-105" type="curve" smooth="yes"/>
			<point x="-18" y="-169"/>
			<point x="47" y="-208"/>
		</contour>
		<contour>
			<point x="393" y="353" type="curve" smooth="yes"/>
			<point x="393" y="289"/>
			<point x="353" y="243"/>
			<point x="286" y="243" type="curve" smooth="yes"/>
			<point x="227" y="243"/>
			<point x="192" y="277"/>
			<point x="192" y="333" type="curve" smooth="yes"/>
			<point x="192" y="399"/>
			<point x="232" y="444"/>
			<point x="300" y="444" type="curve" smooth="yes"/>
			<point x="358" y="444"/>
			<point x="393" y="413"/>
		</contour>
		<contour>
			<point x="258" y="-118" type="curve" smooth="yes"/>
			<point x="220" y="-118" type="line"/>
			<point x="144" y="-118"/>
			<point x="104" y="-104"/>
			<point x="104" y="-69" type="curve" smooth="yes"/>
			<point x="104" y="-32"/>
			<point x="157" y="-7"/>
			<point x="224" y="-7" type="curve" smooth="yes"/>
			<point x="314" y="-7" type="line" smooth="yes"/>
			<point x="375" y="-7"/>
			<point x="403" y="-21"/>
			<point x="403" y="-50" type="curve" smooth="yes"/>
			<point x="403" y="-94"/>
			<point x="348" y="-118"/>
		</contour>
	</outline>
	<anchor name="top" x="331" y="523"/>
	<anchor name="bottom" x="255" y="-118"/>
</glyph>
<glyph name="i" format="2">
	<unicode hex="0069"/>
	<advance width="600"/>
	<outline>
		<contour>
			<point x="373" y="616" type="curve" smooth="yes"/>
			<point x="429" y="616"/>
			<point x="453" y="637"/>
			<point x="458" y="681" type="curve" smooth="yes"/>
			<point x="463" y="727"/>
			<point x="441" y="749"/>
			<point x="383" y="749" type="curve" smooth="yes"/>
			<point x="326" y="749"/>
			<point x="303" y="729"/>
			<point x="298" y="684" type="curve" smooth="yes"/>
			<point x="293" y="638"/>
			<point x="315" y="616"/>
		</contour>
		<contour>
			<point x="40" y="0" type="line"/>
			<point x="514" y="0" type="line"/>
			<point x="529" y="99" type="line"/>
			<point x="359" y="99" type="line"/>
			<point x="419" y="523" type="line"/>
			<point x="115" y="523" type="line"/>
			<point x="101" y="424" type="line"/>
			<point x="280" y="424" type="line"/>
			<point x="234" y="99" type="line"/>
			<point x="55" y="99" type="line"/>
		</contour>
	</outline>
	<anchor name="ogonek" x="514" y="0"/>
</glyph>
<glyph name="j" format="2">
	<unicode hex="006A"/>
	<advance width="600"/>
	<outline>
		<contour>
			<point x="462" y="616" type="curve" smooth="yes"/>
			<point x="518" y="616"/>
			<point x="542" y="637"/>
			<point x="547" y="681" type="curve" smooth="yes"/>
			<point x="552" y="727"/>
			<point x="530" y="749"/>
			<point x="472" y="749" type="curve" smooth="yes"/>
			<point x="415" y="749"/>
			<point x="392" y="729"/>
			<point x="387" y="684" type="curve" smooth="yes"/>
			<point x="382" y="638"/>
			<point x="404" y="616"/>
		</contour>
		<contour>
			<point x="179" y="-204" type="curve" smooth="yes"/>
			<point x="314" y="-204"/>
			<point x="413" y="-154"/>
			<point x="434" y="-5" type="curve" smooth="yes"/>
			<point x="508" y="523" type="line"/>
			<point x="118" y="523" type="line"/>
			<point x="103" y="424" type="line"/>
			<point x="369" y="424" type="line"/>
			<point x="313" y="21" type="line" smooth="yes"/>
			<point x="300" y="-69"/>
			<point x="252" y="-102"/>
			<point x="159" y="-102" type="curve" smooth="yes"/>
			<point x="108" y="-102"/>
			<point x="63" y="-88"/>
			<point x="31" y="-74" type="curve"/>
			<point x="18" y="-171" type="line"/>
			<point x="52" y="-189"/>
			<point x="113" y="-204"/>
		</contour>
	</outline>
</glyph>
<glyph name="k" format="2">
	<unicode hex="006B"/>
	<advance width="600"/>
	<outline>
		<contour>
			<point x="45" y="0" type="line"/>
			<point x="170" y="0" type="line"/>
			<point x="200" y="214" type="line"/>
			<point x="379" y="0" type="line"/>
			<point x="529" y="0" type="line"/>
			<point x="363" y="192" type="line"/>
			<point x="474" y="206"/>
			<point x="553" y="281"/>
			<point x="553" y="393" type="curve" smooth="yes"/>
			<point x="553" y="477"/>
			<point x="498" y="537"/>
			<point x="407" y="537" type="curve" smooth="yes"/>
			<point x="334" y="537"/>
			<point x="275" y="500"/>
			<point x="231" y="428" type="curve"/>
			<point x="276" y="750" type="line"/>
			<point x="151" y="750" type="line"/>
		</contour>
		<contour>
			<point x="340" y="441" type="curve" smooth="yes"/>
			<point x="395" y="441"/>
			<point x="426" y="410"/>
			<point x="426" y="362" type="curve" smooth="yes"/>
			<point x="426" y="292"/>
			<point x="375" y="247"/>
			<point x="283" y="247" type="curve" smooth="yes"/>
			<point x="205" y="247" type="line"/>
			<point x="214" y="313" type="line" smooth="yes"/>
			<point x="225" y="388"/>
			<point x="268" y="441"/>
		</contour>
	</outline>
	<anchor name="bottom" x="269" y="0"/>
</glyph>
<glyph name="m" format="2">
	<unicode hex="006D"/>
	<advance width="600"/>
	<outline>
		<contour>
			<point x="8" y="0" type="line"/>
			<point x="119" y="0" type="line"/>
			<point x="170" y="365" type="line" smooth="yes"/>
			<point x="173" y="385"/>
			<point x="180" y="406"/>
			<point x="192" y="420" type="curve" smooth="yes"/>
			<point x="201" y="431"/>
			<point x="213" y="438"/>
			<point x="228" y="438" type="curve" smooth="yes"/>
			<point x="256" y="438"/>
			<point x="268" y="414"/>
			<point x="262" y="371" type="curve" smooth="yes"/>
			<point x="210" y="0" type="line"/>
			<point x="317" y="0" type="line"/>
			<point x="368" y="365" type="line"/>
			<point x="372" y="387"/>
			<point x="379" y="407"/>
			<point x="391" y="421" type="curve" smooth="yes"/>
			<point x="400" y="432"/>
			<point x="412" y="438"/>
			<point x="427" y="438" type="curve" smooth="yes"/>
			<point x="454" y="438"/>
			<point x="466" y="414"/>
			<point x="460" y="371" type="curve" smooth="yes"/>
			<point x="408" y="0" type="line"/>
			<point x="519" y="0" type="line"/>
			<point x="573" y="389" type="line" smooth="yes"/>
			<point x="587" y="489"/>
			<point x="554" y="537"/>
			<point x="494" y="537" type="curve" smooth="yes"/>
			<point x="442" y="537"/>
			<point x="404" y="502"/>
			<point x="374" y="443" type="curve"/>
			<point x="371" y="504"/>
			<point x="340" y="537"/>
			<point x="294" y="537" type="curve" smooth="yes"/>
			<point x="240" y="537"/>
			<point x="205" y="501"/>
			<point x="178" y="441" type="curve"/>
			<point x="190" y="523" type="line"/>
			<point x="82" y="523" type="line"/>
		</contour>
	</outline>
	<anchor name="top" x="376" y="524"/>
	<anchor name="bottom" x="255" y="0"/>
</glyph>
<glyph name="n" format="2">
	<unicode hex="006E"/>
	<advance width="600"/>
	<outline>
		<contour>
			<point x="41" y="0" type="line"/>
			<point x="166" y="0" type="line"/>
			<point x="209" y="306" type="line" smooth="yes"/>
			<point x="213" y="332"/>
			<point x="220" y="357"/>
			<point x="235" y="380" type="curve" smooth="yes"/>
			<point x="254" y="409"/>
			<point x="283" y="434"/>
			<point x="328" y="434" type="curve" smooth="yes"/>
			<point x="390" y="434"/>
			<point x="421" y="394"/>
			<point x="409" y="309" type="curve" smooth="yes"/>
			<point x="365" y="0" type="line"/>
			<point x="490" y="0" type="line"/>
			<point x="537" y="332" type="line" smooth="yes"/>
			<point x="556" y="463"/>
			<point x="501" y="537"/>
			<point x="399" y="537" type="curve" smooth="yes"/>
			<point x="322" y="537"/>
			<point x="263" y="494"/>
			<point x="220" y="418" type="curve"/>
			<point x="235" y="523" type="line"/>
			<point x="115" y="523" type="line"/>
		</contour>
	</outline>
	<anchor name="top" x="337" y="523"/>
	<anchor name="bottom" x="265" y="0"/>
</glyph>
<glyph name="o" format="2">
	<unicode hex="006F"/>
	<advance width="600"/>
	<outline>
		<contour>
			<point x="280" y="-14" type="curve" smooth="yes"/>
			<point x="426" y="-14"/>
			<point x="520" y="79"/>
			<point x="542" y="230" type="curve" smooth="yes"/>
			<point x="544" y="244" type="line" smooth="yes"/>
			<point x="569" y="421"/>
			<point x="482" y="537"/>
			<point x="322" y="537" type="curve" smooth="yes"/>
			<point x="181" y="537"/>
			<point x="79" y="443"/>
			<point x="58" y="293" type="curve" smooth="yes"/>
			<point x="56" y="279" type="line" smooth="yes"/>
			<point x="30" y="100"/>
			<point x="119" y="-14"/>
		</contour>
		<contour>
			<point x="285" y="85" type="curve" smooth="yes"/>
			<point x="208" y="85"/>
			<point x="166" y="148"/>
			<point x="183" y="271" type="curve" smooth="yes"/>
			<point x="184" y="278" type="line" smooth="yes"/>
			<point x="200" y="387"/>
			<point x="248" y="439"/>
			<point x="315" y="439" type="curve" smooth="yes"/>
			<point x="392" y="439"/>
			<point x="435" y="377"/>
			<point x="417" y="253" type="curve" smooth="yes"/>
			<point x="416" y="246" type="line" smooth="yes"/>
			<point x="400" y="137"/>
			<point x="352" y="85"/>
		</contour>
	</outline>
	<anchor name="center" x="299" y="267"/>
	<anchor name="bottom" x="257" y="-8"/>
	<anchor name="top" x="332" y="523"/>
</glyph>
<glyph name="p" format="2">
	<unicode hex="0070"/>
	<advance width="600"/>
	<outline>
		<contour>
			<point x="388" y="537" type="curve" smooth="yes"/>
			<point x="321" y="537"/>
			<point x="262" y="502"/>
			<point x="218" y="422" type="curve"/>
			<point x="232" y="523" type="line"/>
			<point x="112" y="523" type="line"/>
			<point x="12" y="-194" type="line"/>
			<point x="137" y="-194" type="line"/>
			<point x="164" y="0" type="line"/>
			<point x="235" y="0" type="line" smooth="yes"/>
			<point x="410" y="0"/>
			<point x="520" y="97"/>
			<point x="544" y="260" type="curve" smooth="yes"/>
			<point x="546" y="274" type="line" smooth="yes"/>
			<point x="569" y="438"/>
			<point x="504" y="537"/>
		</contour>
		<contour>
			<point x="418" y="272" type="curve" smooth="yes"/>
			<point x="417" y="265" type="line"/>
			<point x="401" y="151"/>
			<point x="342" y="97"/>
			<point x="239" y="97" type="curve" smooth="yes"/>
			<point x="177" y="97" type="line"/>
			<point x="206" y="304" type="line" smooth="yes"/>
			<point x="217" y="385"/>
			<point x="261" y="438"/>
			<point x="328" y="438" type="curve" smooth="yes"/>
			<point x="398" y="438"/>
			<point x="433" y="379"/>
		</contour>
	</outline>
	<anchor name="ogonek" x="135" y="550"/>
	<anchor name="bottom" x="259" y="0"/>
</glyph>
<glyph name="q" format="2">
	<unicode hex="0071"/>
	<advance width="600"/>
	<outline>
		<contour>
			<point x="336" y="-194" type="line"/>
			<point x="461" y="-194" type="line"/>
			<point x="561" y="524" type="line"/>
			<point x="371" y="523" type="line" smooth="yes"/>
			<point x="192" y="522"/>
			<point x="80" y="423"/>
			<point x="56" y="261" type="curve" smooth="yes"/>
			<point x="54" y="247" type="line" smooth="yes"/>
			<point x="31" y="83"/>
			<point x="95" y="-14"/>
			<point x="212" y="-14" type="curve" smooth="yes"/>
			<point x="280" y="-14"/>
			<point x="336" y="20"/>
			<point x="377" y="98" type="curve"/>
		</contour>
		<contour>
			<point x="273" y="85" type="curve" smooth="yes"/>
			<point x="201" y="85"/>
			<point x="167" y="146"/>
			<point x="182" y="252" type="curve" smooth="yes"/>
			<point x="183" y="259" type="line" smooth="yes"/>
			<point x="199" y="373"/>
			<point x="259" y="425"/>
			<point x="361" y="425" type="curve" smooth="yes"/>
			<point x="423" y="425" type="line"/>
			<point x="393" y="217" type="line" smooth="yes"/>
			<point x="382" y="139"/>
			<point x="339" y="85"/>
		</contour>
	</outline>
</glyph>
<glyph name="r" format="2">
	<unicode hex="0072"/>
	<advance width="600"/>
	<outline>
		<contour>
			<point x="30" y="0" type="line"/>
			<point x="470" y="0" type="line"/>
			<point x="484" y="99" type="line"/>
			<point x="304" y="99" type="line"/>
			<point x="328" y="268" type="line" smooth="yes"/>
			<point x="339" y="345"/>
			<point x="391" y="411"/>
			<point x="480" y="411" type="curve" smooth="yes"/>
			<point x="515" y="411"/>
			<point x="544" y="404"/>
			<point x="563" y="396" type="curve"/>
			<point x="580" y="519" type="line"/>
			<point x="568" y="526"/>
			<point x="549" y="532"/>
			<point x="521" y="532" type="curve" smooth="yes"/>
			<point x="442" y="532"/>
			<point x="385" y="485"/>
			<point x="340" y="388" type="curve"/>
			<point x="359" y="523" type="line"/>
			<point x="106" y="523" type="line"/>
			<point x="92" y="424" type="line"/>
			<point x="224" y="424" type="line"/>
			<point x="179" y="99" type="line"/>
			<point x="44" y="99" type="line"/>
		</contour>
	</outline>
	<anchor name="top" x="375" y="523"/>
	<anchor name="bottom" x="227" y="0"/>
</glyph>
<glyph name="t" format="2">
	<unicode hex="0074"/>
	<advance width="600"/>
	<outline>
		<contour>
			<point x="353" y="-12" type="curve" smooth="yes"/>
			<point x="408" y="-12"/>
			<point x="453" y="-1"/>
			<point x="478" y="12" type="curve"/>
			<point x="490" y="105" type="line"/>
			<point x="467" y="95"/>
			<point x="431" y="88"/>
			<point x="398" y="88" type="curve" smooth="yes"/>
			<point x="324" y="88"/>
			<point x="294" y="115"/>
			<point x="305" y="198" type="curve" smooth="yes"/>
			<point x="337" y="424" type="line"/>
			<point x="539" y="424" type="line"/>
			<point x="553" y="523" type="line"/>
			<point x="352" y="523" type="line"/>
			<point x="376" y="692" type="line"/>
			<point x="266" y="692" type="line"/>
			<point x="243" y="586" type="line" smooth="yes"/>
			<point x="231" y="528"/>
			<point x="205" y="518"/>
			<point x="165" y="518" type="curve" smooth="yes"/>
			<point x="88" y="518" type="line"/>
			<point x="75" y="424" type="line"/>
			<point x="212" y="424" type="line"/>
			<point x="179" y="184" type="line" smooth="yes"/>
			<point x="159" y="41"/>
			<point x="227" y="-12"/>
		</contour>
	</outline>
	<anchor name="caron" x="507" y="780"/>
	<anchor name="bottom" x="319" y="0"/>
	<anchor name="center" x="282" y="284"/>
</glyph>
<glyph name="v" format="2">
	<unicode hex="0076"/>
	<advance width="600"/>
	<outline>
		<contour>
			<point x="250" y="-14" type="curve" smooth="yes"/>
			<point x="425" y="-14"/>
			<point x="527" y="119"/>
			<point x="550" y="315" type="curve" smooth="yes"/>
			<point x="560" y="396"/>
			<point x="554" y="465"/>
			<point x="539" y="521" type="curve"/>
			<point x="419" y="523" type="line"/>
			<point x="433" y="467"/>
			<point x="439" y="408"/>
			<point x="431" y="334" type="curve" smooth="yes"/>
			<point x="413" y="178"/>
			<point x="355" y="84"/>
			<point x="271" y="84" type="curve" smooth="yes"/>
			<point x="226" y="84"/>
			<point x="204" y="107"/>
			<point x="212" y="161" type="curve" smooth="yes"/>
			<point x="261" y="523" type="line"/>
			<point x="54" y="523" type="line"/>
			<point x="40" y="425" type="line"/>
			<point x="128" y="425" type="line"/>
			<point x="91" y="154" type="line" smooth="yes"/>
			<point x="76" y="48"/>
			<point x="129" y="-14"/>
		</contour>
	</outline>
</glyph>
<glyph name="y" format="2">
	<unicode hex="0079"/>
	<advance width="600"/>
	<outline>
		<contour>
			<point x="218" y="-204" type="curve" smooth="yes"/>
			<point x="353" y="-204"/>
			<point x="466" y="-143"/>
			<point x="491" y="33" type="curve" smooth="yes"/>
			<point x="558" y="523" type="line"/>
			<point x="434" y="523" type="line"/>
			<point x="395" y="239" type="line" smooth="yes"/>
			<point x="394" y="231"/>
			<point x="392" y="223"/>
			<point x="390" y="216" type="curve"/>
			<point x="390" y="215" type="line"/>
			<point x="384" y="193"/>
			<point x="376" y="173"/>
			<point x="365" y="157" type="curve" smooth="yes"/>
			<point x="345" y="128"/>
			<point x="315" y="111"/>
			<point x="276" y="111" type="curve" smooth="yes"/>
			<point x="212" y="111"/>
			<point x="184" y="152"/>
			<point x="195" y="231" type="curve" smooth="yes"/>
			<point x="236" y="523" type="line"/>
			<point x="111" y="523" type="line"/>
			<point x="66" y="204" type="line" smooth="yes"/>
			<point x="48" y="77"/>
			<point x="113" y="12"/>
			<point x="208" y="12" type="curve" smooth="yes"/>
			<point x="286" y="12"/>
			<point x="335" y="49"/>
			<point x="378" y="118" type="curve"/>
			<point x="369" y="48" type="line" smooth="yes"/>
			<point x="355" y="-57"/>
			<point x="303" y="-105"/>
			<point x="210" y="-105" type="curve" smooth="yes"/>
			<point x="137" y="-105"/>
			<point x="80" y="-78"/>
			<point x="39" y="-45" type="curve"/>
			<point x="24" y="-148" type="line"/>
			<point x="64" y="-176"/>
			<point x="132" y="-204"/>
		</contour>
	</outline>
	<anchor name="top" x="336" y="523"/>
</glyph>
<glyph name="z" format="2">
	<unicode hex="007A"/>
	<advance width="600"/>
	<outline>
		<contour>
			<point x="46" y="0" type="line"/>
			<point x="480" y="0" type="line"/>
			<point x="493" y="99" type="line"/>
			<point x="220" y="99" type="line"/>
			<point x="538" y="426" type="line"/>
			<point x="551" y="523" type="line"/>
			<point x="124" y="523" type="line"/>
			<point x="110" y="424" type="line"/>
			<point x="376" y="424" type="line"/>
			<point x="59" y="95" type="line"/>
		</contour>
	</outline>
	<anchor name="top" x="337" y="523"/>
	<anchor name="bottom" x="263" y="0"/>
</glyph>
<glyph name="braceleft" format="2">
	<unicode hex="007B"/>
	<advance width="600"/>
	<outline>
		<contour>
			<point x="108" y="260" type="line"/>
			<point x="189" y="260" type="line" smooth="yes"/>
			<point x="235" y="260"/>
			<point x="251" y="231"/>
			<point x="251" y="205" type="curve" smooth="yes"/>
			<point x="251" y="130"/>
			<point x="119" y="86"/>
			<point x="119" y="-35" type="curve" smooth="yes"/>
			<point x="119" y="-106"/>
			<point x="168" y="-163"/>
			<point x="275" y="-163" type="curve" smooth="yes"/>
			<point x="440" y="-163" type="line"/>
			<point x="452" y="-72" type="line"/>
			<point x="330" y="-72" type="line" smooth="yes"/>
			<point x="277" y="-72"/>
			<point x="250" y="-53"/>
			<point x="250" y="-12" type="curve" smooth="yes"/>
			<point x="250" y="71"/>
			<point x="379" y="110"/>
			<point x="379" y="213" type="curve" smooth="yes"/>
			<point x="379" y="261"/>
			<point x="337" y="301"/>
			<point x="278" y="313" type="curve"/>
			<point x="338" y="320"/>
			<point x="411" y="354"/>
			<point x="411" y="435" type="curve" smooth="yes"/>
			<point x="411" y="510"/>
			<point x="338" y="569"/>
			<point x="338" y="633" type="curve" smooth="yes"/>
			<point x="338" y="684"/>
			<point x="375" y="701"/>
			<point x="433" y="701" type="curve" smooth="yes"/>
			<point x="561" y="701" type="line"/>
			<point x="574" y="792" type="line"/>
			<point x="388" y="792" type="line" smooth="yes"/>
			<point x="282" y="792"/>
			<point x="215" y="734"/>
			<point x="215" y="649" type="curve" smooth="yes"/>
			<point x="215" y="564"/>
			<point x="287" y="498"/>
			<point x="287" y="437" type="curve" smooth="yes"/>
			<point x="287" y="398"/>
			<point x="260" y="367"/>
			<point x="216" y="367" type="curve" smooth="yes"/>
			<point x="122" y="367" type="line"/>
		</contour>
	</outline>
</glyph>
<glyph name="braceright" format="2">
	<unicode hex="007D"/>
	<advance width="600"/>
	<outline>
		<contour>
			<point x="41" y="-163" type="line"/>
			<point x="227" y="-163" type="line" smooth="yes"/>
			<point x="333" y="-163"/>
			<point x="399" y="-105"/>
			<point x="399" y="-20" type="curve" smooth="yes"/>
			<point x="399" y="65"/>
			<point x="327" y="131"/>
			<point x="327" y="192" type="curve" smooth="yes"/>
			<point x="327" y="230"/>
			<point x="355" y="262"/>
			<point x="400" y="262" type="curve" smooth="yes"/>
			<point x="493" y="262" type="line"/>
			<point x="508" y="369" type="line"/>
			<point x="427" y="369" type="line" smooth="yes"/>
			<point x="380" y="369"/>
			<point x="364" y="397"/>
			<point x="364" y="424" type="curve" smooth="yes"/>
			<point x="364" y="499"/>
			<point x="497" y="542"/>
			<point x="497" y="664" type="curve" smooth="yes"/>
			<point x="497" y="734"/>
			<point x="448" y="792"/>
			<point x="341" y="792" type="curve" smooth="yes"/>
			<point x="176" y="792" type="line"/>
			<point x="163" y="701" type="line"/>
			<point x="286" y="701" type="line" smooth="yes"/>
			<point x="338" y="701"/>
			<point x="365" y="682"/>
			<point x="365" y="641" type="curve" smooth="yes"/>
			<point x="365" y="558"/>
			<point x="236" y="519"/>
			<point x="236" y="415" type="curve" smooth="yes"/>
			<point x="236" y="369"/>
			<point x="276" y="329"/>
			<point x="334" y="316" type="curve"/>
			<point x="277" y="308"/>
			<point x="204" y="274"/>
			<point x="204" y="194" type="curve" smooth="yes"/>
			<point x="204" y="119"/>
			<point x="277" y="60"/>
			<point x="277" y="-4" type="curve" smooth="yes"/>
			<point x="277" y="-55"/>
			<point x="241" y="-72"/>
			<point x="183" y="-72" type="curve" smooth="yes"/>
			<point x="54" y="-72" type="line"/>
		</contour>
	</outline>
</glyph>
<glyph name="asciitilde" format="2">
	<unicode hex="007E"/>
	<advance width="600"/>
	<outline>
		<contour>
			<point x="49" y="196" type="curve"/>
			<point x="147" y="196" type="line"/>
			<point x="156" y="268"/>
			<point x="174" y="309"/>
			<point x="215" y="309" type="curve" smooth="yes"/>
			<point x="276" y="309"/>
			<point x="303" y="192"/>
			<point x="402" y="192" type="curve" smooth="yes"/>
			<point x="486" y="192"/>
			<point x="540" y="249"/>
			<point x="563" y="413" type="curve"/>
			<point x="465" y="413" type="line"/>
			<point x="455" y="341"/>
			<point x="439" y="305"/>
			<point x="401" y="305" type="curve" smooth="yes"/>
			<point x="341" y="305"/>
			<point x="306" y="420"/>
			<point x="207" y="420" type="curve" smooth="yes"/>
			<point x="114" y="420"/>
			<point x="69" y="341"/>
		</contour>
	</outline>
</glyph>
<glyph name="exclamdown" format="2">
	<unicode hex="00A1"/>
	<advance width="600"/>
	<outline>
		<contour>
			<point x="332" y="535" type="curve" smooth="yes"/>
			<point x="276" y="535"/>
			<point x="250" y="513"/>
			<point x="244" y="465" type="curve" smooth="yes"/>
			<point x="236" y="410"/>
			<point x="263" y="383"/>
			<point x="322" y="383" type="curve" smooth="yes"/>
			<point x="379" y="383"/>
			<point x="405" y="405"/>
			<point x="411" y="452" type="curve" smooth="yes"/>
			<point x="419" y="509"/>
			<point x="392" y="535"/>
		</contour>
		<contour>
			<point x="352" y="304" type="line"/>
			<point x="262" y="304" type="line"/>
			<point x="192" y="-29" type="line"/>
			<point x="173" y="-161" type="line"/>
			<point x="310" y="-161" type="line"/>
			<point x="329" y="-29" type="line"/>
		</contour>
	</outline>
</glyph>
<glyph name="currency" format="2">
	<unicode hex="00A4"/>
	<advance width="600"/>
	<outline>
		<contour>
			<point x="79" y="53" type="line"/>
			<point x="171" y="141" type="line"/>
			<point x="202" y="120"/>
			<point x="241" y="108"/>
			<point x="286" y="108" type="curve" smooth="yes"/>
			<point x="328" y="108"/>
			<point x="366" y="118"/>
			<point x="400" y="138" type="curve"/>
			<point x="470" y="47" type="line"/>
			<point x="548" y="112" type="line"/>
			<point x="473" y="207" type="line"/>
			<point x="500" y="246"/>
			<point x="517" y="295"/>
			<point x="521" y="352" type="curve" smooth="yes"/>
			<point x="525" y="397"/>
			<point x="519" y="436"/>
			<point x="505" y="469" type="curve"/>
			<point x="603" y="561" type="line"/>
			<point x="540" y="628" type="line"/>
			<point x="447" y="540" type="line"/>
			<point x="417" y="561"/>
			<point x="379" y="572"/>
			<point x="335" y="572" type="curve" smooth="yes"/>
			<point x="294" y="572"/>
			<point x="256" y="562"/>
			<point x="224" y="544" type="curve"/>
			<point x="153" y="634" type="line"/>
			<point x="76" y="568" type="line"/>
			<point x="149" y="477" type="line"/>
			<point x="121" y="437"/>
			<point x="103" y="387"/>
			<point x="99" y="328" type="curve" smooth="yes"/>
			<point x="95" y="284"/>
			<point x="101" y="246"/>
			<point x="114" y="214" type="curve"/>
			<point x="16" y="121" type="line"/>
		</contour>
		<contour>
			<point x="297" y="204" type="curve" smooth="yes"/>
			<point x="230" y="204"/>
			<point x="194" y="249"/>
			<point x="199" y="329" type="curve" smooth="yes"/>
			<point x="204" y="422"/>
			<point x="249" y="476"/>
			<point x="325" y="476" type="curve" smooth="yes"/>
			<point x="390" y="476"/>
			<point x="426" y="431"/>
			<point x="421" y="351" type="curve" smooth="yes"/>
			<point x="417" y="258"/>
			<point x="372" y="204"/>
		</contour>
	</outline>
</glyph>
<glyph name="yen" format="2">
	<unicode hex="00A5"/>
	<advance width="600"/>
	<outline>
		<contour>
			<point x="58" y="162" type="line"/>
			<point x="218" y="162" type="line"/>
			<point x="195" y="0" type="line"/>
			<point x="323" y="0" type="line"/>
			<point x="346" y="162" type="line"/>
			<point x="507" y="162" type="line"/>
			<point x="517" y="240" type="line"/>
			<point x="362" y="240" type="line"/>
			<point x="402" y="303" type="line"/>
			<point x="526" y="303" type="line"/>
			<point x="536" y="381" type="line"/>
			<point x="450" y="381" type="line"/>
			<point x="640" y="684" type="line"/>
			<point x="501" y="684" type="line"/>
			<point x="313" y="367" type="line"/>
			<point x="215" y="684" type="line"/>
			<point x="78" y="684" type="line"/>
			<point x="178" y="381" type="line"/>
			<point x="88" y="381" type="line"/>
			<point x="77" y="303" type="line"/>
			<point x="204" y="303" type="line"/>
			<point x="225" y="240" type="line"/>
			<point x="69" y="240" type="line"/>
		</contour>
	</outline>
</glyph>
<glyph name="section" format="2">
	<unicode hex="00A7"/>
	<advance width="600"/>
	<outline>
		<contour>
			<point x="272" y="-85" type="curve" smooth="yes"/>
			<point x="394" y="-85"/>
			<point x="481" y="-14"/>
			<point x="481" y="102" type="curve" smooth="yes"/>
			<point x="481" y="148"/>
			<point x="461" y="188"/>
			<point x="420" y="213" type="curve"/>
			<point x="483" y="230"/>
			<point x="534" y="270"/>
			<point x="534" y="340" type="curve" smooth="yes"/>
			<point x="534" y="422"/>
			<point x="454" y="447"/>
			<point x="351" y="465" type="curve" smooth="yes"/>
			<point x="284" y="476"/>
			<point x="244" y="486"/>
			<point x="244" y="536" type="curve" smooth="yes"/>
			<point x="244" y="583"/>
			<point x="280" y="612"/>
			<point x="344" y="612" type="curve" smooth="yes"/>
			<point x="412" y="612"/>
			<point x="487" y="590"/>
			<point x="534" y="557" type="curve"/>
			<point x="547" y="647" type="line"/>
			<point x="506" y="673"/>
			<point x="438" y="698"/>
			<point x="344" y="698" type="curve" smooth="yes"/>
			<point x="221" y="698"/>
			<point x="132" y="629"/>
			<point x="132" y="515" type="curve" smooth="yes"/>
			<point x="132" y="456"/>
			<point x="157" y="418"/>
			<point x="197" y="395" type="curve"/>
			<point x="128" y="377"/>
			<point x="78" y="340"/>
			<point x="78" y="270" type="curve" smooth="yes"/>
			<point x="78" y="185"/>
			<point x="159" y="164"/>
			<point x="267" y="147" type="curve" smooth="yes"/>
			<point x="328" y="138"/>
			<point x="369" y="123"/>
			<point x="369" y="80" type="curve" smooth="yes"/>
			<point x="369" y="31"/>
			<point x="332" y="3"/>
			<point x="268" y="3" type="curve" smooth="yes"/>
			<point x="202" y="3"/>
			<point x="128" y="28"/>
			<point x="74" y="68" type="curve"/>
			<point x="61" y="-23" type="line"/>
			<point x="108" y="-57"/>
			<point x="182" y="-85"/>
		</contour>
		<contour>
			<point x="328" y="241" type="curve" smooth="yes"/>
			<point x="268" y="250"/>
			<point x="177" y="259"/>
			<point x="177" y="315" type="curve" smooth="yes"/>
			<point x="177" y="351"/>
			<point x="206" y="373"/>
			<point x="256" y="373" type="curve"/>
			<point x="257" y="373" type="line"/>
			<point x="266" y="373"/>
			<point x="275" y="372"/>
			<point x="285" y="371" type="curve" smooth="yes"/>
			<point x="350" y="363"/>
			<point x="437" y="353"/>
			<point x="438" y="299" type="curve" smooth="yes"/>
			<point x="438" y="256"/>
			<point x="400" y="229"/>
		</contour>
	</outline>
</glyph>
<glyph name="dieresis" format="2">
	<unicode hex="00A8"/>
	<advance width="600"/>
	<outline>
		<contour>
			<point x="457" y="616" type="curve" smooth="yes"/>
			<point x="512" y="616"/>
			<point x="529" y="636"/>
			<point x="534" y="679" type="curve" smooth="yes"/>
			<point x="538" y="719"/>
			<point x="521" y="741"/>
			<point x="468" y="741" type="curve" smooth="yes"/>
			<point x="413" y="741"/>
			<point x="396" y="719"/>
			<point x="391" y="677" type="curve" smooth="yes"/>
			<point x="387" y="637"/>
			<point x="404" y="616"/>
		</contour>
		<contour>
			<point x="249" y="616" type="curve" smooth="yes"/>
			<point x="304" y="616"/>
			<point x="321" y="636"/>
			<point x="326" y="679" type="curve" smooth="yes"/>
			<point x="330" y="719"/>
			<point x="313" y="741"/>
			<point x="260" y="741" type="curve" smooth="yes"/>
			<point x="205" y="741"/>
			<point x="188" y="719"/>
			<point x="183" y="677" type="curve" smooth="yes"/>
			<point x="179" y="637"/>
			<point x="196" y="616"/>
		</contour>
	</outline>
	<anchor name="_top" x="337" y="523"/>
</glyph>
<glyph name="ordfeminine" format="2">
	<unicode hex="00AA"/>
	<advance width="600"/>
	<outline>
		<contour>
			<point x="236" y="224" type="curve" smooth="yes"/>
			<point x="305" y="224"/>
			<point x="355" y="257"/>
			<point x="390" y="320" type="curve"/>
			<point x="378" y="235" type="line"/>
			<point x="479" y="235" type="line"/>
			<point x="518" y="509" type="line" smooth="yes"/>
			<point x="536" y="639"/>
			<point x="465" y="696"/>
			<point x="338" y="696" type="curve" smooth="yes"/>
			<point x="256" y="696"/>
			<point x="198" y="674"/>
			<point x="165" y="658" type="curve"/>
			<point x="153" y="567" type="line"/>
			<point x="203" y="599"/>
			<point x="258" y="615"/>
			<point x="314" y="615" type="curve" smooth="yes"/>
			<point x="382" y="615"/>
			<point x="424" y="588"/>
			<point x="413" y="514" type="curve" smooth="yes"/>
			<point x="319" y="501" type="line" smooth="yes"/>
			<point x="178" y="481"/>
			<point x="109" y="428"/>
			<point x="109" y="338" type="curve" smooth="yes"/>
			<point x="109" y="268"/>
			<point x="156" y="224"/>
		</contour>
		<contour>
			<point x="283" y="298" type="curve" smooth="yes"/>
			<point x="240" y="298"/>
			<point x="212" y="320"/>
			<point x="212" y="357" type="curve" smooth="yes"/>
			<point x="212" y="410"/>
			<point x="254" y="430"/>
			<point x="331" y="442" type="curve" smooth="yes"/>
			<point x="405" y="453" type="line"/>
			<point x="399" y="409" type="line" smooth="yes"/>
			<point x="388" y="333"/>
			<point x="341" y="298"/>
		</contour>
	</outline>
	<anchor name="ogonek" x="395" y="235"/>
	<anchor name="top" x="273" y="685"/>
	<anchor name="right" x="406" y="235"/>
	<anchor name="bottom" x="211" y="233"/>
</glyph>
<glyph name="guillemetleft" format="2">
	<unicode hex="00AB"/>
	<advance width="600"/>
	<outline>
		<contour>
			<point x="304" y="77" type="line"/>
			<point x="178" y="286" type="line"/>
			<point x="364" y="497" type="line"/>
			<point x="232" y="497" type="line"/>
			<point x="50" y="287" type="line"/>
			<point x="176" y="77" type="line"/>
		</contour>
		<contour>
			<point x="524" y="77" type="line"/>
			<point x="398" y="285" type="line"/>
			<point x="584" y="497" type="line"/>
			<point x="452" y="497" type="line"/>
			<point x="270" y="287" type="line"/>
			<point x="396" y="77" type="line"/>
		</contour>
	</outline>
</glyph>
<glyph name="registered" format="2">
	<unicode hex="00AE"/>
	<advance width="600"/>
	<outline>
		<contour>
			<point x="302" y="103" type="curve" smooth="yes"/>
			<point x="440" y="103"/>
			<point x="550" y="189"/>
			<point x="572" y="342" type="curve" smooth="yes"/>
			<point x="574" y="356" type="line" smooth="yes"/>
			<point x="600" y="536"/>
			<point x="496" y="657"/>
			<point x="331" y="657" type="curve" smooth="yes"/>
			<point x="191" y="657"/>
			<point x="83" y="572"/>
			<point x="61" y="421" type="curve" smooth="yes"/>
			<point x="59" y="407" type="line" smooth="yes"/>
			<point x="33" y="225"/>
			<point x="138" y="103"/>
		</contour>
		<contour>
			<point x="307" y="160" type="curve" smooth="yes"/>
			<point x="171" y="160"/>
			<point x="99" y="257"/>
			<point x="120" y="406" type="curve" smooth="yes"/>
			<point x="121" y="413" type="line" smooth="yes"/>
			<point x="138" y="534"/>
			<point x="213" y="600"/>
			<point x="327" y="600" type="curve" smooth="yes"/>
			<point x="463" y="600"/>
			<point x="535" y="504"/>
			<point x="514" y="356" type="curve" smooth="yes"/>
			<point x="513" y="349" type="line" smooth="yes"/>
			<point x="495" y="227"/>
			<point x="419" y="160"/>
		</contour>
		<contour>
			<point x="201" y="250" type="line"/>
			<point x="261" y="250" type="line"/>
			<point x="273" y="341" type="line"/>
			<point x="306" y="341" type="line" smooth="yes"/>
			<point x="327" y="341"/>
			<point x="337" y="335"/>
			<point x="342" y="313" type="curve" smooth="yes"/>
			<point x="354" y="250" type="line"/>
			<point x="416" y="250" type="line"/>
			<point x="400" y="324" type="line" smooth="yes"/>
			<point x="395" y="351"/>
			<point x="384" y="361"/>
			<point x="363" y="364" type="curve"/>
			<point x="407" y="371"/>
			<point x="435" y="395"/>
			<point x="435" y="440" type="curve" smooth="yes"/>
			<point x="435" y="486"/>
			<point x="403" y="512"/>
			<point x="342" y="512" type="curve" smooth="yes"/>
			<point x="237" y="512" type="line"/>
		</contour>
		<contour>
			<point x="330" y="467" type="line" smooth="yes"/>
			<point x="362" y="467"/>
			<point x="375" y="453"/>
			<point x="375" y="431" type="curve" smooth="yes"/>
			<point x="375" y="404"/>
			<point x="356" y="387"/>
			<point x="323" y="387" type="curve" smooth="yes"/>
			<point x="279" y="387" type="line"/>
			<point x="290" y="467" type="line"/>
		</contour>
	</outline>
</glyph>
<glyph name="macron" format="2">
	<unicode hex="00AF"/>
	<advance width="600"/>
	<outline>
		<contour>
			<point x="201" y="629" type="line"/>
			<point x="502" y="629" type="line"/>
			<point x="513" y="707" type="line"/>
			<point x="212" y="707" type="line"/>
		</contour>
	</outline>
	<anchor name="_top" x="337" y="523"/>
</glyph>
<glyph name="degree" format="2">
	<unicode hex="00B0"/>
	<advance width="600"/>
	<outline>
		<contour>
			<point x="325" y="294" type="curve" smooth="yes"/>
			<point x="443" y="294"/>
			<point x="529" y="391"/>
			<point x="529" y="510" type="curve" smooth="yes"/>
			<point x="529" y="619"/>
			<point x="455" y="696"/>
			<point x="343" y="696" type="curve" smooth="yes"/>
			<point x="224" y="696"/>
			<point x="137" y="604"/>
			<point x="137" y="483" type="curve" smooth="yes"/>
			<point x="137" y="373"/>
			<point x="209" y="294"/>
		</contour>
		<contour>
			<point x="325" y="377" type="curve" smooth="yes"/>
			<point x="263" y="377"/>
			<point x="223" y="424"/>
			<point x="223" y="488" type="curve" smooth="yes"/>
			<point x="223" y="561"/>
			<point x="275" y="613"/>
			<point x="340" y="613" type="curve" smooth="yes"/>
			<point x="406" y="613"/>
			<point x="444" y="569"/>
			<point x="444" y="504" type="curve" smooth="yes"/>
			<point x="444" y="432"/>
			<point x="394" y="377"/>
		</contour>
	</outline>
</glyph>
<glyph name="acute" format="2">
	<unicode hex="00B4"/>
	<advance width="600"/>
	<outline>
		<contour>
			<point x="486" y="750" type="line"/>
			<point x="345" y="750" type="line"/>
			<point x="261" y="602" type="line"/>
			<point x="361" y="602" type="line"/>
		</contour>
	</outline>
	<anchor name="_top" x="303" y="523"/>
</glyph>
<glyph name="mu" format="2">
	<unicode hex="00B5"/>
	<advance width="600"/>
	<outline>
		<contour>
			<point x="11" y="-190" type="line"/>
			<point x="135" y="-190" type="line"/>
			<point x="160" y="-8" type="line"/>
			<point x="174" y="-12"/>
			<point x="190" y="-14"/>
			<point x="207" y="-14" type="curve" smooth="yes"/>
			<point x="280" y="-14"/>
			<point x="341" y="29"/>
			<point x="381" y="102" type="curve"/>
			<point x="366" y="0" type="line"/>
			<point x="486" y="0" type="line"/>
			<point x="560" y="523" type="line"/>
			<point x="435" y="523" type="line"/>
			<point x="391" y="215" type="line" smooth="yes"/>
			<point x="387" y="183"/>
			<point x="377" y="155"/>
			<point x="361" y="133" type="curve" smooth="yes"/>
			<point x="341" y="104"/>
			<point x="311" y="87"/>
			<point x="272" y="87" type="curve" smooth="yes"/>
			<point x="209" y="87"/>
			<point x="179" y="127"/>
			<point x="191" y="207" type="curve" smooth="yes"/>
			<point x="236" y="523" type="line"/>
			<point x="111" y="523" type="line"/>
			<point x="63" y="186" type="line" smooth="yes"/>
			<point x="62" y="180"/>
			<point x="62" y="174"/>
			<point x="61" y="168" type="curve"/>
		</contour>
	</outline>
	<anchor name="ogonek" x="512" y="0"/>
	<anchor name="bottom" x="288" y="0"/>
	<anchor name="top" x="355" y="534"/>
</glyph>
<glyph name="questiondown" format="2">
	<unicode hex="00BF"/>
	<advance width="600"/>
	<outline>
		<contour>
			<point x="356" y="534" type="curve" smooth="yes"/>
			<point x="299" y="534"/>
			<point x="273" y="513"/>
			<point x="266" y="466" type="curve" smooth="yes"/>
			<point x="258" y="410"/>
			<point x="285" y="383"/>
			<point x="344" y="383" type="curve" smooth="yes"/>
			<point x="401" y="383"/>
			<point x="427" y="405"/>
			<point x="434" y="451" type="curve" smooth="yes"/>
			<point x="442" y="508"/>
			<point x="415" y="534"/>
		</contour>
		<contour>
			<point x="387" y="304" type="curve"/>
			<point x="276" y="304" type="line"/>
			<point x="273" y="278" type="line" smooth="yes"/>
			<point x="260" y="165"/>
			<point x="56" y="163"/>
			<point x="56" y="-12" type="curve" smooth="yes"/>
			<point x="56" y="-109"/>
			<point x="127" y="-175"/>
			<point x="262" y="-175" type="curve" smooth="yes"/>
			<point x="341" y="-175"/>
			<point x="402" y="-155"/>
			<point x="451" y="-127" type="curve"/>
			<point x="467" y="-13" type="line"/>
			<point x="418" y="-46"/>
			<point x="357" y="-68"/>
			<point x="291" y="-68" type="curve" smooth="yes"/>
			<point x="220" y="-68"/>
			<point x="183" y="-41"/>
			<point x="183" y="9" type="curve" smooth="yes"/>
			<point x="183" y="110"/>
			<point x="376" y="114"/>
			<point x="388" y="267" type="curve" smooth="yes"/>
			<point x="390" y="284"/>
			<point x="389" y="296"/>
		</contour>
	</outline>
</glyph>
<glyph name="AE" format="2">
	<unicode hex="00C6"/>
	<advance width="600"/>
	<outline>
		<contour>
			<point x="-31" y="0" type="line"/>
			<point x="92" y="-1" type="line"/>
			<point x="152" y="165" type="line"/>
			<point x="277" y="165" type="line"/>
			<point x="254" y="0" type="line"/>
			<point x="541" y="0" type="line"/>
			<point x="555" y="103" type="line"/>
			<point x="385" y="103" type="line"/>
			<point x="411" y="291" type="line"/>
			<point x="551" y="291" type="line"/>
			<point x="565" y="393" type="line"/>
			<point x="425" y="393" type="line"/>
			<point x="452" y="582" type="line"/>
			<point x="620" y="582" type="line"/>
			<point x="634" y="684" type="line"/>
			<point x="224" y="684" type="line"/>
		</contour>
		<contour>
			<point x="188" y="264" type="line"/>
			<point x="302" y="582" type="line"/>
			<point x="336" y="582" type="line"/>
			<point x="291" y="264" type="line"/>
		</contour>
	</outline>
	<anchor name="top" x="407" y="684"/>
</glyph>
<glyph name="Eth" format="2">
	<unicode hex="00D0"/>
	<advance width="600"/>
	<outline>
		<contour>
			<point x="24" y="0" type="line"/>
			<point x="270" y="0" type="line" smooth="yes"/>
			<point x="442" y="0"/>
			<point x="540" y="100"/>
			<point x="568" y="301" type="curve" smooth="yes"/>
			<point x="571" y="319" type="line" smooth="yes"/>
			<point x="601" y="541"/>
			<point x="519" y="684"/>
			<point x="331" y="684" type="curve" smooth="yes"/>
			<point x="120" y="684" type="line"/>
			<point x="78" y="382" type="line"/>
			<point x="18" y="382" type="line"/>
			<point x="6" y="299" type="line"/>
			<point x="66" y="299" type="line"/>
		</contour>
		<contour>
			<point x="309" y="581" type="line" smooth="yes"/>
			<point x="413" y="581"/>
			<point x="464" y="507"/>
			<point x="442" y="334" type="curve" smooth="yes"/>
			<point x="440" y="323" type="line" smooth="yes"/>
			<point x="421" y="176"/>
			<point x="368" y="104"/>
			<point x="267" y="104" type="curve" smooth="yes"/>
			<point x="165" y="104" type="line"/>
			<point x="193" y="299" type="line"/>
			<point x="321" y="299" type="line"/>
			<point x="333" y="382" type="line"/>
			<point x="205" y="382" type="line"/>
			<point x="233" y="581" type="line"/>
		</contour>
	</outline>
</glyph>
<glyph name="germandbls" format="2">
	<unicode hex="00DF"/>
	<advance width="600"/>
	<outline>
		<contour>
			<point x="330" y="-9" type="curve" smooth="yes"/>
			<point x="463" y="-9"/>
			<point x="550" y="77"/>
			<point x="550" y="210" type="curve" smooth="yes"/>
			<point x="550" y="301"/>
			<point x="496" y="356"/>
			<point x="410" y="374" type="curve"/>
			<point x="506" y="394"/>
			<point x="575" y="462"/>
			<point x="575" y="579" type="curve" smooth="yes"/>
			<point x="575" y="690"/>
			<point x="500" y="760"/>
			<point x="358" y="760" type="curve" smooth="yes"/>
			<point x="188" y="760"/>
			<point x="113" y="658"/>
			<point x="95" y="527" type="curve" smooth="yes"/>
			<point x="21" y="0" type="line"/>
			<point x="146" y="0" type="line"/>
			<point x="222" y="533" type="line" smooth="yes"/>
			<point x="235" y="618"/>
			<point x="276" y="661"/>
			<point x="349" y="661" type="curve" smooth="yes"/>
			<point x="416" y="661"/>
			<point x="452" y="627"/>
			<point x="452" y="561" type="curve" smooth="yes"/>
			<point x="452" y="477"/>
			<point x="406" y="423"/>
			<point x="330" y="423" type="curve" smooth="yes"/>
			<point x="257" y="423" type="line"/>
			<point x="243" y="321" type="line"/>
			<point x="305" y="321" type="line" smooth="yes"/>
			<point x="386" y="321"/>
			<point x="424" y="284"/>
			<point x="424" y="211" type="curve" smooth="yes"/>
			<point x="424" y="133"/>
			<point x="379" y="84"/>
			<point x="305" y="84" type="curve" smooth="yes"/>
			<point x="268" y="84"/>
			<point x="240" y="93"/>
			<point x="217" y="107" type="curve"/>
			<point x="204" y="19" type="line"/>
			<point x="229" y="3"/>
			<point x="273" y="-9"/>
		</contour>
	</outline>
</glyph>
<glyph name="eth" format="2">
	<unicode hex="00F0"/>
	<advance width="600"/>
	<outline>
		<contour>
			<point x="275" y="-14" type="curve" smooth="yes"/>
			<point x="425" y="-14"/>
			<point x="522" y="79"/>
			<point x="549" y="262" type="curve" smooth="yes"/>
			<point x="551" y="276" type="line" smooth="yes"/>
			<point x="570" y="407"/>
			<point x="547" y="532"/>
			<point x="485" y="633" type="curve"/>
			<point x="572" y="662" type="line"/>
			<point x="583" y="741" type="line"/>
			<point x="441" y="693" type="line"/>
			<point x="423" y="714"/>
			<point x="403" y="733"/>
			<point x="381" y="750" type="curve"/>
			<point x="215" y="750" type="line"/>
			<point x="258" y="717"/>
			<point x="293" y="685"/>
			<point x="321" y="653" type="curve"/>
			<point x="221" y="619" type="line"/>
			<point x="210" y="540" type="line"/>
			<point x="367" y="593" type="line"/>
			<point x="402" y="536"/>
			<point x="421" y="474"/>
			<point x="428" y="398" type="curve"/>
			<point x="399" y="458"/>
			<point x="347" y="502"/>
			<point x="268" y="502" type="curve" smooth="yes"/>
			<point x="160" y="502"/>
			<point x="74" y="423"/>
			<point x="54" y="285" type="curve" smooth="yes"/>
			<point x="52" y="271" type="line" smooth="yes"/>
			<point x="29" y="107"/>
			<point x="101" y="-14"/>
		</contour>
		<contour>
			<point x="285" y="85" type="curve" smooth="yes"/>
			<point x="202" y="85"/>
			<point x="163" y="150"/>
			<point x="178" y="256" type="curve" smooth="yes"/>
			<point x="179" y="263" type="line" smooth="yes"/>
			<point x="192" y="356"/>
			<point x="238" y="411"/>
			<point x="309" y="411" type="curve" smooth="yes"/>
			<point x="385" y="411"/>
			<point x="431" y="358"/>
			<point x="418" y="249" type="curve" smooth="yes"/>
			<point x="417" y="241" type="line" smooth="yes"/>
			<point x="405" y="142"/>
			<point x="359" y="85"/>
		</contour>
	</outline>
</glyph>
<glyph name="oslash" format="2">
	<unicode hex="00F8"/>
	<advance width="600"/>
	<outline>
		<contour>
			<point x="280" y="-14" type="curve" smooth="yes"/>
			<point x="426" y="-14"/>
			<point x="520" y="79"/>
			<point x="542" y="230" type="curve" smooth="yes"/>
			<point x="544" y="244" type="line" smooth="yes"/>
			<point x="555" y="323"/>
			<point x="544" y="390"/>
			<point x="514" y="440" type="curve"/>
			<point x="611" y="547" type="line"/>
			<point x="506" y="547" type="line"/>
			<point x="461" y="497" type="line"/>
			<point x="425" y="523"/>
			<point x="378" y="537"/>
			<point x="322" y="537" type="curve" smooth="yes"/>
			<point x="181" y="537"/>
			<point x="79" y="443"/>
			<point x="58" y="293" type="curve" smooth="yes"/>
			<point x="56" y="279" type="line" smooth="yes"/>
			<point x="44" y="199"/>
			<point x="56" y="132"/>
			<point x="86" y="83" type="curve"/>
			<point x="-11" y="-24" type="line"/>
			<point x="94" y="-24" type="line"/>
			<point x="139" y="26" type="line"/>
			<point x="176" y="0"/>
			<point x="223" y="-14"/>
		</contour>
		<contour>
			<point x="183" y="271" type="curve" smooth="yes"/>
			<point x="184" y="278" type="line" smooth="yes"/>
			<point x="200" y="387"/>
			<point x="248" y="439"/>
			<point x="315" y="439" type="curve" smooth="yes"/>
			<point x="344" y="439"/>
			<point x="367" y="430"/>
			<point x="385" y="413" type="curve"/>
			<point x="181" y="188" type="line"/>
			<point x="178" y="212"/>
			<point x="179" y="239"/>
		</contour>
		<contour>
			<point x="285" y="85" type="curve" smooth="yes"/>
			<point x="257" y="85"/>
			<point x="233" y="94"/>
			<point x="215" y="111" type="curve"/>
			<point x="419" y="336" type="line"/>
			<point x="422" y="313"/>
			<point x="422" y="285"/>
			<point x="417" y="253" type="curve" smooth="yes"/>
			<point x="416" y="246" type="line" smooth="yes"/>
			<point x="400" y="137"/>
			<point x="352" y="85"/>
		</contour>
	</outline>
</glyph>
<glyph name="thorn" format="2">
	<unicode hex="00FE"/>
	<advance width="600"/>
	<outline>
		<contour>
			<point x="144" y="750" type="line"/>
			<point x="11" y="-204" type="line"/>
			<point x="136" y="-204" type="line"/>
			<point x="164" y="0" type="line"/>
			<point x="228" y="0" type="line" smooth="yes"/>
			<point x="410" y="0"/>
			<point x="520" y="97"/>
			<point x="544" y="260" type="curve" smooth="yes"/>
			<point x="546" y="274" type="line" smooth="yes"/>
			<point x="569" y="438"/>
			<point x="504" y="537"/>
			<point x="388" y="537" type="curve" smooth="yes"/>
			<point x="324" y="537"/>
			<point x="267" y="504"/>
			<point x="224" y="428" type="curve"/>
			<point x="269" y="750" type="line"/>
		</contour>
		<contour>
			<point x="328" y="438" type="curve" smooth="yes"/>
			<point x="398" y="438"/>
			<point x="433" y="379"/>
			<point x="418" y="272" type="curve" smooth="yes"/>
			<point x="417" y="265" type="line" smooth="yes"/>
			<point x="401" y="151"/>
			<point x="342" y="97"/>
			<point x="239" y="97" type="curve" smooth="yes"/>
			<point x="177" y="97" type="line"/>
			<point x="207" y="304" type="line" smooth="yes"/>
			<point x="219" y="385"/>
			<point x="261" y="438"/>
		</contour>
	</outline>
</glyph>
<glyph name="Aogonek" format="2">
	<unicode hex="0104"/>
	<advance width="600"/>
	<outline>
		<contour>
			<point x="-22" y="0" type="line"/>
			<point x="111" y="0" type="line"/>
			<point x="172" y="153" type="line"/>
			<point x="400" y="153" type="line"/>
			<point x="419" y="0" type="line"/>
			<point x="460" y="0" type="line"/>
			<point x="390" y="-25"/>
			<point x="349" y="-65"/>
			<point x="349" y="-120" type="curve" smooth="yes"/>
			<point x="349" y="-177"/>
			<point x="391" y="-203"/>
			<point x="466" y="-203" type="curve" smooth="yes"/>
			<point x="491" y="-203"/>
			<point x="517" y="-198"/>
			<point x="529" y="-193" type="curve"/>
			<point x="541" y="-114" type="line"/>
			<point x="534" y="-116"/>
			<point x="520" y="-119"/>
			<point x="505" y="-119" type="curve" smooth="yes"/>
			<point x="475" y="-119"/>
			<point x="455" y="-108"/>
			<point x="455" y="-82" type="curve" smooth="yes"/>
			<point x="455" y="-51"/>
			<point x="480" y="-22"/>
			<point x="548" y="0" type="curve"/>
			<point x="447" y="686" type="line"/>
			<point x="270" y="686" type="line"/>
		</contour>
		<contour>
			<point x="213" y="256" type="line"/>
			<point x="347" y="590" type="line"/>
			<point x="388" y="256" type="line"/>
		</contour>
	</outline>
</glyph>
<glyph name="dcaron" format="2">
	<unicode hex="010F"/>
	<advance width="600"/>
	<outline>
		<contour>
			<point x="200" y="-14" type="curve" smooth="yes"/>
			<point x="267" y="-14"/>
			<point x="325" y="21"/>
			<point x="366" y="102" type="curve"/>
			<point x="352" y="0" type="line"/>
			<point x="466" y="0" type="line"/>
			<point x="572" y="750" type="line"/>
			<point x="453" y="750" type="line"/>
			<point x="421" y="523" type="line"/>
			<point x="359" y="523" type="line" smooth="yes"/>
			<point x="184" y="523"/>
			<point x="78" y="423"/>
			<point x="55" y="261" type="curve" smooth="yes"/>
			<point x="53" y="247" type="line" smooth="yes"/>
			<point x="29" y="83"/>
			<point x="89" y="-14"/>
		</contour>
		<contour>
			<point x="595" y="565" type="line"/>
			<point x="659" y="565" type="line"/>
			<point x="745" y="750" type="line"/>
			<point x="636" y="750" type="line"/>
		</contour>
		<contour>
			<point x="261" y="80" type="curve" smooth="yes"/>
			<point x="193" y="80"/>
			<point x="158" y="143"/>
			<point x="173" y="252" type="curve" smooth="yes"/>
			<point x="174" y="259" type="line" smooth="yes"/>
			<point x="191" y="377"/>
			<point x="249" y="431"/>
			<point x="349" y="431" type="curve" smooth="yes"/>
			<point x="408" y="431" type="line"/>
			<point x="378" y="212" type="line" smooth="yes"/>
			<point x="367" y="133"/>
			<point x="323" y="80"/>
		</contour>
	</outline>
</glyph>
<glyph name="dcroat" format="2">
	<unicode hex="0111"/>
	<advance width="600"/>
	<outline>
		<contour>
			<point x="211" y="-14" type="curve" smooth="yes"/>
			<point x="280" y="-14"/>
			<point x="340" y="22"/>
			<point x="382" y="106" type="curve"/>
			<point x="367" y="0" type="line"/>
			<point x="488" y="0" type="line"/>
			<point x="571" y="591" type="line"/>
			<point x="631" y="591" type="line"/>
			<point x="641" y="663" type="line"/>
			<point x="581" y="663" type="line"/>
			<point x="593" y="750" type="line"/>
			<point x="468" y="750" type="line"/>
			<point x="456" y="663" type="line"/>
			<point x="304" y="663" type="line"/>
			<point x="294" y="591" type="line"/>
			<point x="446" y="591" type="line"/>
			<point x="436" y="523" type="line"/>
			<point x="371" y="523" type="line" smooth="yes"/>
			<point x="192" y="523"/>
			<point x="80" y="423"/>
			<point x="56" y="261" type="curve" smooth="yes"/>
			<point x="54" y="247" type="line" smooth="yes"/>
			<point x="31" y="83"/>
			<point x="93" y="-14"/>
		</contour>
		<contour>
			<point x="182" y="252" type="curve" smooth="yes"/>
			<point x="183" y="259" type="line"/>
			<point x="199" y="373"/>
			<point x="259" y="425"/>
			<point x="361" y="425" type="curve" smooth="yes"/>
			<point x="423" y="425" type="line"/>
			<point x="394" y="217" type="line" smooth="yes"/>
			<point x="383" y="138"/>
			<point x="339" y="85"/>
			<point x="273" y="85" type="curve" smooth="yes"/>
			<point x="201" y="85"/>
			<point x="167" y="146"/>
		</contour>
	</outline>
</glyph>
<glyph name="Eogonek" format="2">
	<unicode hex="0118"/>
	<advance width="600"/>
	<outline>
		<contour>
			<point x="422" y="-203" type="curve" smooth="yes"/>
			<point x="447" y="-203"/>
			<point x="473" y="-198"/>
			<point x="485" y="-193" type="curve"/>
			<point x="497" y="-114" type="line"/>
			<point x="490" y="-116"/>
			<point x="476" y="-119"/>
			<point x="461" y="-119" type="curve" smooth="yes"/>
			<point x="431" y="-119"/>
			<point x="411" y="-108"/>
			<point x="411" y="-82" type="curve" smooth="yes"/>
			<point x="411" y="-51"/>
			<point x="436" y="-22"/>
			<point x="504" y="0" type="curve"/>
			<point x="519" y="105" type="line"/>
			<point x="184" y="105" type="line"/>
			<point x="210" y="291" type="line"/>
			<point x="500" y="291" type="line"/>
			<point x="515" y="395" type="line"/>
			<point x="225" y="395" type="line"/>
			<point x="251" y="580" type="line"/>
			<point x="580" y="580" type="line"/>
			<point x="595" y="684" type="line"/>
			<point x="139" y="684" type="line"/>
			<point x="43" y="0" type="line"/>
			<point x="416" y="0" type="line"/>
			<point x="346" y="-25"/>
			<point x="305" y="-65"/>
			<point x="305" y="-120" type="curve" smooth="yes"/>
			<point x="305" y="-177"/>
			<point x="347" y="-203"/>
		</contour>
	</outline>
</glyph>
<glyph name="Hbar" format="2">
	<unicode hex="0126"/>
	<advance width="600"/>
	<outline>
		<contour>
			<point x="27" y="0" type="line"/>
			<point x="153" y="0" type="line"/>
			<point x="192" y="279" type="line"/>
			<point x="412" y="279" type="line"/>
			<point x="373" y="0" type="line"/>
			<point x="499" y="0" type="line"/>
			<point x="567" y="488" type="line"/>
			<point x="632" y="488" type="line"/>
			<point x="643" y="565" type="line"/>
			<point x="578" y="565" type="line"/>
			<point x="595" y="684" type="line"/>
			<point x="469" y="684" type="line"/>
			<point x="452" y="565" type="line"/>
			<point x="232" y="565" type="line"/>
			<point x="249" y="684" type="line"/>
			<point x="123" y="684" type="line"/>
			<point x="106" y="565" type="line"/>
			<point x="43" y="565" type="line"/>
			<point x="32" y="488" type="line"/>
			<point x="95" y="488" type="line"/>
		</contour>
		<contour>
			<point x="207" y="385" type="line"/>
			<point x="221" y="488" type="line"/>
			<point x="441" y="488" type="line"/>
			<point x="427" y="385" type="line"/>
		</contour>
	</outline>
	<anchor name="center" x="338" y="531"/>
	<anchor name="bottom" x="289" y="0"/>
	<anchor name="top" x="359" y="684"/>
</glyph>
<glyph name="IJ" format="2">
	<unicode hex="0132"/>
	<advance width="600"/>
	<outline>
		<contour>
			<point x="238" y="-12" type="curve" smooth="yes"/>
			<point x="389" y="-12"/>
			<point x="488" y="59"/>
			<point x="511" y="221" type="curve" smooth="yes"/>
			<point x="576" y="684" type="line"/>
			<point x="452" y="684" type="line"/>
			<point x="389" y="243" type="line" smooth="yes"/>
			<point x="374" y="132"/>
			<point x="316" y="93"/>
			<point x="224" y="93" type="curve" smooth="yes"/>
			<point x="165" y="93"/>
			<point x="108" y="108"/>
			<point x="65" y="134" type="curve"/>
			<point x="51" y="28" type="line"/>
			<point x="94" y="4"/>
			<point x="156" y="-12"/>
		</contour>
		<contour>
			<point x="78" y="216" type="line"/>
			<point x="201" y="216" type="line"/>
			<point x="266" y="684" type="line"/>
			<point x="143" y="684" type="line"/>
		</contour>
	</outline>
</glyph>
<glyph name="Ldot" format="2">
	<unicode hex="013F"/>
	<advance width="600"/>
	<outline>
		<contour>
			<point x="52" y="0" type="line"/>
			<point x="511" y="0" type="line"/>
			<point x="527" y="116" type="line"/>
			<point x="196" y="116" type="line"/>
			<point x="275" y="684" type="line"/>
			<point x="148" y="684" type="line"/>
		</contour>
		<contour>
			<point x="467" y="325" type="curve" smooth="yes"/>
			<point x="527" y="325"/>
			<point x="548" y="356"/>
			<point x="556" y="412" type="curve" smooth="yes"/>
			<point x="565" y="473"/>
			<point x="542" y="508"/>
			<point x="481" y="508" type="curve" smooth="yes"/>
			<point x="420" y="508"/>
			<point x="397" y="477"/>
			<point x="390" y="422" type="curve" smooth="yes"/>
			<point x="381" y="360"/>
			<point x="405" y="325"/>
		</contour>
	</outline>
</glyph>
<glyph name="ldot" format="2">
	<unicode hex="0140"/>
	<advance width="600"/>
	<outline>
		<contour>
			<point x="31" y="0" type="line"/>
			<point x="505" y="0" type="line"/>
			<point x="519" y="99" type="line"/>
			<point x="350" y="99" type="line"/>
			<point x="443" y="750" type="line"/>
			<point x="139" y="750" type="line"/>
			<point x="124" y="651" type="line"/>
			<point x="304" y="651" type="line"/>
			<point x="224" y="99" type="line"/>
			<point x="45" y="99" type="line"/>
		</contour>
		<contour>
			<point x="609" y="288" type="curve" smooth="yes"/>
			<point x="668" y="288"/>
			<point x="690" y="319"/>
			<point x="698" y="372" type="curve" smooth="yes"/>
			<point x="707" y="432"/>
			<point x="685" y="466"/>
			<point x="626" y="466" type="curve" smooth="yes"/>
			<point x="568" y="466"/>
			<point x="546" y="436"/>
			<point x="538" y="383" type="curve" smooth="yes"/>
			<point x="530" y="322"/>
			<point x="551" y="288"/>
		</contour>
	</outline>
</glyph>
<glyph name="eng" format="2">
	<unicode hex="014B"/>
	<advance width="600"/>
	<outline>
		<contour>
			<point x="301" y="-214" type="curve" smooth="yes"/>
			<point x="387" y="-214"/>
			<point x="465" y="-179"/>
			<point x="482" y="-57" type="curve" smooth="yes"/>
			<point x="537" y="332" type="line" smooth="yes"/>
			<point x="556" y="463"/>
			<point x="501" y="537"/>
			<point x="399" y="537" type="curve" smooth="yes"/>
			<point x="322" y="537"/>
			<point x="263" y="493"/>
			<point x="220" y="417" type="curve"/>
			<point x="235" y="523" type="line"/>
			<point x="115" y="523" type="line"/>
			<point x="41" y="0" type="line"/>
			<point x="166" y="0" type="line"/>
			<point x="209" y="306" type="line" smooth="yes"/>
			<point x="213" y="332"/>
			<point x="220" y="357"/>
			<point x="235" y="380" type="curve" smooth="yes"/>
			<point x="254" y="409"/>
			<point x="283" y="434"/>
			<point x="328" y="434" type="curve" smooth="yes"/>
			<point x="390" y="434"/>
			<point x="421" y="394"/>
			<point x="409" y="309" type="curve" smooth="yes"/>
			<point x="360" y="-40" type="line" smooth="yes"/>
			<point x="351" y="-101"/>
			<point x="312" y="-115"/>
			<point x="276" y="-115" type="curve" smooth="yes"/>
			<point x="263" y="-115"/>
			<point x="241" y="-111"/>
			<point x="227" y="-106" type="curve"/>
			<point x="214" y="-199" type="line"/>
			<point x="232" y="-206"/>
			<point x="265" y="-214"/>
		</contour>
	</outline>
</glyph>
<glyph name="OE" format="2">
	<unicode hex="0152"/>
	<advance width="600"/>
	<outline>
		<contour>
			<point x="149" y="-13" type="curve" smooth="yes"/>
			<point x="201" y="-13"/>
			<point x="243" y="22"/>
			<point x="275" y="84" type="curve"/>
			<point x="263" y="0" type="line"/>
			<point x="542" y="0" type="line"/>
			<point x="556" y="103" type="line"/>
			<point x="393" y="103" type="line"/>
			<point x="419" y="291" type="line"/>
			<point x="555" y="291" type="line"/>
			<point x="569" y="393" type="line"/>
			<point x="434" y="393" type="line"/>
			<point x="461" y="582" type="line"/>
			<point x="622" y="582" type="line"/>
			<point x="636" y="684" type="line"/>
			<point x="319" y="684" type="line"/>
			<point x="160" y="684"/>
			<point x="80" y="566"/>
			<point x="48" y="340" type="curve" smooth="yes"/>
			<point x="46" y="326" type="line" smooth="yes"/>
			<point x="15" y="110"/>
			<point x="48" y="-13"/>
		</contour>
		<contour>
			<point x="214" y="91" type="curve" smooth="yes"/>
			<point x="156" y="91"/>
			<point x="142" y="170"/>
			<point x="164" y="324" type="curve" smooth="yes"/>
			<point x="165" y="331" type="line" smooth="yes"/>
			<point x="187" y="488"/>
			<point x="219" y="582"/>
			<point x="311" y="582" type="curve" smooth="yes"/>
			<point x="343" y="582" type="line"/>
			<point x="288" y="189" type="line" smooth="yes"/>
			<point x="280" y="131"/>
			<point x="255" y="91"/>
		</contour>
	</outline>
</glyph>
<glyph name="oe" format="2">
	<unicode hex="0153"/>
	<advance width="600"/>
	<outline>
		<contour>
			<point x="114" y="-14" type="curve" smooth="yes"/>
			<point x="174" y="-14"/>
			<point x="220" y="22"/>
			<point x="248" y="114" type="curve"/>
			<point x="265" y="23"/>
			<point x="323" y="-14"/>
			<point x="415" y="-14" type="curve" smooth="yes"/>
			<point x="464" y="-14"/>
			<point x="510" y="2"/>
			<point x="537" y="20" type="curve"/>
			<point x="551" y="116" type="line"/>
			<point x="513" y="92"/>
			<point x="475" y="82"/>
			<point x="439" y="82" type="curve" smooth="yes"/>
			<point x="368" y="82"/>
			<point x="339" y="124"/>
			<point x="350" y="232" type="curve"/>
			<point x="585" y="232" type="line"/>
			<point x="592" y="281" type="line" smooth="yes"/>
			<point x="613" y="430"/>
			<point x="578" y="537"/>
			<point x="458" y="537" type="curve" smooth="yes"/>
			<point x="407" y="537"/>
			<point x="365" y="513"/>
			<point x="331" y="462" type="curve"/>
			<point x="312" y="509"/>
			<point x="271" y="537"/>
			<point x="210" y="537" type="curve" smooth="yes"/>
			<point x="100" y="537"/>
			<point x="37" y="445"/>
			<point x="13" y="279" type="curve" smooth="yes"/>
			<point x="11" y="265" type="line" smooth="yes"/>
			<point x="-15" y="85"/>
			<point x="21" y="-14"/>
		</contour>
		<contour>
			<point x="445" y="449" type="curve" smooth="yes"/>
			<point x="489" y="449"/>
			<point x="500" y="389"/>
			<point x="491" y="303" type="curve"/>
			<point x="358" y="303" type="line"/>
			<point x="371" y="399"/>
			<point x="397" y="449"/>
		</contour>
		<contour>
			<point x="165" y="83" type="curve" smooth="yes"/>
			<point x="116" y="83"/>
			<point x="104" y="144"/>
			<point x="121" y="265" type="curve" smooth="yes"/>
			<point x="122" y="272" type="line" smooth="yes"/>
			<point x="140" y="401"/>
			<point x="166" y="446"/>
			<point x="207" y="446" type="curve" smooth="yes"/>
			<point x="256" y="446"/>
			<point x="267" y="391"/>
			<point x="248" y="257" type="curve" smooth="yes"/>
			<point x="247" y="250" type="line" smooth="yes"/>
			<point x="230" y="134"/>
			<point x="206" y="83"/>
		</contour>
	</outline>
</glyph>
<glyph name="scedilla" format="2">
	<unicode hex="015F"/>
	<advance width="600"/>
	<outline>
		<contour>
			<point x="230" y="-227" type="curve" smooth="yes"/>
			<point x="310" y="-227"/>
			<point x="356" y="-188"/>
			<point x="357" y="-123" type="curve" smooth="yes"/>
			<point x="358" y="-76"/>
			<point x="332" y="-50"/>
			<point x="281" y="-46" type="curve"/>
			<point x="301" y="-13" type="line"/>
			<point x="432" y="-4"/>
			<point x="504" y="62"/>
			<point x="504" y="173" type="curve" smooth="yes"/>
			<point x="504" y="275"/>
			<point x="424" y="297"/>
			<point x="320" y="318" type="curve" smooth="yes"/>
			<point x="248" y="333"/>
			<point x="218" y="341"/>
			<point x="218" y="380" type="curve" smooth="yes"/>
			<point x="218" y="421"/>
			<point x="255" y="444"/>
			<point x="317" y="444" type="curve" smooth="yes"/>
			<point x="389" y="444"/>
			<point x="476" y="421"/>
			<point x="530" y="381" type="curve"/>
			<point x="544" y="486" type="line"/>
			<point x="490" y="518"/>
			<point x="407" y="538"/>
			<point x="326" y="538" type="curve" smooth="yes"/>
			<point x="173" y="538"/>
			<point x="96" y="461"/>
			<point x="96" y="353" type="curve" smooth="yes"/>
			<point x="96" y="250"/>
			<point x="177" y="224"/>
			<point x="281" y="206" type="curve" smooth="yes"/>
			<point x="356" y="194"/>
			<point x="384" y="184"/>
			<point x="384" y="146" type="curve" smooth="yes"/>
			<point x="384" y="101"/>
			<point x="344" y="81"/>
			<point x="279" y="81" type="curve" smooth="yes"/>
			<point x="214" y="81"/>
			<point x="130" y="101"/>
			<point x="70" y="149" type="curve"/>
			<point x="56" y="46" type="line"/>
			<point x="94" y="17"/>
			<point x="158" y="-6"/>
			<point x="233" y="-12" type="curve"/>
			<point x="186" y="-93" type="line"/>
			<point x="199" y="-91"/>
			<point x="210" y="-90"/>
			<point x="219" y="-90" type="curve" smooth="yes"/>
			<point x="256" y="-90"/>
			<point x="275" y="-100"/>
			<point x="275" y="-124" type="curve" smooth="yes"/>
			<point x="275" y="-151"/>
			<point x="255" y="-163"/>
			<point x="219" y="-163" type="curve" smooth="yes"/>
			<point x="191" y="-163"/>
			<point x="166" y="-155"/>
			<point x="147" y="-145" type="curve"/>
			<point x="139" y="-206" type="line"/>
			<point x="159" y="-218"/>
			<point x="195" y="-227"/>
		</contour>
	</outline>
</glyph>
<glyph name="Tbar" format="2">
	<unicode hex="0166"/>
	<advance width="600"/>
	<outline>
		<contour>
			<point x="199" y="0" type="line"/>
			<point x="326" y="0" type="line"/>
			<point x="369" y="304" type="line"/>
			<point x="490" y="304" type="line"/>
			<point x="502" y="387" type="line"/>
			<point x="381" y="387" type="line"/>
			<point x="407" y="575" type="line"/>
			<point x="607" y="575" type="line"/>
			<point x="623" y="684" type="line"/>
			<point x="96" y="684" type="line"/>
			<point x="80" y="575" type="line"/>
			<point x="280" y="575" type="line"/>
			<point x="254" y="387" type="line"/>
			<point x="131" y="387" type="line"/>
			<point x="120" y="304" type="line"/>
			<point x="242" y="304" type="line"/>
		</contour>
	</outline>
</glyph>
<glyph name="tbar" format="2">
	<unicode hex="0167"/>
	<advance width="600"/>
	<outline>
		<contour>
			<point x="60" y="244" type="line"/>
			<point x="187" y="244" type="line"/>
			<point x="179" y="184" type="line" smooth="yes"/>
			<point x="159" y="41"/>
			<point x="227" y="-12"/>
			<point x="353" y="-12" type="curve" smooth="yes"/>
			<point x="408" y="-12"/>
			<point x="453" y="-1"/>
			<point x="478" y="12" type="curve"/>
			<point x="490" y="105" type="line"/>
			<point x="467" y="95"/>
			<point x="431" y="88"/>
			<point x="398" y="88" type="curve" smooth="yes"/>
			<point x="324" y="88"/>
			<point x="294" y="115"/>
			<point x="305" y="198" type="curve" smooth="yes"/>
			<point x="311" y="244" type="line"/>
			<point x="507" y="244" type="line"/>
			<point x="518" y="321" type="line"/>
			<point x="322" y="321" type="line"/>
			<point x="337" y="424" type="line"/>
			<point x="539" y="424" type="line"/>
			<point x="553" y="523" type="line"/>
			<point x="352" y="523" type="line"/>
			<point x="376" y="692" type="line"/>
			<point x="266" y="692" type="line"/>
			<point x="243" y="586" type="line" smooth="yes"/>
			<point x="231" y="528"/>
			<point x="205" y="518"/>
			<point x="165" y="518" type="curve" smooth="yes"/>
			<point x="88" y="518" type="line"/>
			<point x="75" y="424" type="line"/>
			<point x="212" y="424" type="line"/>
			<point x="198" y="321" type="line"/>
			<point x="70" y="321" type="line"/>
		</contour>
	</outline>
</glyph>
<glyph name="Uogonek" format="2">
	<unicode hex="0172"/>
	<advance width="600"/>
	<outline>
		<contour>
			<point x="287" y="-203" type="curve" smooth="yes"/>
			<point x="312" y="-203"/>
			<point x="338" y="-198"/>
			<point x="350" y="-193" type="curve"/>
			<point x="362" y="-114" type="line"/>
			<point x="355" y="-116"/>
			<point x="341" y="-119"/>
			<point x="326" y="-119" type="curve" smooth="yes"/>
			<point x="296" y="-119"/>
			<point x="276" y="-108"/>
			<point x="276" y="-82" type="curve" smooth="yes"/>
			<point x="276" y="-51"/>
			<point x="301" y="-22"/>
			<point x="369" y="0" type="curve"/>
			<point x="369" y="0" type="line"/>
			<point x="463" y="30"/>
			<point x="516" y="108"/>
			<point x="533" y="226" type="curve" smooth="yes"/>
			<point x="598" y="684" type="line"/>
			<point x="471" y="684" type="line"/>
			<point x="407" y="226" type="line" smooth="yes"/>
			<point x="395" y="145"/>
			<point x="359" y="92"/>
			<point x="283" y="92" type="curve" smooth="yes"/>
			<point x="205" y="92"/>
			<point x="173" y="150"/>
			<point x="185" y="235" type="curve" smooth="yes"/>
			<point x="248" y="684" type="line"/>
			<point x="121" y="684" type="line"/>
			<point x="59" y="241" type="line" smooth="yes"/>
			<point x="36" y="82"/>
			<point x="106" y="-6"/>
			<point x="250" y="-13" type="curve"/>
			<point x="198" y="-39"/>
			<point x="170" y="-74"/>
			<point x="170" y="-120" type="curve" smooth="yes"/>
			<point x="170" y="-177"/>
			<point x="212" y="-203"/>
		</contour>
	</outline>
</glyph>
<glyph name="Oslashacute" format="2">
	<unicode hex="01FE"/>
	<advance width="600"/>
	<outline>
		<contour>
			<point x="318" y="745" type="line"/>
			<point x="416" y="745" type="line"/>
			<point x="533" y="884" type="line"/>
			<point x="395" y="884" type="line"/>
		</contour>
		<contour>
			<point x="279" y="-14" type="curve" smooth="yes"/>
			<point x="445" y="-14"/>
			<point x="531" y="113"/>
			<point x="559" y="307" type="curve" smooth="yes"/>
			<point x="561" y="321" type="line" smooth="yes"/>
			<point x="577" y="432"/>
			<point x="571" y="519"/>
			<point x="543" y="582" type="curve"/>
			<point x="637" y="708" type="line"/>
			<point x="530" y="708" type="line"/>
			<point x="489" y="654" type="line"/>
			<point x="454" y="683"/>
			<point x="406" y="698"/>
			<point x="346" y="698" type="curve" smooth="yes"/>
			<point x="184" y="698"/>
			<point x="91" y="569"/>
			<point x="63" y="376" type="curve" smooth="yes"/>
			<point x="61" y="362" type="line" smooth="yes"/>
			<point x="45" y="252"/>
			<point x="51" y="165"/>
			<point x="79" y="103" type="curve"/>
			<point x="-16" y="-24" type="line"/>
			<point x="90" y="-24" type="line"/>
			<point x="131" y="32" type="line"/>
			<point x="168" y="1"/>
			<point x="217" y="-14"/>
		</contour>
		<contour>
			<point x="190" y="354" type="curve" smooth="yes"/>
			<point x="191" y="361" type="line" smooth="yes"/>
			<point x="215" y="527"/>
			<point x="263" y="594"/>
			<point x="340" y="594" type="curve" smooth="yes"/>
			<point x="374" y="594"/>
			<point x="400" y="581"/>
			<point x="416" y="555" type="curve"/>
			<point x="181" y="240" type="line"/>
			<point x="181" y="272"/>
			<point x="184" y="310"/>
		</contour>
		<contour>
			<point x="284" y="90" type="curve" smooth="yes"/>
			<point x="249" y="90"/>
			<point x="222" y="103"/>
			<point x="205" y="130" type="curve"/>
			<point x="441" y="445" type="line"/>
			<point x="441" y="414"/>
			<point x="438" y="376"/>
			<point x="432" y="332" type="curve" smooth="yes"/>
			<point x="431" y="325" type="line" smooth="yes"/>
			<point x="407" y="158"/>
			<point x="362" y="90"/>
		</contour>
	</outline>
</glyph>
<glyph name="ogonek" format="2">
	<unicode hex="02DB"/>
	<advance width="600"/>
	<outline>
		<contour>
			<point x="266" y="-203" type="curve" smooth="yes"/>
			<point x="291" y="-203"/>
			<point x="317" y="-198"/>
			<point x="329" y="-193" type="curve"/>
			<point x="341" y="-114" type="line"/>
			<point x="334" y="-116"/>
			<point x="320" y="-119"/>
			<point x="305" y="-119" type="curve" smooth="yes"/>
			<point x="275" y="-119"/>
			<point x="255" y="-108"/>
			<point x="255" y="-82" type="curve" smooth="yes"/>
			<point x="255" y="-51"/>
			<point x="280" y="-22"/>
			<point x="348" y="0" type="curve"/>
			<point x="263" y="1" type="line"/>
			<point x="190" y="-25"/>
			<point x="149" y="-65"/>
			<point x="149" y="-120" type="curve" smooth="yes"/>
			<point x="149" y="-177"/>
			<point x="191" y="-203"/>
		</contour>
	</outline>
	<anchor name="_ogonek" x="348" y="0"/>
</glyph>
<glyph name="hungarumlaut" format="2">
	<unicode hex="02DD"/>
	<advance width="600"/>
	<outline>
		<contour>
			<point x="357" y="602" type="line"/>
			<point x="446" y="602" type="line"/>
			<point x="555" y="750" type="line"/>
			<point x="434" y="750" type="line"/>
		</contour>
		<contour>
			<point x="171" y="602" type="line"/>
			<point x="260" y="602" type="line"/>
			<point x="369" y="750" type="line"/>
			<point x="248" y="750" type="line"/>
		</contour>
	</outline>
	<anchor name="_top" x="298" y="523"/>
</glyph>
<glyph name="quoteleft" format="2">
	<unicode hex="2018"/>
	<advance width="600"/>
	<outline>
		<contour>
			<point x="375" y="454" type="line"/>
			<point x="464" y="750" type="line"/>
			<point x="380" y="750" type="line"/>
			<point x="225" y="454" type="line"/>
		</contour>
	</outline>
</glyph>
<glyph name="guilsinglleft" format="2">
	<unicode hex="2039"/>
	<advance width="600"/>
	<outline>
		<contour>
			<point x="297" y="77" type="line"/>
			<point x="449" y="77" type="line"/>
			<point x="271" y="285" type="line"/>
			<point x="509" y="497" type="line"/>
			<point x="350" y="497" type="line"/>
			<point x="116" y="287" type="line"/>
		</contour>
	</outline>
</glyph>
<glyph name="fraction" format="2">
	<unicode hex="2044"/>
	<advance width="600"/>
	<outline>
		<contour>
			<point x="404" y="413" type="line"/>
			<point x="493" y="413" type="line"/>
			<point x="634" y="684" type="line"/>
			<point x="527" y="684" type="line"/>
		</contour>
		<contour>
			<point x="-12" y="0" type="line"/>
			<point x="95" y="0" type="line"/>
			<point x="219" y="271" type="line"/>
			<point x="129" y="271" type="line"/>
		</contour>
	</outline>
</glyph>
<glyph name="published" format="2">
	<unicode hex="2117"/>
	<advance width="600"/>
	<outline>
		<contour>
			<point x="302" y="103" type="curve" smooth="yes"/>
			<point x="440" y="103"/>
			<point x="550" y="189"/>
			<point x="572" y="342" type="curve" smooth="yes"/>
			<point x="574" y="356" type="line" smooth="yes"/>
			<point x="600" y="536"/>
			<point x="496" y="657"/>
			<point x="331" y="657" type="curve" smooth="yes"/>
			<point x="191" y="657"/>
			<point x="83" y="572"/>
			<point x="61" y="421" type="curve" smooth="yes"/>
			<point x="59" y="407" type="line" smooth="yes"/>
			<point x="33" y="225"/>
			<point x="138" y="103"/>
		</contour>
		<contour>
			<point x="307" y="160" type="curve" smooth="yes"/>
			<point x="171" y="160"/>
			<point x="99" y="257"/>
			<point x="120" y="406" type="curve" smooth="yes"/>
			<point x="121" y="413" type="line" smooth="yes"/>
			<point x="138" y="534"/>
			<point x="213" y="600"/>
			<point x="327" y="600" type="curve" smooth="yes"/>
			<point x="463" y="600"/>
			<point x="535" y="504"/>
			<point x="514" y="356" type="curve" smooth="yes"/>
			<point x="513" y="349" type="line" smooth="yes"/>
			<point x="495" y="227"/>
			<point x="419" y="160"/>
		</contour>
		<contour>
			<point x="204" y="250" type="line"/>
			<point x="264" y="250" type="line"/>
			<point x="276" y="329" type="line"/>
			<point x="327" y="329" type="line" smooth="yes"/>
			<point x="395" y="329"/>
			<point x="441" y="366"/>
			<point x="441" y="427" type="curve" smooth="yes"/>
			<point x="441" y="479"/>
			<point x="406" y="511"/>
			<point x="340" y="511" type="curve" smooth="yes"/>
			<point x="241" y="511" type="line"/>
		</contour>
		<contour>
			<point x="333" y="465" type="line" smooth="yes"/>
			<point x="364" y="465"/>
			<point x="379" y="449"/>
			<point x="379" y="423" type="curve" smooth="yes"/>
			<point x="379" y="395"/>
			<point x="361" y="376"/>
			<point x="326" y="376" type="curve" smooth="yes"/>
			<point x="282" y="376" type="line"/>
			<point x="295" y="465" type="line"/>
		</contour>
	</outline>
</glyph>
<glyph name="ohm" format="2">
	<unicode hex="2126"/>
	<advance width="600"/>
	<outline>
		<contour>
			<point x="9" y="0" type="line"/>
			<point x="242" y="0" type="line"/>
			<point x="256" y="106" type="line"/>
			<point x="199" y="188"/>
			<point x="182" y="298"/>
			<point x="197" y="405" type="curve" smooth="yes"/>
			<point x="198" y="412" type="line" smooth="yes"/>
			<point x="215" y="532"/>
			<point x="260" y="594"/>
			<point x="339" y="594" type="curve" smooth="yes"/>
			<point x="438" y="594"/>
			<point x="461" y="511"/>
			<point x="443" y="385" type="curve" smooth="yes"/>
			<point x="442" y="378" type="line" smooth="yes"/>
			<point x="425" y="258"/>
			<point x="375" y="174"/>
			<point x="301" y="106" type="curve"/>
			<point x="285" y="0" type="line"/>
			<point x="517" y="0" type="line"/>
			<point x="532" y="105" type="line"/>
			<point x="423" y="105" type="line"/>
			<point x="497" y="168"/>
			<point x="554" y="255"/>
			<point x="570" y="372" type="curve" smooth="yes"/>
			<point x="572" y="386" type="line" smooth="yes"/>
			<point x="597" y="564"/>
			<point x="537" y="698"/>
			<point x="346" y="698" type="curve" smooth="yes"/>
			<point x="191" y="698"/>
			<point x="95" y="601"/>
			<point x="70" y="430" type="curve" smooth="yes"/>
			<point x="68" y="416" type="line" smooth="yes"/>
			<point x="50" y="291"/>
			<point x="77" y="178"/>
			<point x="137" y="105" type="curve"/>
			<point x="24" y="105" type="line"/>
		</contour>
	</outline>
</glyph>
<glyph name="arrowdown" format="2">
	<unicode hex="2193"/>
	<advance width="600"/>
	<outline>
		<contour>
			<point x="535" y="334" type="line"/>
			<point x="337" y="158" type="line"/>
			<point x="410" y="684" type="line"/>
			<point x="308" y="684" type="line"/>
			<point x="235" y="159" type="line"/>
			<point x="85" y="334" type="line"/>
			<point x="67" y="205" type="line"/>
			<point x="260" y="-19" type="line"/>
			<point x="517" y="207" type="line"/>
		</contour>
	</outline>
</glyph>
<glyph name="uni2196" format="2">
	<unicode hex="2196"/>
	<advance width="600"/>
	<outline>
		<contour>
			<point x="488" y="67" type="line"/>
			<point x="564" y="134" type="line"/>
			<point x="230" y="520" type="line"/>
			<point x="497" y="519" type="line"/>
			<point x="419" y="610" type="line"/>
			<point x="88" y="610" type="line"/>
			<point x="41" y="277" type="line"/>
			<point x="118" y="187" type="line"/>
			<point x="154" y="455" type="line"/>
		</contour>
	</outline>
</glyph>
<glyph name="partialdiff" format="2">
	<unicode hex="2202"/>
	<advance width="600"/>
	<outline>
		<contour>
			<point x="277" y="-13" type="curve" smooth="yes"/>
			<point x="432" y="-13"/>
			<point x="522" y="93"/>
			<point x="546" y="258" type="curve" smooth="yes"/>
			<point x="548" y="272" type="line" smooth="yes"/>
			<point x="576" y="458"/>
			<point x="494" y="598"/>
			<point x="382" y="684" type="curve"/>
			<point x="199" y="684" type="line"/>
			<point x="327" y="601"/>
			<point x="396" y="513"/>
			<point x="420" y="406" type="curve"/>
			<point x="387" y="462"/>
			<point x="336" y="503"/>
			<point x="261" y="503" type="curve" smooth="yes"/>
			<point x="159" y="503"/>
			<point x="76" y="422"/>
			<point x="57" y="285" type="curve" smooth="yes"/>
			<point x="55" y="271" type="line" smooth="yes"/>
			<point x="32" y="107"/>
			<point x="105" y="-13"/>
		</contour>
		<contour>
			<point x="284" y="85" type="curve" smooth="yes"/>
			<point x="208" y="85"/>
			<point x="166" y="145"/>
			<point x="182" y="260" type="curve" smooth="yes"/>
			<point x="183" y="267" type="line" smooth="yes"/>
			<point x="198" y="371"/>
			<point x="247" y="415"/>
			<point x="312" y="415" type="curve" smooth="yes"/>
			<point x="377" y="415"/>
			<point x="433" y="371"/>
			<point x="415" y="250" type="curve" smooth="yes"/>
			<point x="414" y="243" type="line" smooth="yes"/>
			<point x="400" y="146"/>
			<point x="357" y="85"/>
		</contour>
	</outline>
</glyph>
<glyph name="summation" format="2">
	<unicode hex="2211"/>
	<advance width="600"/>
	<outline>
		<contour>
			<point x="23" y="0" type="line"/>
			<point x="505" y="0" type="line"/>
			<point x="520" y="105" type="line"/>
			<point x="198" y="105" type="line"/>
			<point x="442" y="300" type="line"/>
			<point x="454" y="387" type="line"/>
			<point x="265" y="580" type="line"/>
			<point x="583" y="580" type="line"/>
			<point x="597" y="684" type="line"/>
			<point x="120" y="684" type="line"/>
			<point x="106" y="581" type="line"/>
			<point x="338" y="347" type="line"/>
			<point x="38" y="109" type="line"/>
		</contour>
	</outline>
</glyph>
<glyph name="minus" format="2">
	<unicode hex="2212"/>
	<advance width="600"/>
	<outline>
		<contour>
			<point x="66" y="244" type="line"/>
			<point x="528" y="244" type="line"/>
			<point x="543" y="350" type="line"/>
			<point x="81" y="350" type="line"/>
		</contour>
	</outline>
</glyph>
<glyph name="notequal" format="2">
	<unicode hex="2260"/>
	<advance width="600"/>
	<outline>
		<contour>
			<point x="89" y="56" type="line"/>
			<point x="182" y="56" type="line"/>
			<point x="234" y="130" type="line"/>
			<point x="512" y="130" type="line"/>
			<point x="527" y="236" type="line"/>
			<point x="309" y="236" type="line"/>
			<point x="389" y="350" type="line"/>
			<point x="543" y="350" type="line"/>
			<point x="558" y="456" type="line"/>
			<point x="464" y="456" type="line"/>
			<point x="516" y="530" type="line"/>
			<point x="423" y="530" type="line"/>
			<point x="371" y="456" type="line"/>
			<point x="96" y="456" type="line"/>
			<point x="81" y="350" type="line"/>
			<point x="296" y="350" type="line"/>
			<point x="216" y="236" type="line"/>
			<point x="65" y="236" type="line"/>
			<point x="50" y="130" type="line"/>
			<point x="141" y="130" type="line"/>
		</contour>
	</outline>
</glyph>
<glyph name="lozenge" format="2">
	<unicode hex="25CA"/>
	<advance width="600"/>
	<outline>
		<contour>
			<point x="185" y="0" type="line"/>
			<point x="343" y="0" type="line"/>
			<point x="588" y="336" type="line"/>
			<point x="440" y="684" type="line"/>
			<point x="280" y="684" type="line"/>
			<point x="34" y="344" type="line"/>
		</contour>
		<contour>
			<point x="169" y="341" type="line"/>
			<point x="351" y="597" type="line"/>
			<point x="454" y="344" type="line"/>
			<point x="274" y="88" type="line"/>
		</contour>
	</outline>
</glyph>
<glyph name="diamond" format="2">
	<unicode hex="2666"/>
	<advance width="600"/>
	<outline>
		<contour>
			<point x="125" y="364" type="line"/>
			<point x="446" y="-10" type="line"/>
			<point x="766" y="364" type="line"/>
			<point x="446" y="734" type="line"/>
		</contour>
	</outline>
</glyph>
<glyph name="uni267D" format="2">
	<unicode hex="267D"/>
	<advance width="600"/>
	<outline>
		<contour>
			<point x="749" y="354" type="curve" smooth="yes"/>
			<point x="749" y="542"/>
			<point x="598" y="694"/>
			<point x="412" y="694" type="curve" smooth="yes"/>
			<point x="224" y="694"/>
			<point x="72" y="542"/>
			<point x="72" y="354" type="curve" smooth="yes"/>
			<point x="72" y="167"/>
			<point x="224" y="17"/>
			<point x="412" y="17" type="curve" smooth="yes"/>
			<point x="598" y="17"/>
			<point x="749" y="167"/>
		</contour>
		<contour>
			<point x="732" y="354" type="curve" smooth="yes"/>
			<point x="732" y="176"/>
			<point x="589" y="33"/>
			<point x="412" y="33" type="curve" smooth="yes"/>
			<point x="233" y="33"/>
			<point x="89" y="176"/>
			<point x="89" y="354" type="curve" smooth="yes"/>
			<point x="89" y="533"/>
			<point x="233" y="677"/>
			<point x="412" y="677" type="curve" smooth="yes"/>
			<point x="589" y="677"/>
			<point x="732" y="533"/>
		</contour>
		<contour>
			<point x="355" y="611" type="line"/>
			<point x="355" y="611"/>
			<point x="396" y="607"/>
			<point x="415" y="574" type="curve" smooth="yes"/>
			<point x="463" y="492" type="line"/>
			<point x="436" y="476" type="line"/>
			<point x="549" y="455" type="line"/>
			<point x="589" y="565" type="line"/>
			<point x="561" y="549" type="line"/>
			<point x="542" y="581" type="line" smooth="yes"/>
			<point x="525" y="610"/>
			<point x="507" y="612"/>
			<point x="482" y="612" type="curve" smooth="yes"/>
			<point x="355" y="612" type="line"/>
		</contour>
		<contour>
			<point x="270" y="570" type="curve" smooth="yes"/>
			<point x="225" y="493" type="line"/>
			<point x="324" y="436" type="line"/>
			<point x="399" y="568" type="line"/>
			<point x="386" y="593"/>
			<point x="330" y="614"/>
			<point x="291" y="591" type="curve" smooth="yes"/>
			<point x="281" y="585"/>
			<point x="272" y="577"/>
		</contour>
		<contour>
			<point x="667" y="370" type="curve" smooth="yes"/>
			<point x="623" y="446" type="line"/>
			<point x="524" y="389" type="line"/>
			<point x="601" y="257" type="line"/>
			<point x="629" y="257"/>
			<point x="675" y="295"/>
			<point x="675" y="341" type="curve" smooth="yes"/>
			<point x="675" y="353"/>
			<point x="671" y="363"/>
		</contour>
		<contour>
			<point x="216" y="181" type="line"/>
			<point x="216" y="181"/>
			<point x="199" y="218"/>
			<point x="218" y="252" type="curve" smooth="yes"/>
			<point x="266" y="334" type="line"/>
			<point x="293" y="317" type="line"/>
			<point x="254" y="426" type="line"/>
			<point x="140" y="407" type="line"/>
			<point x="168" y="390" type="line"/>
			<point x="149" y="358" type="line" smooth="yes"/>
			<point x="131" y="328"/>
			<point x="141" y="312"/>
			<point x="152" y="290" type="curve"/>
			<point x="215" y="181" type="line"/>
		</contour>
		<contour>
			<point x="660" y="274" type="line"/>
			<point x="660" y="274"/>
			<point x="637" y="241"/>
			<point x="597" y="241" type="curve" smooth="yes"/>
			<point x="503" y="241" type="line"/>
			<point x="503" y="272" type="line"/>
			<point x="428" y="184" type="line"/>
			<point x="503" y="95" type="line"/>
			<point x="503" y="128" type="line"/>
			<point x="540" y="128" type="line" smooth="yes"/>
			<point x="575" y="128"/>
			<point x="585" y="144"/>
			<point x="597" y="164" type="curve" smooth="yes"/>
			<point x="661" y="273" type="line"/>
		</contour>
		<contour>
			<point x="295" y="128" type="curve" smooth="yes"/>
			<point x="384" y="128" type="line"/>
			<point x="384" y="241" type="line"/>
			<point x="231" y="241" type="line"/>
			<point x="216" y="216"/>
			<point x="226" y="159"/>
			<point x="266" y="136" type="curve" smooth="yes"/>
			<point x="276" y="130"/>
			<point x="288" y="128"/>
		</contour>
	</outline>
</glyph>
<glyph name="anglebracketleft" format="2">
	<unicode hex="3008"/>
	<advance width="600"/>
	<outline>
		<contour>
			<point x="349" y="-163" type="line"/>
			<point x="479" y="-163" type="line"/>
			<point x="260" y="309" type="line"/>
			<point x="618" y="792" type="line"/>
			<point x="482" y="792" type="line"/>
			<point x="130" y="316" type="line"/>
		</contour>
	</outline>
</glyph>
<glyph name="anglebracketright" format="2">
	<unicode hex="3009"/>
	<advance width="600"/>
	<outline>
		<contour>
			<point x="-3" y="-163" type="line"/>
			<point x="135" y="-163" type="line"/>
			<point x="486" y="314" type="line"/>
			<point x="262" y="792" type="line"/>
			<point x="136" y="792" type="line"/>
			<point x="355" y="324" type="line"/>
		</contour>
	</outline>
</glyph>
<glyph name="commaaccent" format="2">
	<unicode hex="F6C3"/>
	<advance width="600"/>
	<outline>
		<contour>
			<point x="159" y="-279" type="curve"/>
			<point x="240" y="-279" type="line"/>
			<point x="278" y="-246"/>
			<point x="307" y="-200"/>
			<point x="316" y="-146" type="curve" smooth="yes"/>
			<point x="327" y="-84"/>
			<point x="308" y="-56"/>
			<point x="247" y="-56" type="curve" smooth="yes"/>
			<point x="198" y="-56"/>
			<point x="178" y="-75"/>
			<point x="172" y="-116" type="curve" smooth="yes"/>
			<point x="168" y="-154"/>
			<point x="182" y="-176"/>
			<point x="219" y="-179" type="curve"/>
			<point x="207" y="-212"/>
			<point x="185" y="-248"/>
		</contour>
	</outline>
	<anchor name="_bottom" x="263" y="0"/>
</glyph>
<glyph name="Lslashcomb" format="2">
	<advance width="600"/>
	<outline>
		<contour>
			<point x="19" y="401" type="line"/>
			<point x="6" y="308" type="line"/>
			<point x="405" y="454" type="line"/>
			<point x="418" y="547" type="line"/>
		</contour>
	</outline>
	<anchor name="_center" x="162" y="405"/>
</glyph>
<glyph name="ampersand_ampersand.cLig" format="2">
	<advance width="600"/>
	<outline>
		<contour>
			<point x="-318" y="-14" type="curve" smooth="yes"/>
			<point x="-236" y="-14"/>
			<point x="-161" y="21"/>
			<point x="-104" y="79" type="curve"/>
			<point x="-72" y="22"/>
			<point x="-8" y="-14"/>
			<point x="79" y="-14" type="curve" smooth="yes"/>
			<point x="164" y="-14"/>
			<point x="234" y="15"/>
			<point x="293" y="65" type="curve"/>
			<point x="346" y="0" type="line"/>
			<point x="485" y="0" type="line"/>
			<point x="367" y="148" type="line"/>
			<point x="414" y="217"/>
			<point x="450" y="303"/>
			<point x="474" y="398" type="curve"/>
			<point x="369" y="398" type="line"/>
			<point x="352" y="331"/>
			<point x="331" y="273"/>
			<point x="305" y="226" type="curve"/>
			<point x="177" y="386" type="line" smooth="yes"/>
			<point x="143" y="428"/>
			<point x="128" y="461"/>
			<point x="130" y="501" type="curve" smooth="yes"/>
			<point x="133" y="559"/>
			<point x="171" y="596"/>
			<point x="237" y="596" type="curve" smooth="yes"/>
			<point x="289" y="596"/>
			<point x="340" y="571"/>
			<point x="376" y="543" type="curve"/>
			<point x="391" y="650" type="line"/>
			<point x="358" y="676"/>
			<point x="298" y="698"/>
			<point x="235" y="698" type="curve" smooth="yes"/>
			<point x="100" y="698"/>
			<point x="22" y="616"/>
			<point x="14" y="509" type="curve" smooth="yes"/>
			<point x="11" y="473"/>
			<point x="17" y="439"/>
			<point x="30" y="407" type="curve"/>
			<point x="-35" y="375"/>
			<point x="-90" y="324"/>
			<point x="-114" y="251" type="curve"/>
			<point x="-226" y="386" type="line" smooth="yes"/>
			<point x="-260" y="427"/>
			<point x="-274" y="461"/>
			<point x="-272" y="501" type="curve" smooth="yes"/>
			<point x="-270" y="559"/>
			<point x="-232" y="596"/>
			<point x="-169" y="596" type="curve" smooth="yes"/>
			<point x="-117" y="596"/>
			<point x="-68" y="572"/>
			<point x="-35" y="546" type="curve"/>
			<point x="-20" y="653" type="line"/>
			<point x="-52" y="677"/>
			<point x="-106" y="698"/>
			<point x="-171" y="698" type="curve" smooth="yes"/>
			<point x="-302" y="698"/>
			<point x="-381" y="616"/>
			<point x="-389" y="509" type="curve" smooth="yes"/>
			<point x="-391" y="472"/>
			<point x="-385" y="437"/>
			<point x="-372" y="405" type="curve"/>
			<point x="-454" y="365"/>
			<point x="-518" y="294"/>
			<point x="-526" y="188" type="curve" smooth="yes"/>
			<point x="-534" y="71"/>
			<point x="-455" y="-14"/>
		</contour>
		<contour>
			<point x="-16" y="196" type="curve" smooth="yes"/>
			<point x="-14" y="260"/>
			<point x="25" y="308"/>
			<point x="77" y="330" type="curve"/>
			<point x="79" y="328"/>
			<point x="80" y="326"/>
			<point x="82" y="324" type="curve" smooth="yes"/>
			<point x="236" y="135" type="line"/>
			<point x="198" y="101"/>
			<point x="154" y="83"/>
			<point x="105" y="83" type="curve" smooth="yes"/>
			<point x="21" y="83"/>
			<point x="-20" y="131"/>
		</contour>
		<contour>
			<point x="-415" y="196" type="curve" smooth="yes"/>
			<point x="-413" y="259"/>
			<point x="-375" y="306"/>
			<point x="-325" y="329" type="curve"/>
			<point x="-323" y="327"/>
			<point x="-322" y="326"/>
			<point x="-321" y="324" type="curve" smooth="yes"/>
			<point x="-164" y="143" type="line"/>
			<point x="-203" y="104"/>
			<point x="-248" y="83"/>
			<point x="-298" y="83" type="curve" smooth="yes"/>
			<point x="-380" y="83"/>
			<point x="-419" y="131"/>
		</contour>
	</outline>
</glyph>
<glyph name="aogonek.001" format="2">
	<advance width="600"/>
	<outline>
		<contour>
			<point x="211" y="-14" type="curve" smooth="yes"/>
			<point x="280" y="-14"/>
			<point x="340" y="22"/>
			<point x="382" y="106" type="curve"/>
			<point x="367" y="0" type="line"/>
			<point x="400" y="0" type="line"/>
			<point x="330" y="-25"/>
			<point x="289" y="-65"/>
			<point x="289" y="-120" type="curve" smooth="yes"/>
			<point x="289" y="-177"/>
			<point x="331" y="-203"/>
			<point x="406" y="-203" type="curve" smooth="yes"/>
			<point x="431" y="-203"/>
			<point x="457" y="-198"/>
			<point x="469" y="-193" type="curve"/>
			<point x="481" y="-114" type="line"/>
			<point x="474" y="-116"/>
			<point x="460" y="-119"/>
			<point x="445" y="-119" type="curve" smooth="yes"/>
			<point x="415" y="-119"/>
			<point x="395" y="-108"/>
			<point x="395" y="-82" type="curve" smooth="yes"/>
			<point x="395" y="-51"/>
			<point x="420" y="-22"/>
			<point x="488" y="0" type="curve"/>
			<point x="561" y="523" type="line"/>
			<point x="371" y="523" type="line" smooth="yes"/>
			<point x="192" y="523"/>
			<point x="80" y="423"/>
			<point x="56" y="261" type="curve" smooth="yes"/>
			<point x="54" y="247" type="line" smooth="yes"/>
			<point x="31" y="83"/>
			<point x="93" y="-14"/>
		</contour>
		<contour>
			<point x="182" y="252" type="curve" smooth="yes"/>
			<point x="183" y="259" type="line"/>
			<point x="199" y="373"/>
			<point x="259" y="425"/>
			<point x="361" y="425" type="curve" smooth="yes"/>
			<point x="423" y="425" type="line"/>
			<point x="394" y="217" type="line" smooth="yes"/>
			<point x="383" y="138"/>
			<point x="339" y="85"/>
			<point x="273" y="85" type="curve" smooth="yes"/>
			<point x="201" y="85"/>
			<point x="167" y="146"/>
		</contour>
	</outline>
</glyph>
<glyph name="asciitilde_asciitilde_asciitilde.rem" format="2">
	<advance width="600"/>
	<outline>
		<contour>
			<point x="-594" y="196" type="curve"/>
			<point x="-486" y="196"/>
			<point x="-456" y="320"/>
			<point x="-382" y="320" type="curve" smooth="yes"/>
			<point x="-305" y="320"/>
			<point x="-293" y="196"/>
			<point x="-179" y="196" type="curve" smooth="yes"/>
			<point x="-68" y="196"/>
			<point x="-39" y="320"/>
			<point x="36" y="320" type="curve"/>
			<point x="116" y="320"/>
			<point x="127" y="196"/>
			<point x="246" y="196" type="curve"/>
			<point x="341" y="196"/>
			<point x="421" y="278"/>
			<point x="452" y="428" type="curve"/>
			<point x="350" y="428" type="line"/>
			<point x="331" y="360"/>
			<point x="300" y="313"/>
			<point x="244" y="313" type="curve"/>
			<point x="166" y="313"/>
			<point x="168" y="434"/>
			<point x="46" y="434" type="curve"/>
			<point x="-69" y="434"/>
			<point x="-98" y="313"/>
			<point x="-170" y="313" type="curve" smooth="yes"/>
			<point x="-250" y="313"/>
			<point x="-247" y="434"/>
			<point x="-371" y="434" type="curve" smooth="yes"/>
			<point x="-486" y="434"/>
			<point x="-513" y="313"/>
			<point x="-583" y="313" type="curve"/>
			<point x="-665" y="313"/>
			<point x="-677" y="434"/>
			<point x="-793" y="434" type="curve"/>
			<point x="-892" y="434"/>
			<point x="-969" y="354"/>
			<point x="-1001" y="203" type="curve"/>
			<point x="-897" y="203" type="line"/>
			<point x="-879" y="271"/>
			<point x="-853" y="319"/>
			<point x="-796" y="319" type="curve"/>
			<point x="-716" y="319"/>
			<point x="-714" y="196"/>
		</contour>
	</outline>
</glyph>
<glyph name="asciitilde_equal.cLig.x" format="2">
	<advance width="600"/>
	<outline>
		<contour>
			<point x="-312" y="319" type="line"/>
			<point x="-261" y="381"/>
			<point x="-199" y="405"/>
			<point x="-137" y="405" type="curve" smooth="yes"/>
			<point x="-31" y="405"/>
			<point x="30" y="311"/>
			<point x="166" y="311" type="curve" smooth="yes"/>
			<point x="240" y="311"/>
			<point x="300" y="340"/>
			<point x="338" y="387" type="curve"/>
			<point x="354" y="506" type="line"/>
			<point x="291" y="434"/>
			<point x="239" y="418"/>
			<point x="173" y="420" type="curve" smooth="yes"/>
			<point x="73" y="422"/>
			<point x="2" y="513"/>
			<point x="-124" y="513" type="curve" smooth="yes"/>
			<point x="-191" y="513"/>
			<point x="-258" y="485"/>
			<point x="-295" y="438" type="curve"/>
		</contour>
		<contour>
			<point x="-338" y="132" type="line"/>
			<point x="302" y="132" type="line"/>
			<point x="317" y="238" type="line"/>
			<point x="-323" y="238" type="line"/>
		</contour>
	</outline>
</glyph>
<glyph name="asciitilde_greater.cLig" format="2">
	<advance width="600"/>
	<outline>
		<contour>
			<point x="144" y="629" type="line"/>
			<point x="338" y="370" type="line"/>
			<point x="327" y="370" type="line"/>
			<point x="327" y="371" type="line"/>
			<point x="-91" y="371" type="line"/>
			<point x="-101" y="329"/>
			<point x="-120" y="301"/>
			<point x="-158" y="301" type="curve" smooth="yes"/>
			<point x="-223" y="301"/>
			<point x="-243" y="425"/>
			<point x="-349" y="425" type="curve" smooth="yes"/>
			<point x="-432" y="425"/>
			<point x="-493" y="369"/>
			<point x="-513" y="206" type="curve"/>
			<point x="-415" y="206" type="line"/>
			<point x="-407" y="277"/>
			<point x="-387" y="311"/>
			<point x="-349" y="311" type="curve" smooth="yes"/>
			<point x="-288" y="311"/>
			<point x="-261" y="190"/>
			<point x="-154" y="190" type="curve" smooth="yes"/>
			<point x="-106" y="190"/>
			<point x="-65" y="210"/>
			<point x="-38" y="258" type="curve"/>
			<point x="-18" y="258" type="line"/>
			<point x="314" y="257" type="line"/>
			<point x="51" y="0" type="line"/>
			<point x="199" y="0" type="line"/>
			<point x="515" y="314" type="line"/>
			<point x="282" y="629" type="line"/>
		</contour>
	</outline>
</glyph>
<glyph name="aster_comp" format="2">
	<advance width="600"/>
	<outline>
		<contour>
			<point x="245" y="528" type="curve" smooth="yes"/>
			<point x="210" y="311" type="line"/>
			<point x="323" y="311" type="line"/>
			<point x="288" y="528" type="line" smooth="yes"/>
			<point x="286" y="540"/>
			<point x="281" y="547"/>
			<point x="275" y="550" type="curve"/>
			<point x="281" y="553"/>
			<point x="286" y="560"/>
			<point x="289" y="572" type="curve" smooth="yes"/>
			<point x="323" y="788" type="line"/>
			<point x="210" y="788" type="line"/>
			<point x="245" y="572" type="line" smooth="yes"/>
			<point x="248" y="560"/>
			<point x="253" y="553"/>
			<point x="259" y="550" type="curve"/>
			<point x="252" y="547"/>
			<point x="247" y="540"/>
		</contour>
	</outline>
</glyph>
<glyph name="asterisk_asterisk.cLig" format="2">
	<advance width="600"/>
	<outline>
		<contour>
			<point x="-115" y="147" type="line"/>
			<point x="-41" y="252" type="line"/>
			<point x="-212" y="321" type="line"/>
			<point x="-19" y="389" type="line"/>
			<point x="-65" y="494" type="line"/>
			<point x="-235" y="370" type="line"/>
			<point x="-175" y="564" type="line"/>
			<point x="-296" y="564" type="line"/>
			<point x="-293" y="371" type="line"/>
			<point x="-428" y="496" type="line"/>
			<point x="-503" y="391" type="line"/>
			<point x="-327" y="321" type="line"/>
			<point x="-522" y="251" type="line"/>
			<point x="-476" y="146" type="line"/>
			<point x="-306" y="271" type="line"/>
			<point x="-364" y="76" type="line"/>
			<point x="-243" y="76" type="line"/>
			<point x="-248" y="271" type="line"/>
		</contour>
		<contour>
			<point x="443" y="146" type="line"/>
			<point x="517" y="251" type="line"/>
			<point x="346" y="320" type="line"/>
			<point x="539" y="388" type="line"/>
			<point x="493" y="493" type="line"/>
			<point x="323" y="369" type="line"/>
			<point x="383" y="563" type="line"/>
			<point x="262" y="563" type="line"/>
			<point x="265" y="370" type="line"/>
			<point x="130" y="495" type="line"/>
			<point x="55" y="390" type="line"/>
			<point x="231" y="320" type="line"/>
			<point x="36" y="250" type="line"/>
			<point x="82" y="145" type="line"/>
			<point x="252" y="270" type="line"/>
			<point x="194" y="75" type="line"/>
			<point x="315" y="75" type="line"/>
			<point x="310" y="270" type="line"/>
		</contour>
	</outline>
</glyph>
<glyph name="asterisk_greater.cLig" format="2">
	<advance width="600"/>
	<outline>
		<contour>
			<point x="102" y="639" type="line"/>
			<point x="84" y="520" type="line"/>
			<point x="414" y="319" type="line"/>
			<point x="29" y="122" type="line"/>
			<point x="10" y="-8" type="line"/>
			<point x="493" y="247" type="line"/>
			<point x="512" y="385" type="line"/>
		</contour>
		<contour>
			<point x="-403" y="486" type="line"/>
			<point x="-477" y="381" type="line"/>
			<point x="-305" y="313" type="line"/>
			<point x="-499" y="244" type="line"/>
			<point x="-453" y="139" type="line"/>
			<point x="-283" y="263" type="line"/>
			<point x="-343" y="69" type="line"/>
			<point x="-222" y="69" type="line"/>
			<point x="-225" y="262" type="line"/>
			<point x="-90" y="137" type="line"/>
			<point x="-15" y="242" type="line"/>
			<point x="-190" y="312" type="line"/>
			<point x="4" y="382" type="line"/>
			<point x="-42" y="487" type="line"/>
			<point x="-212" y="362" type="line"/>
			<point x="-154" y="557" type="line"/>
			<point x="-275" y="557" type="line"/>
			<point x="-269" y="363" type="line"/>
		</contour>
	</outline>
</glyph>
<glyph name="asterisk_slash.cLig" format="2">
	<advance width="600"/>
	<outline>
		<contour>
			<point x="-86" y="147" type="line"/>
			<point x="-12" y="252" type="line"/>
			<point x="-183" y="321" type="line"/>
			<point x="10" y="389" type="line"/>
			<point x="-36" y="494" type="line"/>
			<point x="-206" y="370" type="line"/>
			<point x="-146" y="564" type="line"/>
			<point x="-267" y="564" type="line"/>
			<point x="-264" y="371" type="line"/>
			<point x="-399" y="496" type="line"/>
			<point x="-474" y="391" type="line"/>
			<point x="-298" y="321" type="line"/>
			<point x="-493" y="251" type="line"/>
			<point x="-447" y="146" type="line"/>
			<point x="-277" y="271" type="line"/>
			<point x="-335" y="76" type="line"/>
			<point x="-214" y="76" type="line"/>
			<point x="-219" y="271" type="line"/>
		</contour>
		<contour>
			<point x="433" y="792" type="line"/>
			<point x="-56" y="-163" type="line"/>
			<point x="71" y="-163" type="line"/>
			<point x="561" y="792" type="line"/>
		</contour>
	</outline>
</glyph>
<glyph name="backslash_slash.cLig" format="2">
	<advance width="600"/>
	<outline>
		<contour>
			<point x="-143" y="-163" type="line"/>
			<point x="31" y="-163" type="line"/>
			<point x="521" y="792" type="line"/>
			<point x="393" y="792" type="line"/>
			<point x="-47" y="-67" type="line"/>
			<point x="-252" y="792" type="line"/>
			<point x="-371" y="792" type="line"/>
		</contour>
	</outline>
</glyph>
<glyph name="bar_bar_equal.fina" format="2">
	<advance width="600"/>
	<outline>
		<contour>
			<point x="-615" y="151" type="line"/>
			<point x="-145" y="151" type="line"/>
			<point x="-174" y="-55" type="line"/>
			<point x="-56" y="-55" type="line"/>
			<point x="48" y="684" type="line"/>
			<point x="-70" y="684" type="line"/>
			<point x="-99" y="478" type="line"/>
			<point x="-569" y="478" type="line"/>
			<point x="-584" y="371" type="line"/>
			<point x="-114" y="371" type="line"/>
			<point x="-130" y="258" type="line"/>
			<point x="-600" y="258" type="line"/>
		</contour>
		<contour>
			<point x="310" y="684" type="line"/>
			<point x="206" y="-55" type="line"/>
			<point x="324" y="-55" type="line"/>
			<point x="428" y="684" type="line"/>
		</contour>
	</outline>
</glyph>
<glyph name="bar_bar_equal.med" format="2">
	<advance width="600"/>
	<outline>
		<contour>
			<point x="86" y="-55" type="line"/>
			<point x="204" y="-55" type="line"/>
			<point x="233" y="151" type="line"/>
			<point x="584" y="151" type="line"/>
			<point x="599" y="258" type="line"/>
			<point x="248" y="258" type="line"/>
			<point x="264" y="371" type="line"/>
			<point x="615" y="371" type="line"/>
			<point x="630" y="478" type="line"/>
			<point x="279" y="478" type="line"/>
			<point x="308" y="684" type="line"/>
			<point x="190" y="684" type="line"/>
		</contour>
		<contour>
			<point x="-616" y="151" type="line"/>
			<point x="-264" y="151" type="line"/>
			<point x="-293" y="-55" type="line"/>
			<point x="-176" y="-55" type="line"/>
			<point x="-72" y="684" type="line"/>
			<point x="-189" y="684" type="line"/>
			<point x="-218" y="478" type="line"/>
			<point x="-569" y="478" type="line"/>
			<point x="-585" y="371" type="line"/>
			<point x="-233" y="371" type="line"/>
			<point x="-249" y="258" type="line"/>
			<point x="-600" y="258" type="line"/>
		</contour>
	</outline>
</glyph>
<glyph name="bar_bar_greater.cLig" format="2">
	<advance width="600"/>
	<outline>
		<contour>
			<point x="-807" y="708" type="line"/>
			<point x="-917" y="-79" type="line"/>
			<point x="-800" y="-79" type="line"/>
			<point x="-690" y="708" type="line"/>
		</contour>
		<contour>
			<point x="-357" y="-79" type="line"/>
			<point x="-240" y="-79" type="line"/>
			<point x="335" y="245" type="line"/>
			<point x="354" y="383" type="line"/>
			<point x="-130" y="708" type="line"/>
			<point x="-247" y="708" type="line"/>
		</contour>
		<contour>
			<point x="-152" y="582" type="line"/>
			<point x="246" y="321" type="line"/>
			<point x="-224" y="60" type="line"/>
		</contour>
	</outline>
</glyph>
<glyph name="bar_bar_hyphen.med" format="2">
	<advance width="600"/>
	<outline>
		<contour>
			<point x="87" y="-55" type="line"/>
			<point x="204" y="-55" type="line"/>
			<point x="248" y="257" type="line"/>
			<point x="599" y="257" type="line"/>
			<point x="615" y="370" type="line"/>
			<point x="264" y="370" type="line"/>
			<point x="308" y="684" type="line"/>
			<point x="191" y="684" type="line"/>
		</contour>
		<contour>
			<point x="-601" y="257" type="line"/>
			<point x="-249" y="257" type="line"/>
			<point x="-293" y="-55" type="line"/>
			<point x="-176" y="-55" type="line"/>
			<point x="-72" y="684" type="line"/>
			<point x="-189" y="684" type="line"/>
			<point x="-233" y="370" type="line"/>
			<point x="-585" y="370" type="line"/>
		</contour>
	</outline>
</glyph>
<glyph name="bar_braceright.cLig" format="2">
	<advance width="600"/>
	<outline>
		<contour>
			<point x="285" y="792" type="curve" smooth="yes"/>
			<point x="14" y="792" type="line"/>
			<point x="2" y="700" type="line"/>
			<point x="230" y="700" type="line" smooth="yes"/>
			<point x="282" y="700"/>
			<point x="309" y="681"/>
			<point x="309" y="641" type="curve" smooth="yes"/>
			<point x="309" y="558"/>
			<point x="180" y="519"/>
			<point x="180" y="416" type="curve" smooth="yes"/>
			<point x="180" y="368"/>
			<point x="220" y="329"/>
			<point x="279" y="316" type="curve"/>
			<point x="219" y="308"/>
			<point x="148" y="274"/>
			<point x="148" y="194" type="curve" smooth="yes"/>
			<point x="148" y="118"/>
			<point x="221" y="60"/>
			<point x="221" y="-3" type="curve" smooth="yes"/>
			<point x="220" y="-55"/>
			<point x="185" y="-71"/>
			<point x="127" y="-71" type="curve" smooth="yes"/>
			<point x="-107" y="-71" type="line"/>
			<point x="-120" y="-163" type="line"/>
			<point x="172" y="-163" type="line" smooth="yes"/>
			<point x="278" y="-163"/>
			<point x="345" y="-105"/>
			<point x="345" y="-20" type="curve" smooth="yes"/>
			<point x="345" y="65"/>
			<point x="272" y="131"/>
			<point x="272" y="192" type="curve" smooth="yes"/>
			<point x="272" y="231"/>
			<point x="300" y="262"/>
			<point x="344" y="262" type="curve" smooth="yes"/>
			<point x="438" y="262" type="line"/>
			<point x="453" y="370" type="line"/>
			<point x="370" y="370" type="line" smooth="yes"/>
			<point x="325" y="370"/>
			<point x="310" y="398"/>
			<point x="309" y="424" type="curve" smooth="yes"/>
			<point x="309" y="499"/>
			<point x="441" y="542"/>
			<point x="441" y="664" type="curve" smooth="yes"/>
			<point x="441" y="736"/>
			<point x="392" y="792"/>
		</contour>
		<contour>
			<point x="-308" y="-163" type="line"/>
			<point x="-174" y="792" type="line"/>
			<point x="-291" y="792" type="line"/>
			<point x="-425" y="-163" type="line"/>
		</contour>
	</outline>
</glyph>
<glyph name="bar_equal.fina" format="2">
	<advance width="600"/>
	<outline>
		<contour>
			<point x="-15" y="151" type="line"/>
			<point x="335" y="151" type="line"/>
			<point x="306" y="-55" type="line"/>
			<point x="424" y="-55" type="line"/>
			<point x="528" y="684" type="line"/>
			<point x="410" y="684" type="line"/>
			<point x="381" y="478" type="line"/>
			<point x="31" y="478" type="line"/>
			<point x="16" y="371" type="line"/>
			<point x="366" y="371" type="line"/>
			<point x="350" y="258" type="line"/>
			<point x="0" y="258" type="line"/>
		</contour>
	</outline>
</glyph>
<glyph name="bar_equal.init" format="2">
	<advance width="600"/>
	<outline>
		<contour>
			<point x="187" y="684" type="line"/>
			<point x="83" y="-55" type="line"/>
			<point x="201" y="-55" type="line"/>
			<point x="230" y="151" type="line"/>
			<point x="584" y="151" type="line"/>
			<point x="599" y="258" type="line"/>
			<point x="245" y="258" type="line"/>
			<point x="261" y="371" type="line"/>
			<point x="615" y="371" type="line"/>
			<point x="630" y="478" type="line"/>
			<point x="276" y="478" type="line"/>
			<point x="305" y="684" type="line"/>
		</contour>
	</outline>
</glyph>
<glyph name="bar_hyphen.med" format="2">
	<advance width="600"/>
	<outline>
		<contour>
			<point x="197" y="-55" type="line"/>
			<point x="315" y="-55" type="line"/>
			<point x="359" y="257" type="line"/>
			<point x="599" y="257" type="line"/>
			<point x="615" y="370" type="line"/>
			<point x="375" y="370" type="line"/>
			<point x="419" y="684" type="line"/>
			<point x="301" y="684" type="line"/>
			<point x="257" y="370" type="line"/>
			<point x="15" y="370" type="line"/>
			<point x="-1" y="257" type="line"/>
			<point x="241" y="257" type="line"/>
		</contour>
	</outline>
</glyph>
<glyph name="bar_hyphen.rem" format="2">
	<advance width="600"/>
	<outline>
		<contour>
			<point x="-297" y="-56" type="line"/>
			<point x="-253" y="258" type="line"/>
			<point x="435" y="258" type="line"/>
			<point x="451" y="371" type="line"/>
			<point x="-237" y="371" type="line"/>
			<point x="-193" y="684" type="line"/>
			<point x="-311" y="684" type="line"/>
			<point x="-415" y="-56" type="line"/>
		</contour>
	</outline>
</glyph>
<glyph name="bar_hyphen_greater.rem" format="2">
	<advance width="600"/>
	<outline>
		<contour>
			<point x="-1072" y="0" type="line"/>
			<point x="-954" y="0" type="line"/>
			<point x="-918" y="258" type="line"/>
			<point x="-73" y="258" type="line"/>
			<point x="259" y="257" type="line"/>
			<point x="-4" y="0" type="line"/>
			<point x="144" y="0" type="line"/>
			<point x="460" y="314" type="line"/>
			<point x="227" y="629" type="line"/>
			<point x="89" y="629" type="line"/>
			<point x="283" y="370" type="line"/>
			<point x="15" y="371" type="line"/>
			<point x="-903" y="371" type="line"/>
			<point x="-866" y="629" type="line"/>
			<point x="-984" y="629" type="line"/>
		</contour>
	</outline>
</glyph>
<glyph name="braceleft_braceleft.cLig" format="2">
	<advance width="600"/>
	<outline>
		<contour>
			<point x="-103" y="-163" type="line"/>
			<point x="-91" y="-71" type="line"/>
			<point x="-213" y="-71" type="line" smooth="yes"/>
			<point x="-265" y="-71"/>
			<point x="-292" y="-52"/>
			<point x="-292" y="-12" type="curve" smooth="yes"/>
			<point x="-292" y="71"/>
			<point x="-164" y="110"/>
			<point x="-164" y="213" type="curve" smooth="yes"/>
			<point x="-164" y="261"/>
			<point x="-204" y="301"/>
			<point x="-264" y="313" type="curve"/>
			<point x="-204" y="321"/>
			<point x="-131" y="354"/>
			<point x="-131" y="435" type="curve" smooth="yes"/>
			<point x="-131" y="510"/>
			<point x="-204" y="569"/>
			<point x="-204" y="632" type="curve" smooth="yes"/>
			<point x="-204" y="684"/>
			<point x="-168" y="700"/>
			<point x="-110" y="700" type="curve" smooth="yes"/>
			<point x="223" y="700" type="line"/>
			<point x="168" y="687"/>
			<point x="139" y="658"/>
			<point x="139" y="611" type="curve" smooth="yes"/>
			<point x="139" y="543"/>
			<point x="213" y="490"/>
			<point x="213" y="431" type="curve" smooth="yes"/>
			<point x="213" y="393"/>
			<point x="185" y="367"/>
			<point x="131" y="367" type="curve" smooth="yes"/>
			<point x="29" y="367" type="line"/>
			<point x="14" y="259" type="line"/>
			<point x="105" y="259" type="line" smooth="yes"/>
			<point x="159" y="259"/>
			<point x="177" y="236"/>
			<point x="177" y="209" type="curve"/>
			<point x="177" y="131"/>
			<point x="44" y="86"/>
			<point x="44" y="-35" type="curve" smooth="yes"/>
			<point x="44" y="-106"/>
			<point x="93" y="-163"/>
			<point x="199" y="-163" type="curve" smooth="yes"/>
			<point x="394" y="-163" type="line"/>
			<point x="407" y="-71" type="line"/>
			<point x="255" y="-71" type="line" smooth="yes"/>
			<point x="203" y="-71"/>
			<point x="176" y="-52"/>
			<point x="176" y="-12" type="curve" smooth="yes"/>
			<point x="176" y="69"/>
			<point x="305" y="114"/>
			<point x="305" y="216" type="curve"/>
			<point x="305" y="264"/>
			<point x="265" y="301"/>
			<point x="205" y="313" type="curve"/>
			<point x="265" y="320"/>
			<point x="338" y="349"/>
			<point x="338" y="432" type="curve" smooth="yes"/>
			<point x="338" y="506"/>
			<point x="265" y="562"/>
			<point x="265" y="629" type="curve" smooth="yes"/>
			<point x="265" y="677"/>
			<point x="301" y="700"/>
			<point x="364" y="700" type="curve" smooth="yes"/>
			<point x="515" y="700" type="line"/>
			<point x="528" y="792" type="line"/>
			<point x="-156" y="792" type="line" smooth="yes"/>
			<point x="-261" y="792"/>
			<point x="-328" y="734"/>
			<point x="-328" y="649" type="curve" smooth="yes"/>
			<point x="-328" y="564"/>
			<point x="-256" y="498"/>
			<point x="-256" y="437" type="curve" smooth="yes"/>
			<point x="-256" y="398"/>
			<point x="-284" y="367"/>
			<point x="-327" y="367" type="curve" smooth="yes"/>
			<point x="-432" y="367" type="line"/>
			<point x="-446" y="259" type="line"/>
			<point x="-354" y="259" type="line" smooth="yes"/>
			<point x="-308" y="259"/>
			<point x="-292" y="231"/>
			<point x="-292" y="205" type="curve" smooth="yes"/>
			<point x="-292" y="130"/>
			<point x="-424" y="86"/>
			<point x="-424" y="-35" type="curve" smooth="yes"/>
			<point x="-424" y="-106"/>
			<point x="-375" y="-163"/>
			<point x="-269" y="-163" type="curve" smooth="yes"/>
		</contour>
	</outline>
</glyph>
<glyph name="braceleft_numbersign.cLig" format="2">
	<advance width="600"/>
	<outline>
		<contour>
			<point x="-492" y="260" type="line"/>
			<point x="-411" y="260" type="line" smooth="yes"/>
			<point x="-365" y="260"/>
			<point x="-349" y="231"/>
			<point x="-349" y="205" type="curve" smooth="yes"/>
			<point x="-349" y="130"/>
			<point x="-481" y="86"/>
			<point x="-481" y="-35" type="curve" smooth="yes"/>
			<point x="-481" y="-106"/>
			<point x="-432" y="-163"/>
			<point x="-325" y="-163" type="curve" smooth="yes"/>
			<point x="-160" y="-163" type="line"/>
			<point x="-148" y="-72" type="line"/>
			<point x="-270" y="-72" type="line" smooth="yes"/>
			<point x="-323" y="-72"/>
			<point x="-350" y="-53"/>
			<point x="-350" y="-12" type="curve" smooth="yes"/>
			<point x="-350" y="71"/>
			<point x="-221" y="110"/>
			<point x="-221" y="213" type="curve" smooth="yes"/>
			<point x="-221" y="261"/>
			<point x="-263" y="301"/>
			<point x="-322" y="313" type="curve"/>
			<point x="-262" y="320"/>
			<point x="-189" y="354"/>
			<point x="-189" y="435" type="curve" smooth="yes"/>
			<point x="-189" y="510"/>
			<point x="-262" y="569"/>
			<point x="-262" y="633" type="curve" smooth="yes"/>
			<point x="-262" y="684"/>
			<point x="-225" y="701"/>
			<point x="-167" y="701" type="curve" smooth="yes"/>
			<point x="-39" y="701" type="line"/>
			<point x="-26" y="792" type="line"/>
			<point x="-212" y="792" type="line" smooth="yes"/>
			<point x="-318" y="792"/>
			<point x="-385" y="734"/>
			<point x="-385" y="649" type="curve" smooth="yes"/>
			<point x="-385" y="564"/>
			<point x="-313" y="498"/>
			<point x="-313" y="437" type="curve" smooth="yes"/>
			<point x="-313" y="398"/>
			<point x="-340" y="367"/>
			<point x="-384" y="367" type="curve" smooth="yes"/>
			<point x="-478" y="367" type="line"/>
		</contour>
		<contour>
			<point x="-92" y="256" type="line"/>
			<point x="-106" y="161" type="line"/>
			<point x="13" y="161" type="line"/>
			<point x="-25" y="0" type="line"/>
			<point x="74" y="0" type="line"/>
			<point x="112" y="161" type="line"/>
			<point x="233" y="161" type="line"/>
			<point x="196" y="0" type="line"/>
			<point x="293" y="0" type="line"/>
			<point x="331" y="161" type="line"/>
			<point x="438" y="161" type="line"/>
			<point x="452" y="256" type="line"/>
			<point x="353" y="256" type="line"/>
			<point x="396" y="437" type="line"/>
			<point x="501" y="437" type="line"/>
			<point x="514" y="533" type="line"/>
			<point x="419" y="533" type="line"/>
			<point x="454" y="684" type="line"/>
			<point x="356" y="684" type="line"/>
			<point x="321" y="533" type="line"/>
			<point x="199" y="533" type="line"/>
			<point x="234" y="684" type="line"/>
			<point x="136" y="684" type="line"/>
			<point x="101" y="533" type="line"/>
			<point x="-53" y="533" type="line"/>
			<point x="-67" y="437" type="line"/>
			<point x="78" y="437" type="line"/>
			<point x="35" y="256" type="line"/>
		</contour>
		<contour>
			<point x="134" y="256" type="line"/>
			<point x="176" y="437" type="line"/>
			<point x="298" y="437" type="line"/>
			<point x="256" y="256" type="line"/>
		</contour>
	</outline>
</glyph>
<glyph name="braceright_braceright.cLig" format="2">
	<advance width="600"/>
	<outline>
		<contour>
			<point x="107" y="792" type="line"/>
			<point x="95" y="700" type="line"/>
			<point x="217" y="700" type="line" smooth="yes"/>
			<point x="269" y="700"/>
			<point x="296" y="681"/>
			<point x="296" y="641" type="curve" smooth="yes"/>
			<point x="296" y="558"/>
			<point x="168" y="519"/>
			<point x="168" y="416" type="curve" smooth="yes"/>
			<point x="168" y="368"/>
			<point x="208" y="328"/>
			<point x="268" y="316" type="curve"/>
			<point x="208" y="308"/>
			<point x="135" y="275"/>
			<point x="135" y="194" type="curve" smooth="yes"/>
			<point x="135" y="119"/>
			<point x="208" y="60"/>
			<point x="208" y="-3" type="curve" smooth="yes"/>
			<point x="208" y="-55"/>
			<point x="172" y="-71"/>
			<point x="114" y="-71" type="curve" smooth="yes"/>
			<point x="-219" y="-71" type="line"/>
			<point x="-164" y="-58"/>
			<point x="-135" y="-29"/>
			<point x="-135" y="18" type="curve" smooth="yes"/>
			<point x="-135" y="86"/>
			<point x="-209" y="139"/>
			<point x="-209" y="198" type="curve" smooth="yes"/>
			<point x="-209" y="236"/>
			<point x="-181" y="262"/>
			<point x="-127" y="262" type="curve" smooth="yes"/>
			<point x="-25" y="262" type="line"/>
			<point x="-10" y="370" type="line"/>
			<point x="-101" y="370" type="line" smooth="yes"/>
			<point x="-155" y="370"/>
			<point x="-173" y="393"/>
			<point x="-173" y="420" type="curve"/>
			<point x="-173" y="498"/>
			<point x="-40" y="543"/>
			<point x="-40" y="664" type="curve" smooth="yes"/>
			<point x="-40" y="735"/>
			<point x="-89" y="792"/>
			<point x="-195" y="792" type="curve" smooth="yes"/>
			<point x="-390" y="792" type="line"/>
			<point x="-403" y="700" type="line"/>
			<point x="-251" y="700" type="line" smooth="yes"/>
			<point x="-199" y="700"/>
			<point x="-172" y="681"/>
			<point x="-172" y="641" type="curve" smooth="yes"/>
			<point x="-172" y="560"/>
			<point x="-301" y="515"/>
			<point x="-301" y="413" type="curve"/>
			<point x="-301" y="365"/>
			<point x="-261" y="328"/>
			<point x="-201" y="316" type="curve"/>
			<point x="-261" y="309"/>
			<point x="-334" y="280"/>
			<point x="-334" y="197" type="curve" smooth="yes"/>
			<point x="-334" y="123"/>
			<point x="-261" y="67"/>
			<point x="-261" y="0" type="curve" smooth="yes"/>
			<point x="-261" y="-48"/>
			<point x="-297" y="-71"/>
			<point x="-360" y="-71" type="curve" smooth="yes"/>
			<point x="-511" y="-71" type="line"/>
			<point x="-524" y="-163" type="line"/>
			<point x="160" y="-163" type="line" smooth="yes"/>
			<point x="265" y="-163"/>
			<point x="332" y="-105"/>
			<point x="332" y="-20" type="curve" smooth="yes"/>
			<point x="332" y="65"/>
			<point x="260" y="131"/>
			<point x="260" y="192" type="curve" smooth="yes"/>
			<point x="260" y="231"/>
			<point x="288" y="262"/>
			<point x="331" y="262" type="curve" smooth="yes"/>
			<point x="436" y="262" type="line"/>
			<point x="450" y="370" type="line"/>
			<point x="358" y="370" type="line" smooth="yes"/>
			<point x="312" y="370"/>
			<point x="296" y="398"/>
			<point x="296" y="424" type="curve" smooth="yes"/>
			<point x="296" y="499"/>
			<point x="428" y="543"/>
			<point x="428" y="664" type="curve" smooth="yes"/>
			<point x="428" y="735"/>
			<point x="379" y="792"/>
			<point x="273" y="792" type="curve" smooth="yes"/>
		</contour>
	</outline>
</glyph>
<glyph name="bracketleft_bracketleft.cLig" format="2">
	<advance width="600"/>
	<outline>
		<contour>
			<point x="386" y="-71" type="line"/>
			<point x="163" y="-71" type="line"/>
			<point x="271" y="700" type="line"/>
			<point x="494" y="700" type="line"/>
			<point x="507" y="792" type="line"/>
			<point x="167" y="792" type="line"/>
			<point x="32" y="-163" type="line"/>
			<point x="372" y="-163" type="line"/>
		</contour>
		<contour>
			<point x="-36" y="-71" type="line"/>
			<point x="-317" y="-71" type="line"/>
			<point x="-209" y="700" type="line"/>
			<point x="72" y="700" type="line"/>
			<point x="85" y="792" type="line"/>
			<point x="-313" y="792" type="line"/>
			<point x="-448" y="-163" type="line"/>
			<point x="-50" y="-163" type="line"/>
		</contour>
	</outline>
</glyph>
<glyph name="bracketleft_bracketleft_numbersign.cLig" format="2">
	<advance width="600"/>
	<outline>
		<contour>
			<point x="-131" y="256" type="line"/>
			<point x="-145" y="161" type="line"/>
			<point x="-26" y="161" type="line"/>
			<point x="-64" y="0" type="line"/>
			<point x="35" y="0" type="line"/>
			<point x="73" y="161" type="line"/>
			<point x="194" y="161" type="line"/>
			<point x="157" y="0" type="line"/>
			<point x="254" y="0" type="line"/>
			<point x="292" y="161" type="line"/>
			<point x="399" y="161" type="line"/>
			<point x="413" y="256" type="line"/>
			<point x="314" y="256" type="line"/>
			<point x="357" y="437" type="line"/>
			<point x="462" y="437" type="line"/>
			<point x="475" y="533" type="line"/>
			<point x="380" y="533" type="line"/>
			<point x="415" y="684" type="line"/>
			<point x="317" y="684" type="line"/>
			<point x="282" y="533" type="line"/>
			<point x="160" y="533" type="line"/>
			<point x="195" y="684" type="line"/>
			<point x="97" y="684" type="line"/>
			<point x="62" y="533" type="line"/>
			<point x="-92" y="533" type="line"/>
			<point x="-106" y="437" type="line"/>
			<point x="39" y="437" type="line"/>
			<point x="-4" y="256" type="line"/>
		</contour>
		<contour>
			<point x="95" y="256" type="line"/>
			<point x="137" y="437" type="line"/>
			<point x="259" y="437" type="line"/>
			<point x="217" y="256" type="line"/>
		</contour>
		<contour>
			<point x="-227" y="-71" type="line"/>
			<point x="-450" y="-71" type="line"/>
			<point x="-342" y="700" type="line"/>
			<point x="-119" y="700" type="line"/>
			<point x="-106" y="792" type="line"/>
			<point x="-446" y="792" type="line"/>
			<point x="-581" y="-163" type="line"/>
			<point x="-241" y="-163" type="line"/>
		</contour>
		<contour>
			<point x="-649" y="-71" type="line"/>
			<point x="-930" y="-71" type="line"/>
			<point x="-822" y="700" type="line"/>
			<point x="-541" y="700" type="line"/>
			<point x="-528" y="792" type="line"/>
			<point x="-926" y="792" type="line"/>
			<point x="-1061" y="-163" type="line"/>
			<point x="-663" y="-163" type="line"/>
		</contour>
	</outline>
</glyph>
<glyph name="bracketright_numbersign.cLig" format="2">
	<advance width="600"/>
	<outline>
		<contour>
			<point x="-544" y="-163" type="line"/>
			<point x="-227" y="-163" type="line"/>
			<point x="-181" y="161" type="line"/>
			<point x="22" y="161" type="line"/>
			<point x="-16" y="0" type="line"/>
			<point x="83" y="0" type="line"/>
			<point x="120" y="161" type="line"/>
			<point x="242" y="161" type="line"/>
			<point x="205" y="0" type="line"/>
			<point x="302" y="0" type="line"/>
			<point x="340" y="161" type="line"/>
			<point x="447" y="161" type="line"/>
			<point x="461" y="256" type="line"/>
			<point x="362" y="256" type="line"/>
			<point x="405" y="437" type="line"/>
			<point x="510" y="437" type="line"/>
			<point x="523" y="533" type="line"/>
			<point x="427" y="533" type="line"/>
			<point x="463" y="684" type="line"/>
			<point x="365" y="684" type="line"/>
			<point x="330" y="533" type="line"/>
			<point x="207" y="533" type="line"/>
			<point x="243" y="684" type="line"/>
			<point x="145" y="684" type="line"/>
			<point x="110" y="533" type="line"/>
			<point x="-128" y="533" type="line"/>
			<point x="-92" y="792" type="line"/>
			<point x="-410" y="792" type="line"/>
			<point x="-423" y="701" type="line"/>
			<point x="-222" y="701" type="line"/>
			<point x="-330" y="-72" type="line"/>
			<point x="-532" y="-72" type="line"/>
		</contour>
		<contour>
			<point x="-167" y="256" type="line"/>
			<point x="-142" y="437" type="line"/>
			<point x="87" y="437" type="line"/>
			<point x="44" y="256" type="line"/>
		</contour>
		<contour>
			<point x="143" y="256" type="line"/>
			<point x="185" y="437" type="line"/>
			<point x="307" y="437" type="line"/>
			<point x="265" y="256" type="line"/>
		</contour>
	</outline>
</glyph>
<glyph name="breve.cap" format="2">
	<advance width="600"/>
	<outline>
		<contour>
			<point x="369" y="738" type="curve" smooth="yes"/>
			<point x="481" y="738"/>
			<point x="530" y="779"/>
			<point x="546" y="884" type="curve"/>
			<point x="456" y="884" type="line"/>
			<point x="447" y="823"/>
			<point x="428" y="802"/>
			<point x="377" y="802" type="curve" smooth="yes"/>
			<point x="325" y="802"/>
			<point x="311" y="832"/>
			<point x="318" y="884" type="curve"/>
			<point x="229" y="884" type="line"/>
			<point x="213" y="782"/>
			<point x="267" y="738"/>
		</contour>
	</outline>
	<anchor name="_top" x="360" y="684"/>
</glyph>
<glyph name="caron.cap" format="2">
	<advance width="600"/>
	<outline>
		<contour>
			<point x="571" y="884" type="line"/>
			<point x="457" y="884" type="line"/>
			<point x="371" y="796" type="line"/>
			<point x="311" y="884" type="line"/>
			<point x="202" y="884" type="line"/>
			<point x="301" y="745" type="line"/>
			<point x="431" y="745" type="line"/>
		</contour>
	</outline>
	<anchor name="_top" x="358" y="684"/>
</glyph>
<glyph name="caronSlovak" format="2">
	<advance width="600"/>
	<outline>
		<contour>
			<point x="284" y="569" type="line"/>
			<point x="354" y="569" type="line"/>
			<point x="449" y="750" type="line"/>
			<point x="326" y="750" type="line"/>
		</contour>
	</outline>
	<anchor name="_caron" x="326" y="750"/>
</glyph>
<glyph name="circumflex.cap" format="2">
	<advance width="600"/>
	<outline>
		<contour>
			<point x="183" y="745" type="line"/>
			<point x="298" y="745" type="line"/>
			<point x="384" y="834" type="line"/>
			<point x="444" y="745" type="line"/>
			<point x="552" y="745" type="line"/>
			<point x="453" y="884" type="line"/>
			<point x="323" y="884" type="line"/>
		</contour>
	</outline>
	<anchor name="_top" x="362" y="684"/>
</glyph>
<glyph name="colon_colon_colon.cLig" format="2">
	<advance width="600"/>
	<outline>
		<contour>
			<point x="-784" y="-12" type="curve" smooth="yes"/>
			<point x="-724" y="-12"/>
			<point x="-694" y="13"/>
			<point x="-687" y="66" type="curve" smooth="yes"/>
			<point x="-678" y="126"/>
			<point x="-706" y="155"/>
			<point x="-771" y="155" type="curve" smooth="yes"/>
			<point x="-833" y="155"/>
			<point x="-863" y="131"/>
			<point x="-870" y="78" type="curve" smooth="yes"/>
			<point x="-879" y="17"/>
			<point x="-852" y="-12"/>
		</contour>
		<contour>
			<point x="-732" y="359" type="curve" smooth="yes"/>
			<point x="-672" y="359"/>
			<point x="-642" y="384"/>
			<point x="-635" y="437" type="curve" smooth="yes"/>
			<point x="-626" y="497"/>
			<point x="-654" y="526"/>
			<point x="-719" y="526" type="curve" smooth="yes"/>
			<point x="-781" y="526"/>
			<point x="-811" y="502"/>
			<point x="-818" y="449" type="curve" smooth="yes"/>
			<point x="-827" y="388"/>
			<point x="-800" y="359"/>
		</contour>
		<contour>
			<point x="-332" y="-12" type="curve" smooth="yes"/>
			<point x="-272" y="-12"/>
			<point x="-242" y="13"/>
			<point x="-235" y="66" type="curve" smooth="yes"/>
			<point x="-226" y="126"/>
			<point x="-254" y="155"/>
			<point x="-319" y="155" type="curve" smooth="yes"/>
			<point x="-381" y="155"/>
			<point x="-411" y="131"/>
			<point x="-418" y="78" type="curve" smooth="yes"/>
			<point x="-427" y="17"/>
			<point x="-400" y="-12"/>
		</contour>
		<contour>
			<point x="-280" y="359" type="curve" smooth="yes"/>
			<point x="-220" y="359"/>
			<point x="-190" y="384"/>
			<point x="-183" y="437" type="curve" smooth="yes"/>
			<point x="-174" y="497"/>
			<point x="-202" y="526"/>
			<point x="-267" y="526" type="curve" smooth="yes"/>
			<point x="-329" y="526"/>
			<point x="-359" y="502"/>
			<point x="-366" y="449" type="curve" smooth="yes"/>
			<point x="-375" y="388"/>
			<point x="-348" y="359"/>
		</contour>
		<contour>
			<point x="120" y="-12" type="curve" smooth="yes"/>
			<point x="180" y="-12"/>
			<point x="210" y="13"/>
			<point x="217" y="66" type="curve" smooth="yes"/>
			<point x="226" y="126"/>
			<point x="198" y="155"/>
			<point x="133" y="155" type="curve" smooth="yes"/>
			<point x="71" y="155"/>
			<point x="41" y="131"/>
			<point x="34" y="78" type="curve" smooth="yes"/>
			<point x="25" y="17"/>
			<point x="52" y="-12"/>
		</contour>
		<contour>
			<point x="172" y="359" type="curve" smooth="yes"/>
			<point x="232" y="359"/>
			<point x="262" y="384"/>
			<point x="269" y="437" type="curve" smooth="yes"/>
			<point x="278" y="497"/>
			<point x="250" y="526"/>
			<point x="185" y="526" type="curve" smooth="yes"/>
			<point x="123" y="526"/>
			<point x="93" y="502"/>
			<point x="86" y="449" type="curve" smooth="yes"/>
			<point x="77" y="388"/>
			<point x="104" y="359"/>
		</contour>
	</outline>
</glyph>
<glyph name="colon_colon_equal.cLig" format="2">
	<advance width="600"/>
	<outline>
		<contour>
			<point x="-839" y="354" type="curve" smooth="yes"/>
			<point x="-779" y="354"/>
			<point x="-749" y="379"/>
			<point x="-742" y="432" type="curve" smooth="yes"/>
			<point x="-733" y="492"/>
			<point x="-761" y="521"/>
			<point x="-826" y="521" type="curve" smooth="yes"/>
			<point x="-888" y="521"/>
			<point x="-918" y="497"/>
			<point x="-925" y="444" type="curve" smooth="yes"/>
			<point x="-934" y="383"/>
			<point x="-907" y="354"/>
		</contour>
		<contour>
			<point x="-454" y="354" type="curve" smooth="yes"/>
			<point x="-394" y="354"/>
			<point x="-364" y="379"/>
			<point x="-357" y="432" type="curve" smooth="yes"/>
			<point x="-348" y="492"/>
			<point x="-376" y="521"/>
			<point x="-441" y="521" type="curve" smooth="yes"/>
			<point x="-503" y="521"/>
			<point x="-533" y="497"/>
			<point x="-540" y="444" type="curve" smooth="yes"/>
			<point x="-549" y="383"/>
			<point x="-522" y="354"/>
		</contour>
		<contour>
			<point x="-140" y="352" type="line"/>
			<point x="376" y="352" type="line"/>
			<point x="392" y="459" type="line"/>
			<point x="-125" y="459" type="line"/>
		</contour>
		<contour>
			<point x="-170" y="132" type="line"/>
			<point x="346" y="132" type="line"/>
			<point x="361" y="239" type="line"/>
			<point x="-155" y="239" type="line"/>
		</contour>
		<contour>
			<point x="-879" y="63" type="curve" smooth="yes"/>
			<point x="-819" y="63"/>
			<point x="-789" y="88"/>
			<point x="-782" y="141" type="curve" smooth="yes"/>
			<point x="-773" y="201"/>
			<point x="-801" y="230"/>
			<point x="-866" y="230" type="curve" smooth="yes"/>
			<point x="-928" y="230"/>
			<point x="-958" y="206"/>
			<point x="-965" y="153" type="curve" smooth="yes"/>
			<point x="-974" y="92"/>
			<point x="-947" y="63"/>
		</contour>
		<contour>
			<point x="-495" y="63" type="curve" smooth="yes"/>
			<point x="-435" y="63"/>
			<point x="-405" y="88"/>
			<point x="-398" y="141" type="curve" smooth="yes"/>
			<point x="-389" y="201"/>
			<point x="-417" y="230"/>
			<point x="-482" y="230" type="curve" smooth="yes"/>
			<point x="-544" y="230"/>
			<point x="-574" y="206"/>
			<point x="-581" y="153" type="curve" smooth="yes"/>
			<point x="-590" y="92"/>
			<point x="-563" y="63"/>
		</contour>
	</outline>
</glyph>
<glyph name="colon_greater.cLig.x" format="2">
	<advance width="600"/>
	<outline>
		<contour>
			<point x="47" y="638" type="line"/>
			<point x="29" y="519" type="line"/>
			<point x="355" y="320" type="line"/>
			<point x="-27" y="122" type="line"/>
			<point x="-45" y="-9" type="line"/>
			<point x="438" y="246" type="line"/>
			<point x="458" y="384" type="line"/>
		</contour>
		<contour>
			<point x="-273" y="411" type="curve" smooth="yes"/>
			<point x="-213" y="411"/>
			<point x="-183" y="436"/>
			<point x="-176" y="489" type="curve" smooth="yes"/>
			<point x="-167" y="549"/>
			<point x="-195" y="578"/>
			<point x="-260" y="578" type="curve" smooth="yes"/>
			<point x="-322" y="578"/>
			<point x="-352" y="554"/>
			<point x="-359" y="501" type="curve" smooth="yes"/>
			<point x="-368" y="440"/>
			<point x="-341" y="411"/>
		</contour>
		<contour>
			<point x="-325" y="40" type="curve" smooth="yes"/>
			<point x="-265" y="40"/>
			<point x="-235" y="65"/>
			<point x="-228" y="118" type="curve" smooth="yes"/>
			<point x="-219" y="178"/>
			<point x="-247" y="207"/>
			<point x="-312" y="207" type="curve" smooth="yes"/>
			<point x="-374" y="207"/>
			<point x="-404" y="183"/>
			<point x="-411" y="130" type="curve" smooth="yes"/>
			<point x="-420" y="69"/>
			<point x="-393" y="40"/>
		</contour>
	</outline>
</glyph>
<glyph name="dieresis.cap" format="2">
	<advance width="600"/>
	<outline>
		<contour>
			<point x="484" y="870" type="curve" smooth="yes"/>
			<point x="432" y="870"/>
			<point x="415" y="851"/>
			<point x="410" y="810" type="curve" smooth="yes"/>
			<point x="406" y="773"/>
			<point x="423" y="751"/>
			<point x="473" y="751" type="curve" smooth="yes"/>
			<point x="524" y="751"/>
			<point x="541" y="770"/>
			<point x="546" y="809" type="curve" smooth="yes"/>
			<point x="551" y="852"/>
			<point x="532" y="870"/>
		</contour>
		<contour>
			<point x="271" y="751" type="curve" smooth="yes"/>
			<point x="324" y="751"/>
			<point x="339" y="772"/>
			<point x="344" y="811" type="curve" smooth="yes"/>
			<point x="349" y="850"/>
			<point x="331" y="870"/>
			<point x="281" y="870" type="curve" smooth="yes"/>
			<point x="230" y="870"/>
			<point x="213" y="851"/>
			<point x="208" y="811" type="curve" smooth="yes"/>
			<point x="204" y="772"/>
			<point x="220" y="751"/>
		</contour>
	</outline>
	<anchor name="_top" x="359" y="684"/>
</glyph>
<glyph name="dollar_greater.cLig" format="2">
	<advance width="600"/>
	<outline>
		<contour>
			<point x="-444" y="-93" type="line"/>
			<point x="-358" y="-93" type="line"/>
			<point x="-333" y="-10" type="line"/>
			<point x="-318" y="-11"/>
			<point x="-304" y="-11"/>
			<point x="-290" y="-11" type="curve" smooth="yes"/>
			<point x="-135" y="-11"/>
			<point x="-31" y="74"/>
			<point x="-31" y="216" type="curve" smooth="yes"/>
			<point x="-31" y="329"/>
			<point x="-99" y="364"/>
			<point x="-216" y="394" type="curve"/>
			<point x="-156" y="588" type="line"/>
			<point x="-85" y="576"/>
			<point x="-18" y="547"/>
			<point x="70" y="503" type="curve" smooth="yes"/>
			<point x="432" y="319" type="line"/>
			<point x="74" y="159" type="line"/>
			<point x="57" y="34" type="line"/>
			<point x="515" y="245" type="line"/>
			<point x="534" y="383" type="line"/>
			<point x="116" y="598" type="line" smooth="yes"/>
			<point x="20" y="645"/>
			<point x="-47" y="672"/>
			<point x="-117" y="686" type="curve"/>
			<point x="-90" y="774" type="line"/>
			<point x="-176" y="774" type="line"/>
			<point x="-201" y="695" type="line"/>
			<point x="-234" y="695" type="line" smooth="yes"/>
			<point x="-402" y="695"/>
			<point x="-496" y="609"/>
			<point x="-496" y="475" type="curve" smooth="yes"/>
			<point x="-496" y="353"/>
			<point x="-416" y="317"/>
			<point x="-316" y="293" type="curve"/>
			<point x="-374" y="103" type="line"/>
			<point x="-428" y="116"/>
			<point x="-482" y="142"/>
			<point x="-527" y="182" type="curve"/>
			<point x="-544" y="69" type="line"/>
			<point x="-511" y="42"/>
			<point x="-466" y="19"/>
			<point x="-414" y="5" type="curve"/>
		</contour>
		<contour>
			<point x="-371" y="493" type="curve" smooth="yes"/>
			<point x="-371" y="558"/>
			<point x="-325" y="595"/>
			<point x="-240" y="595" type="curve" smooth="yes"/>
			<point x="-223" y="595" type="line"/>
			<point x="-280" y="410" type="line"/>
			<point x="-342" y="426"/>
			<point x="-371" y="443"/>
		</contour>
		<contour>
			<point x="-155" y="195" type="curve" smooth="yes"/>
			<point x="-155" y="128"/>
			<point x="-209" y="92"/>
			<point x="-291" y="92" type="curve" smooth="yes"/>
			<point x="-297" y="92"/>
			<point x="-303" y="92"/>
			<point x="-309" y="93" type="curve"/>
			<point x="-252" y="279" type="line"/>
			<point x="-190" y="265"/>
			<point x="-155" y="249"/>
		</contour>
	</outline>
</glyph>
<glyph name="dotaccent.cap" format="2">
	<advance width="600"/>
	<outline>
		<contour>
			<point x="374" y="751" type="curve" smooth="yes"/>
			<point x="432" y="751"/>
			<point x="451" y="772"/>
			<point x="455" y="817" type="curve" smooth="yes"/>
			<point x="460" y="860"/>
			<point x="435" y="880"/>
			<point x="383" y="880" type="curve" smooth="yes"/>
			<point x="324" y="880"/>
			<point x="304" y="859"/>
			<point x="300" y="812" type="curve" smooth="yes"/>
			<point x="297" y="772"/>
			<point x="319" y="751"/>
		</contour>
	</outline>
	<anchor name="_top" x="360" y="684"/>
</glyph>
<glyph name="equal.init" format="2">
	<advance width="600"/>
	<outline>
		<contour>
			<point x="180" y="371" type="line"/>
			<point x="615" y="371" type="line"/>
			<point x="630" y="478" type="line"/>
			<point x="195" y="478" type="line"/>
		</contour>
		<contour>
			<point x="149" y="151" type="line"/>
			<point x="584" y="151" type="line"/>
			<point x="599" y="258" type="line"/>
			<point x="164" y="258" type="line"/>
		</contour>
	</outline>
</glyph>
<glyph name="equal_equal_greater.rem" format="2">
	<advance width="600"/>
	<outline>
		<contour>
			<point x="-1050" y="151" type="line"/>
			<point x="173" y="151" type="line"/>
			<point x="22" y="0" type="line"/>
			<point x="173" y="0" type="line"/>
			<point x="480" y="311" type="line"/>
			<point x="251" y="629" type="line"/>
			<point x="113" y="629" type="line"/>
			<point x="222" y="478" type="line"/>
			<point x="-1004" y="478" type="line"/>
			<point x="-1019" y="371" type="line"/>
			<point x="299" y="371" type="line"/>
			<point x="338" y="317" type="line"/>
			<point x="279" y="258" type="line"/>
			<point x="-1035" y="258" type="line"/>
		</contour>
	</outline>
</glyph>
<glyph name="equal_greater_greater.rem" format="2">
	<advance width="600"/>
	<outline>
		<contour>
			<point x="24" y="0" type="line"/>
			<point x="175" y="0" type="line"/>
			<point x="477" y="313" type="line"/>
			<point x="244" y="629" type="line"/>
			<point x="104" y="629" type="line"/>
			<point x="332" y="318" type="line"/>
		</contour>
		<contour>
			<point x="-1051" y="151" type="line"/>
			<point x="-214" y="151" type="line"/>
			<point x="-364" y="0" type="line"/>
			<point x="-214" y="0" type="line"/>
			<point x="93" y="311" type="line"/>
			<point x="-136" y="629" type="line"/>
			<point x="-274" y="629" type="line"/>
			<point x="-165" y="478" type="line"/>
			<point x="-1005" y="478" type="line"/>
			<point x="-1020" y="371" type="line"/>
			<point x="-88" y="371" type="line"/>
			<point x="-49" y="317" type="line"/>
			<point x="-108" y="258" type="line"/>
			<point x="-1036" y="258" type="line"/>
		</contour>
	</outline>
</glyph>
<glyph name="equal_less.rem" format="2">
	<advance width="600"/>
	<outline>
		<contour>
			<point x="434" y="258" type="line"/>
			<point x="-295" y="258" type="line"/>
			<point x="-334" y="312" type="line"/>
			<point x="-275" y="371" type="line"/>
			<point x="450" y="371" type="line"/>
			<point x="465" y="478" type="line"/>
			<point x="-169" y="478" type="line"/>
			<point x="-18" y="629" type="line"/>
			<point x="-169" y="629" type="line"/>
			<point x="-476" y="318" type="line"/>
			<point x="-247" y="0" type="line"/>
			<point x="-109" y="0" type="line"/>
			<point x="-218" y="151" type="line"/>
			<point x="419" y="151" type="line"/>
		</contour>
	</outline>
</glyph>
<glyph name="equal_less_less.rem" format="2">
	<advance width="600"/>
	<outline>
		<contour>
			<point x="557" y="629" type="line"/>
			<point x="406" y="629" type="line"/>
			<point x="95" y="316" type="line"/>
			<point x="329" y="0" type="line"/>
			<point x="469" y="0" type="line"/>
			<point x="239" y="309" type="line"/>
		</contour>
		<contour>
			<point x="172" y="629" type="line"/>
			<point x="23" y="629" type="line"/>
			<point x="-125" y="478" type="line"/>
			<point x="-1005" y="478" type="line"/>
			<point x="-1020" y="371" type="line"/>
			<point x="-76" y="371" type="line"/>
		</contour>
		<contour>
			<point x="-92" y="258" type="line"/>
			<point x="-1036" y="258" type="line"/>
			<point x="-1051" y="151" type="line"/>
			<point x="-156" y="151" type="line"/>
			<point x="-50" y="0" type="line"/>
			<point x="87" y="0" type="line"/>
		</contour>
	</outline>
</glyph>
<glyph name="equal_slash_equal.rem" format="2">
	<advance width="600"/>
	<outline>
		<contour>
			<point x="-1054" y="130" type="line"/>
			<point x="-477" y="130" type="line"/>
			<point x="-636" y="-77" type="line"/>
			<point x="-517" y="-77" type="line"/>
			<point x="-359" y="130" type="line"/>
			<point x="416" y="130" type="line"/>
			<point x="431" y="236" type="line"/>
			<point x="-278" y="236" type="line"/>
			<point x="-190" y="350" type="line"/>
			<point x="447" y="350" type="line"/>
			<point x="462" y="456" type="line"/>
			<point x="-109" y="456" type="line"/>
			<point x="37" y="647" type="line"/>
			<point x="-82" y="647" type="line"/>
			<point x="-228" y="456" type="line"/>
			<point x="-1008" y="456" type="line"/>
			<point x="-1023" y="350" type="line"/>
			<point x="-309" y="350" type="line"/>
			<point x="-396" y="236" type="line"/>
			<point x="-1039" y="236" type="line"/>
		</contour>
	</outline>
</glyph>
<glyph name="exclam_equal_equal.cLig" format="2">
	<advance width="600"/>
	<outline>
		<contour>
			<point x="-1084" y="66" type="line"/>
			<point x="-531" y="66" type="line"/>
			<point x="-636" y="-80" type="line"/>
			<point x="-517" y="-80" type="line"/>
			<point x="-412" y="66" type="line"/>
			<point x="415" y="66" type="line"/>
			<point x="429" y="166" type="line"/>
			<point x="-340" y="166" type="line"/>
			<point x="-264" y="272" type="line"/>
			<point x="444" y="272" type="line"/>
			<point x="458" y="372" type="line"/>
			<point x="-192" y="372" type="line"/>
			<point x="-115" y="478" type="line"/>
			<point x="474" y="478" type="line"/>
			<point x="487" y="578" type="line"/>
			<point x="-44" y="578" type="line"/>
			<point x="37" y="690" type="line"/>
			<point x="-82" y="690" type="line"/>
			<point x="-162" y="578" type="line"/>
			<point x="-1012" y="578" type="line"/>
			<point x="-1026" y="478" type="line"/>
			<point x="-234" y="478" type="line"/>
			<point x="-311" y="372" type="line"/>
			<point x="-1041" y="372" type="line"/>
			<point x="-1055" y="272" type="line"/>
			<point x="-382" y="272" type="line"/>
			<point x="-459" y="166" type="line"/>
			<point x="-1070" y="166" type="line"/>
		</contour>
	</outline>
</glyph>
<glyph name="exclam_exclam.cLig" format="2">
	<advance width="600"/>
	<outline>
		<contour>
			<point x="-279" y="219" type="line"/>
			<point x="-189" y="219" type="line"/>
			<point x="-119" y="552" type="line"/>
			<point x="-100" y="684" type="line"/>
			<point x="-237" y="684" type="line"/>
			<point x="-256" y="552" type="line"/>
		</contour>
		<contour>
			<point x="-259" y="-12" type="curve" smooth="yes"/>
			<point x="-203" y="-12"/>
			<point x="-177" y="10"/>
			<point x="-171" y="58" type="curve" smooth="yes"/>
			<point x="-163" y="113"/>
			<point x="-190" y="140"/>
			<point x="-249" y="140" type="curve" smooth="yes"/>
			<point x="-306" y="140"/>
			<point x="-332" y="118"/>
			<point x="-338" y="71" type="curve" smooth="yes"/>
			<point x="-346" y="14"/>
			<point x="-319" y="-12"/>
		</contour>
		<contour>
			<point x="175" y="219" type="line"/>
			<point x="265" y="219" type="line"/>
			<point x="335" y="552" type="line"/>
			<point x="354" y="684" type="line"/>
			<point x="217" y="684" type="line"/>
			<point x="198" y="552" type="line"/>
		</contour>
		<contour>
			<point x="195" y="-12" type="curve" smooth="yes"/>
			<point x="251" y="-12"/>
			<point x="277" y="10"/>
			<point x="283" y="58" type="curve" smooth="yes"/>
			<point x="291" y="113"/>
			<point x="264" y="140"/>
			<point x="205" y="140" type="curve" smooth="yes"/>
			<point x="148" y="140"/>
			<point x="122" y="118"/>
			<point x="116" y="71" type="curve" smooth="yes"/>
			<point x="108" y="14"/>
			<point x="135" y="-12"/>
		</contour>
	</outline>
</glyph>
<glyph name="five.den" format="2">
	<advance width="600"/>
	<outline>
		<contour>
			<point x="261" y="-8" type="curve" smooth="yes"/>
			<point x="367" y="-8"/>
			<point x="433" y="53"/>
			<point x="432" y="148" type="curve" smooth="yes"/>
			<point x="431" y="220"/>
			<point x="387" y="254"/>
			<point x="302" y="254" type="curve" smooth="yes"/>
			<point x="282" y="254"/>
			<point x="263" y="252"/>
			<point x="245" y="249" type="curve"/>
			<point x="259" y="342" type="line"/>
			<point x="449" y="342" type="line"/>
			<point x="458" y="410" type="line"/>
			<point x="189" y="410" type="line"/>
			<point x="156" y="176" type="line"/>
			<point x="187" y="185"/>
			<point x="219" y="192"/>
			<point x="258" y="192" type="curve" smooth="yes"/>
			<point x="319" y="192"/>
			<point x="344" y="175"/>
			<point x="345" y="137" type="curve" smooth="yes"/>
			<point x="346" y="93"/>
			<point x="316" y="62"/>
			<point x="258" y="62" type="curve" smooth="yes"/>
			<point x="218" y="62"/>
			<point x="173" y="75"/>
			<point x="132" y="105" type="curve"/>
			<point x="122" y="34" type="line"/>
			<point x="149" y="12"/>
			<point x="199" y="-8"/>
		</contour>
	</outline>
</glyph>
<glyph name="five.numr" format="2">
	<advance width="600"/>
	<outline>
		<contour>
			<point x="314" y="366" type="curve" smooth="yes"/>
			<point x="404" y="366"/>
			<point x="460" y="421"/>
			<point x="459" y="499" type="curve" smooth="yes"/>
			<point x="458" y="557"/>
			<point x="423" y="586"/>
			<point x="350" y="586" type="curve" smooth="yes"/>
			<point x="333" y="586"/>
			<point x="319" y="585"/>
			<point x="305" y="582" type="curve"/>
			<point x="315" y="657" type="line"/>
			<point x="472" y="657" type="line"/>
			<point x="480" y="718" type="line"/>
			<point x="253" y="718" type="line"/>
			<point x="225" y="519" type="line"/>
			<point x="260" y="528"/>
			<point x="284" y="531"/>
			<point x="310" y="531" type="curve" smooth="yes"/>
			<point x="362" y="531"/>
			<point x="380" y="518"/>
			<point x="381" y="487" type="curve" smooth="yes"/>
			<point x="381" y="450"/>
			<point x="357" y="428"/>
			<point x="311" y="428" type="curve" smooth="yes"/>
			<point x="277" y="428"/>
			<point x="239" y="438"/>
			<point x="205" y="463" type="curve"/>
			<point x="196" y="400" type="line"/>
			<point x="220" y="381"/>
			<point x="263" y="366"/>
		</contour>
	</outline>
</glyph>
<glyph name="four.den" format="2">
	<advance width="600"/>
	<outline>
		<contour>
			<point x="295" y="0" type="line"/>
			<point x="379" y="0" type="line"/>
			<point x="390" y="75" type="line"/>
			<point x="432" y="75" type="line"/>
			<point x="441" y="144" type="line"/>
			<point x="399" y="144" type="line"/>
			<point x="436" y="411" type="line"/>
			<point x="307" y="411" type="line"/>
			<point x="114" y="144" type="line"/>
			<point x="105" y="75" type="line"/>
			<point x="305" y="75" type="line"/>
		</contour>
		<contour>
			<point x="197" y="144" type="line"/>
			<point x="345" y="353" type="line"/>
			<point x="315" y="144" type="line"/>
		</contour>
	</outline>
</glyph>
<glyph name="g.ss01" format="2">
	<advance width="600"/>
	<outline>
		<contour>
			<point x="219" y="-204" type="curve" smooth="yes"/>
			<point x="355" y="-204"/>
			<point x="468" y="-143"/>
			<point x="492" y="33" type="curve" smooth="yes"/>
			<point x="561" y="523" type="line"/>
			<point x="371" y="523" type="line" smooth="yes"/>
			<point x="193" y="523"/>
			<point x="81" y="434"/>
			<point x="58" y="274" type="curve" smooth="yes"/>
			<point x="56" y="260" type="line" smooth="yes"/>
			<point x="34" y="109"/>
			<point x="94" y="12"/>
			<point x="215" y="12" type="curve" smooth="yes"/>
			<point x="280" y="12"/>
			<point x="338" y="45"/>
			<point x="380" y="119" type="curve"/>
			<point x="370" y="50" type="line" smooth="yes"/>
			<point x="355" y="-58"/>
			<point x="304" y="-105"/>
			<point x="211" y="-105" type="curve" smooth="yes"/>
			<point x="141" y="-105"/>
			<point x="86" y="-78"/>
			<point x="46" y="-47" type="curve"/>
			<point x="32" y="-149" type="line"/>
			<point x="70" y="-177"/>
			<point x="135" y="-204"/>
		</contour>
		<contour>
			<point x="276" y="108" type="curve" smooth="yes"/>
			<point x="203" y="108"/>
			<point x="170" y="168"/>
			<point x="184" y="265" type="curve" smooth="yes"/>
			<point x="185" y="272" type="line" smooth="yes"/>
			<point x="200" y="376"/>
			<point x="260" y="425"/>
			<point x="361" y="425" type="curve" smooth="yes"/>
			<point x="423" y="425" type="line"/>
			<point x="397" y="240" type="line" smooth="yes"/>
			<point x="385" y="161"/>
			<point x="342" y="108"/>
		</contour>
	</outline>
	<anchor name="top" x="363" y="523"/>
</glyph>
<glyph name="greater_equal.fina" format="2">
	<advance width="600"/>
	<outline>
		<contour>
			<point x="-15" y="151" type="line"/>
			<point x="242" y="151" type="line"/>
			<point x="91" y="0" type="line"/>
			<point x="242" y="0" type="line"/>
			<point x="549" y="311" type="line"/>
			<point x="320" y="629" type="line"/>
			<point x="182" y="629" type="line"/>
			<point x="291" y="478" type="line"/>
			<point x="31" y="478" type="line"/>
			<point x="15" y="371" type="line"/>
			<point x="368" y="371" type="line"/>
			<point x="407" y="317" type="line"/>
			<point x="348" y="258" type="line"/>
			<point x="0" y="258" type="line"/>
		</contour>
	</outline>
</glyph>
<glyph name="greater_equal.med" format="2">
	<advance width="600"/>
	<outline>
		<contour>
			<point x="69" y="0" type="line"/>
			<point x="221" y="0" type="line"/>
			<point x="370" y="151" type="line"/>
			<point x="584" y="151" type="line"/>
			<point x="599" y="258" type="line"/>
			<point x="474" y="258" type="line"/>
			<point x="527" y="312" type="line"/>
			<point x="484" y="371" type="line"/>
			<point x="615" y="371" type="line"/>
			<point x="630" y="478" type="line"/>
			<point x="406" y="478" type="line"/>
			<point x="296" y="629" type="line"/>
			<point x="156" y="629" type="line"/>
			<point x="266" y="478" type="line"/>
			<point x="31" y="478" type="line"/>
			<point x="15" y="371" type="line"/>
			<point x="344" y="371" type="line"/>
			<point x="384" y="318" type="line"/>
			<point x="324" y="258" type="line"/>
			<point x="0" y="258" type="line"/>
			<point x="-16" y="151" type="line"/>
			<point x="219" y="151" type="line"/>
		</contour>
	</outline>
</glyph>
<glyph name="greater_greater_equal.fina" format="2">
	<advance width="600"/>
	<outline>
		<contour>
			<point x="39" y="0" type="line"/>
			<point x="190" y="0" type="line"/>
			<point x="492" y="313" type="line"/>
			<point x="259" y="629" type="line"/>
			<point x="119" y="629" type="line"/>
			<point x="347" y="318" type="line"/>
		</contour>
		<contour>
			<point x="-615" y="151" type="line"/>
			<point x="-199" y="151" type="line"/>
			<point x="-349" y="0" type="line"/>
			<point x="-199" y="0" type="line"/>
			<point x="108" y="311" type="line"/>
			<point x="-121" y="629" type="line"/>
			<point x="-259" y="629" type="line"/>
			<point x="-150" y="478" type="line"/>
			<point x="-569" y="478" type="line"/>
			<point x="-584" y="371" type="line"/>
			<point x="-73" y="371" type="line"/>
			<point x="-34" y="317" type="line"/>
			<point x="-93" y="258" type="line"/>
			<point x="-600" y="258" type="line"/>
		</contour>
	</outline>
</glyph>
<glyph name="greater_greater_equal.med" format="2">
	<advance width="600"/>
	<outline>
		<contour>
			<point x="-615" y="151" type="line"/>
			<point x="-358" y="151" type="line"/>
			<point x="-509" y="0" type="line"/>
			<point x="-358" y="0" type="line"/>
			<point x="-51" y="311" type="line"/>
			<point x="-280" y="629" type="line"/>
			<point x="-418" y="629" type="line"/>
			<point x="-309" y="478" type="line"/>
			<point x="-569" y="478" type="line"/>
			<point x="-585" y="371" type="line"/>
			<point x="-232" y="371" type="line"/>
			<point x="-193" y="317" type="line"/>
			<point x="-252" y="258" type="line"/>
			<point x="-600" y="258" type="line"/>
		</contour>
		<contour>
			<point x="138" y="371" type="line"/>
			<point x="615" y="371" type="line"/>
			<point x="631" y="478" type="line"/>
			<point x="203" y="478" type="line"/>
			<point x="96" y="629" type="line"/>
			<point x="-40" y="629" type="line"/>
		</contour>
		<contour>
			<point x="-125" y="0" type="line"/>
			<point x="24" y="0" type="line"/>
			<point x="172" y="151" type="line"/>
			<point x="584" y="151" type="line"/>
			<point x="600" y="258" type="line"/>
			<point x="122" y="258" type="line"/>
		</contour>
	</outline>
</glyph>
<glyph name="greater_greater_equal.rem" format="2">
	<advance width="600"/>
	<outline>
		<contour>
			<point x="-1142" y="0" type="line"/>
			<point x="-991" y="0" type="line"/>
			<point x="-680" y="313" type="line"/>
			<point x="-914" y="629" type="line"/>
			<point x="-1054" y="629" type="line"/>
			<point x="-824" y="320" type="line"/>
		</contour>
		<contour>
			<point x="-493" y="371" type="line"/>
			<point x="451" y="371" type="line"/>
			<point x="466" y="478" type="line"/>
			<point x="-429" y="478" type="line"/>
			<point x="-535" y="629" type="line"/>
			<point x="-672" y="629" type="line"/>
		</contour>
		<contour>
			<point x="-757" y="0" type="line"/>
			<point x="-608" y="0" type="line"/>
			<point x="-460" y="151" type="line"/>
			<point x="420" y="151" type="line"/>
			<point x="435" y="258" type="line"/>
			<point x="-509" y="258" type="line"/>
		</contour>
	</outline>
</glyph>
<glyph name="greater_greater_greater.cLig" format="2">
	<advance width="600"/>
	<outline>
		<contour>
			<point x="-1144" y="25" type="line"/>
			<point x="-653" y="229" type="line"/>
			<point x="-634" y="366" type="line"/>
			<point x="-1067" y="571" type="line"/>
			<point x="-1084" y="454" type="line"/>
			<point x="-746" y="300" type="line"/>
			<point x="-1126" y="150" type="line"/>
		</contour>
		<contour>
			<point x="-562" y="25" type="line"/>
			<point x="-71" y="229" type="line"/>
			<point x="-52" y="366" type="line"/>
			<point x="-485" y="571" type="line"/>
			<point x="-502" y="454" type="line"/>
			<point x="-164" y="300" type="line"/>
			<point x="-544" y="150" type="line"/>
		</contour>
		<contour>
			<point x="21" y="25" type="line"/>
			<point x="512" y="229" type="line"/>
			<point x="531" y="366" type="line"/>
			<point x="98" y="571" type="line"/>
			<point x="81" y="454" type="line"/>
			<point x="419" y="300" type="line"/>
			<point x="39" y="150" type="line"/>
		</contour>
	</outline>
</glyph>
<glyph name="greater_greater_hyphen.fina" format="2">
	<advance width="600"/>
	<outline>
		<contour>
			<point x="36" y="0" type="line"/>
			<point x="188" y="0" type="line"/>
			<point x="493" y="314" type="line"/>
			<point x="259" y="629" type="line"/>
			<point x="121" y="629" type="line"/>
			<point x="346" y="321" type="line"/>
		</contour>
		<contour>
			<point x="-150" y="371" type="line"/>
			<point x="-585" y="371" type="line"/>
			<point x="-601" y="258" type="line"/>
			<point x="-414" y="258" type="line"/>
			<point x="-82" y="257" type="line"/>
			<point x="-345" y="0" type="line"/>
			<point x="-198" y="0" type="line"/>
			<point x="118" y="314" type="line"/>
			<point x="-115" y="629" type="line"/>
			<point x="-252" y="629" type="line"/>
			<point x="-59" y="370" type="line"/>
			<point x="-150" y="370" type="line"/>
		</contour>
	</outline>
</glyph>
<glyph name="greater_greater_hyphen.med" format="2">
	<advance width="600"/>
	<outline>
		<contour>
			<point x="-102" y="0" type="line"/>
			<point x="50" y="0" type="line"/>
			<point x="301" y="258" type="line"/>
			<point x="599" y="258" type="line"/>
			<point x="616" y="371" type="line"/>
			<point x="313" y="371" type="line"/>
			<point x="122" y="629" type="line"/>
			<point x="-16" y="629" type="line"/>
			<point x="207" y="321" type="line"/>
		</contour>
		<contour>
			<point x="-393" y="629" type="line"/>
			<point x="-199" y="371" type="line"/>
			<point x="-585" y="371" type="line"/>
			<point x="-601" y="258" type="line"/>
			<point x="-555" y="258" type="line"/>
			<point x="-223" y="257" type="line"/>
			<point x="-486" y="0" type="line"/>
			<point x="-338" y="0" type="line"/>
			<point x="-22" y="314" type="line"/>
			<point x="-255" y="629" type="line"/>
		</contour>
	</outline>
</glyph>
<glyph name="greater_hyphen.fina" format="2">
	<advance width="600"/>
	<outline>
		<contour>
			<point x="161" y="629" type="line"/>
			<point x="355" y="370" type="line"/>
			<point x="15" y="371" type="line"/>
			<point x="-1" y="258" type="line"/>
			<point x="331" y="257" type="line"/>
			<point x="68" y="0" type="line"/>
			<point x="216" y="0" type="line"/>
			<point x="532" y="314" type="line"/>
			<point x="299" y="629" type="line"/>
		</contour>
	</outline>
</glyph>
<glyph name="greater_hyphen.rem" format="2">
	<advance width="600"/>
	<outline>
		<contour>
			<point x="-517" y="0" type="line"/>
			<point x="-365" y="0" type="line"/>
			<point x="-115" y="258" type="line"/>
			<point x="469" y="258" type="line"/>
			<point x="485" y="371" type="line"/>
			<point x="-102" y="371" type="line"/>
			<point x="-294" y="629" type="line"/>
			<point x="-432" y="629" type="line"/>
			<point x="-208" y="321" type="line"/>
		</contour>
	</outline>
</glyph>
<glyph name="greater_hyphen_greater.rem" format="2">
	<advance width="600"/>
	<outline>
		<contour>
			<point x="-1107" y="0" type="line"/>
			<point x="-955" y="0" type="line"/>
			<point x="-705" y="258" type="line"/>
			<point x="-53" y="258" type="line"/>
			<point x="279" y="257" type="line"/>
			<point x="16" y="0" type="line"/>
			<point x="164" y="0" type="line"/>
			<point x="480" y="314" type="line"/>
			<point x="247" y="629" type="line"/>
			<point x="109" y="629" type="line"/>
			<point x="303" y="370" type="line"/>
			<point x="35" y="371" type="line"/>
			<point x="-692" y="371" type="line"/>
			<point x="-884" y="629" type="line"/>
			<point x="-1022" y="629" type="line"/>
			<point x="-798" y="321" type="line"/>
		</contour>
	</outline>
</glyph>
<glyph name="hyphen_bar_bar.rem" format="2">
	<advance width="600"/>
	<outline>
		<contour>
			<point x="47" y="683" type="line"/>
			<point x="-70" y="683" type="line"/>
			<point x="-114" y="371" type="line"/>
			<point x="-1021" y="371" type="line"/>
			<point x="-1036" y="258" type="line"/>
			<point x="-130" y="258" type="line"/>
			<point x="-174" y="-56" type="line"/>
			<point x="-57" y="-56" type="line"/>
		</contour>
		<contour>
			<point x="429" y="683" type="line"/>
			<point x="312" y="683" type="line"/>
			<point x="208" y="-56" type="line"/>
			<point x="325" y="-56" type="line"/>
		</contour>
	</outline>
</glyph>
<glyph name="hyphen_braceright.rem" format="2">
	<advance width="600"/>
	<outline>
		<contour>
			<point x="-62" y="-163" type="line"/>
			<point x="125" y="-163" type="line" smooth="yes"/>
			<point x="230" y="-163"/>
			<point x="295" y="-104"/>
			<point x="295" y="-19" type="curve" smooth="yes"/>
			<point x="295" y="64"/>
			<point x="224" y="131"/>
			<point x="224" y="191" type="curve" smooth="yes"/>
			<point x="224" y="233"/>
			<point x="253" y="262"/>
			<point x="321" y="262" type="curve" smooth="yes"/>
			<point x="401" y="262" type="line"/>
			<point x="416" y="370" type="line"/>
			<point x="339" y="370" type="line" smooth="yes"/>
			<point x="281" y="370"/>
			<point x="262" y="400"/>
			<point x="262" y="430" type="curve" smooth="yes"/>
			<point x="262" y="506"/>
			<point x="392" y="548"/>
			<point x="392" y="664" type="curve" smooth="yes"/>
			<point x="392" y="734"/>
			<point x="344" y="792"/>
			<point x="238" y="792" type="curve" smooth="yes"/>
			<point x="73" y="792" type="line"/>
			<point x="60" y="700" type="line"/>
			<point x="183" y="700" type="line" smooth="yes"/>
			<point x="235" y="700"/>
			<point x="262" y="681"/>
			<point x="262" y="641" type="curve" smooth="yes"/>
			<point x="262" y="563"/>
			<point x="134" y="525"/>
			<point x="134" y="436" type="curve" smooth="yes"/>
			<point x="134" y="397"/>
			<point x="162" y="378"/>
			<point x="200" y="368" type="curve"/>
			<point x="-419" y="368" type="line"/>
			<point x="-435" y="261" type="line"/>
			<point x="183" y="261" type="line"/>
			<point x="138" y="249"/>
			<point x="99" y="226"/>
			<point x="99" y="177" type="curve" smooth="yes"/>
			<point x="99" y="116"/>
			<point x="173" y="58"/>
			<point x="173" y="-3" type="curve" smooth="yes"/>
			<point x="173" y="-55"/>
			<point x="138" y="-71"/>
			<point x="81" y="-71" type="curve" smooth="yes"/>
			<point x="-48" y="-71" type="line"/>
		</contour>
	</outline>
</glyph>
<glyph name="hyphen_less_less.rem" format="2">
	<advance width="600"/>
	<outline>
		<contour>
			<point x="504" y="629" type="line"/>
			<point x="353" y="629" type="line"/>
			<point x="49" y="315" type="line"/>
			<point x="281" y="0" type="line"/>
			<point x="419" y="0" type="line"/>
			<point x="195" y="309" type="line"/>
		</contour>
		<contour>
			<point x="121" y="629" type="line"/>
			<point x="-30" y="629" type="line"/>
			<point x="-281" y="371" type="line"/>
			<point x="-1073" y="371" type="line"/>
			<point x="-1089" y="258" type="line"/>
			<point x="-293" y="258" type="line"/>
			<point x="-102" y="0" type="line"/>
			<point x="36" y="0" type="line"/>
			<point x="-187" y="308" type="line"/>
		</contour>
	</outline>
</glyph>
<glyph name="less_asciitilde.cLig" format="2">
	<advance width="600"/>
	<outline>
		<contour>
			<point x="-312" y="258" type="line"/>
			<point x="106" y="258" type="line"/>
			<point x="116" y="300"/>
			<point x="135" y="328"/>
			<point x="173" y="328" type="curve" smooth="yes"/>
			<point x="238" y="328"/>
			<point x="258" y="204"/>
			<point x="364" y="204" type="curve" smooth="yes"/>
			<point x="447" y="204"/>
			<point x="508" y="260"/>
			<point x="528" y="423" type="curve"/>
			<point x="430" y="423" type="line"/>
			<point x="422" y="352"/>
			<point x="402" y="318"/>
			<point x="364" y="318" type="curve" smooth="yes"/>
			<point x="303" y="318"/>
			<point x="276" y="439"/>
			<point x="169" y="439" type="curve" smooth="yes"/>
			<point x="121" y="439"/>
			<point x="80" y="419"/>
			<point x="53" y="371" type="curve"/>
			<point x="33" y="371" type="line"/>
			<point x="-299" y="372" type="line"/>
			<point x="-36" y="629" type="line"/>
			<point x="-184" y="629" type="line"/>
			<point x="-500" y="315" type="line"/>
			<point x="-267" y="0" type="line"/>
			<point x="-129" y="0" type="line"/>
			<point x="-323" y="259" type="line"/>
			<point x="-312" y="259" type="line"/>
		</contour>
	</outline>
</glyph>
